<?xml version="1.0" encoding="UTF-8"?>
<svg id="Layer_1" xmlns="http://www.w3.org/2000/svg" version="1.1" viewBox="0 0 157.23 157.28">
  <!-- Generator: Adobe Illustrator 29.8.3, SVG Export Plug-In . SVG Version: 2.1.1 Build 3)  -->
  <path d="M14.04,103.74l14.04,8.07,14.37,8.23-14.04,8.07c-.22.11-.43.11-.65,0l-14.04-8.07L.32,112.46c-.22-.21-.32-.43-.32-.65s.11-.43.32-.65l13.08-7.43c.21-.11.43-.11.65,0ZM84.91,36.91c.32.22.48.54.48.97v81.68c0,.43-.16.7-.48.81l-12.43,7.26c-.32.11-.65.08-.97-.08-.32-.16-.48-.46-.48-.89V48.21c0-.32-.14-.56-.4-.73-.27-.16-.56-.19-.89-.08l-12.59,7.26c-.22.22-.32.48-.32.81v55.85c0,.32-.22.59-.65.81l-13.72,7.91V48.37c0-.43-.16-.73-.48-.89-.32-.16-.65-.13-.97.08l-12.43,7.1c-.32.22-.48.48-.48.81v39.23c0,.43-.16.7-.48.81l-12.43,7.26c-.32.11-.65.08-.97-.08-.32-.16-.48-.46-.48-.89v-55.69c0-.43-.16-.7-.48-.81L.81,38.04c-.32-.21-.48-.48-.48-.81s.16-.59.48-.81l12.43-7.26c.32-.11.65-.11.97,0l13.4,7.75c.32.22.65.22.97,0l6.46-3.71,6.94-4.04c.32-.11.65-.11.97,0l13.24,7.75c.32.22.65.22.97,0l8.07-4.52,5.33-3.23c.32-.11.65-.11.97,0l13.4,7.75ZM42.46,45.46l-12.91-7.43c-.32-.21-.65-.21-.97,0-.32.22-.48.48-.48.81v13.24c0,.43.16.73.48.89.32.16.65.19.97.08l12.91-7.59ZM56.82,38.85v13.24c0,.43.13.73.4.89.27.16.56.19.89.08l11.62-6.78c.21-.11.32-.35.32-.73s-.11-.67-.32-.89l-11.62-6.62c-.32-.21-.65-.21-.97,0-.22.22-.32.48-.32.81Z"/>
  <path d="M157.07,87.44l.16,23.73c0,.32-.16.59-.48.81l-13.88,8.07-13.88,7.91c-.32.22-.65.22-.97,0l-13.88-7.91-13.88-8.07c-.32-.11-.48-.38-.48-.81v-15.5c0-.32.16-.59.48-.81l12.43-7.1c.32-.21.65-.24.97-.08.32.16.48.46.48.89v14.37c0,.32.16.59.48.81l13.88,8.07,12.91,7.43c.32.11.65.11.97,0,.32-.21.48-.54.48-.97v-22.6c0-.32-.16-.59-.48-.81l-13.88-7.91-14.37-8.39-13.88-7.91c-.32-.21-.48-.48-.48-.81v-23.73c0-.43.16-.7.48-.81l2.91-1.78,19.21-11.14,5.65-3.23c.32-.11.65-.11.97,0l13.72,8.07,13.88,8.07c.32.11.48.38.48.81v15.5c0,.32-.16.59-.48.81l-12.43,7.1c-.32.22-.65.24-.97.08-.32-.16-.48-.46-.48-.89v-14.37c0-.32-.11-.59-.32-.81l-13.88-8.07-12.92-7.43c-.32-.21-.65-.21-.97,0-.32.22-.48.48-.48.81v22.6c0,.43.16.75.48.97l13.88,7.91,14.21,8.23,13.88,8.07c.32.22.48.48.48.81Z"/>
</svg>