<?xml version="1.0" encoding="UTF-8"?>
<svg id="Layer_1" xmlns="http://www.w3.org/2000/svg" version="1.1" viewBox="0 0 321.55 197.23">
  <!-- Generator: Adobe Illustrator 29.8.3, SVG Export Plug-In . SVG Version: 2.1.1 Build 3)  -->
  <path d="M47.05,16.01L61.66,1.31c.37-.37.85-.65,1.46-.87.61-.21,1.19-.32,1.74-.32.67,0,1.29.11,1.87.32s1.05.5,1.42.87l6.03,6.03c1.16,1.16,1.74,2.44,1.74,3.84v64.11c-.06,1.58.61,3.05,2.01,4.38l1.1,1.19c.97,1.28,1.46,2.53,1.46,3.75,0,1.4-.49,2.65-1.46,3.74l-2.37,2.47c-1.1.85-2.28,1.28-3.56,1.28-1.4,0-2.65-.43-3.75-1.28l-5.02-5.3c-1.4-1.4-2.1-3.1-2.1-5.11V17.12c.06-1.58-.61-3.04-2.01-4.38l-1.55-1.55c-.67-.61-1.46-.91-2.37-.91-.85,0-1.64.3-2.37.91l-4.84,4.75c-1.22,1.16-1.89,2.41-2.01,3.75v55.62c-.06,1.58.61,3.05,2.01,4.38l1.1,1.19c.97,1.28,1.46,2.53,1.46,3.75,0,1.4-.49,2.65-1.46,3.74l-2.37,2.47c-1.1.85-2.28,1.28-3.56,1.28-1.4,0-2.65-.43-3.74-1.28l-5.02-5.3c-1.4-1.4-2.1-3.1-2.1-5.11V17.14c.06-1.58-.61-3.04-2.01-4.38l-1.55-1.55c-.67-.61-1.46-.91-2.37-.91-.85,0-1.64.3-2.37.91l-4.84,4.75c-1.4,1.34-2.07,2.8-2.01,4.38v54.98c-.06,1.58.61,3.05,2.01,4.38l1.1,1.19c.97,1.28,1.46,2.53,1.46,3.75,0,1.4-.49,2.65-1.46,3.74l-2.37,2.47c-1.1.85-2.28,1.28-3.56,1.28-1.4,0-2.65-.43-3.74-1.28l-5.02-5.3c-1.4-1.4-2.1-3.1-2.1-5.11V17.06c.06-1.58-.61-3.04-2.01-4.38l-1.1-1.19c-.97-1.28-1.46-2.53-1.46-3.74,0-1.4.49-2.65,1.46-3.75L3.83,1.53c1.1-.85,2.28-1.28,3.56-1.28,1.4,0,2.65.43,3.74,1.28l5.02,5.3c1.4,1.4,2.1,2.92,2.1,4.57v4.66L32.86,1.36c.37-.37.85-.65,1.46-.87.61-.21,1.19-.32,1.74-.32.67,0,1.29.11,1.87.32s1.05.5,1.42.87l6.03,6.03c1.16,1.16,1.74,2.44,1.74,3.84v4.84l-.07-.06Z"/>
  <path d="M112.53,1.3c.37-.37.85-.65,1.46-.87.61-.21,1.19-.32,1.74-.32.67,0,1.29.11,1.87.32s1.05.5,1.42.87l10.5,10.59c1.16,1.16,1.74,2.44,1.74,3.84v59.64c-.06,1.58.61,3.04,2.01,4.38l1.1,1.19c.97,1.28,1.46,2.53,1.46,3.74,0,1.4-.49,2.65-1.46,3.75l-2.37,2.47c-1.1.85-2.28,1.28-3.56,1.28-1.4,0-2.65-.43-3.74-1.28l-5.02-5.3c-1.4-1.4-2.1-2.92-2.1-4.57v-46.49l-15.16,15.07v28.59c0,1.64-.7,3.17-2.1,4.57l-12.42,12.51c-.12.12-.3.18-.55.18-.37,0-.55-.18-.55-.55,0-.3.06-.52.18-.64l.46-.46c.91-1.1,1.34-2.25,1.28-3.47V16.82c.06-1.58-.61-3.04-2.01-4.38l-1.1-1.19c-.97-1.28-1.46-2.53-1.46-3.74,0-1.4.49-2.65,1.46-3.75l2.37-2.47c1.1-.85,2.28-1.28,3.56-1.28,1.4,0,2.65.43,3.74,1.28l5.02,5.3c1.4,1.4,2.1,3.14,2.1,5.21l10.14-10.5h-.01ZM102.39,47.61l14.43-14.43c.43-.55.67-1.13.73-1.74v-12.33c0-.55-.14-1.08-.41-1.6s-.59-.96-.96-1.32l-5.94-5.94c-.73-.61-1.49-.91-2.28-.91-.85,0-1.64.31-2.37.91l-2.47,2.47c-.31.31-.5.66-.59,1.05-.09.4-.14.81-.14,1.23v32.6h0Z"/>
  <path d="M186.69,78.93c-.06,1.58.61,3.05,2.01,4.38l1.1,1.19c.97,1.28,1.46,2.53,1.46,3.75,0,1.4-.49,2.65-1.46,3.74l-2.01,2.1c-1.1.85-2.28,1.28-3.56,1.28-1.4,0-2.65-.43-3.75-1.28l-5.39-5.66c-1.4-1.4-2.1-2.92-2.1-4.57v-32.7c0-.55-.14-1.08-.41-1.6s-.59-.96-.96-1.32l-5.94-5.94c-.73-.61-1.49-.91-2.28-.91-.85,0-1.61.27-2.28.82l-2.83,2.83c-.18.24-.31.52-.37.82-.06.37-.09.76-.09,1.19v30.96c0,1.64-.7,3.17-2.1,4.57l-12.42,12.6c-.12.12-.3.18-.55.18-.37,0-.55-.18-.55-.55,0-.31.06-.52.18-.64l.46-.46c.91-1.1,1.34-2.25,1.28-3.47V16.81c.06-1.58-.61-3.04-2.01-4.38l-1.1-1.19c-.97-1.28-1.46-2.53-1.46-3.74,0-1.4.49-2.65,1.46-3.75l2.37-2.47c1.1-.85,2.28-1.28,3.56-1.28,1.4,0,2.65.43,3.74,1.28l5.02,5.3c1.4,1.4,2.1,3.1,2.1,5.11v.64l11.05-11.05c.37-.37.85-.65,1.46-.87.61-.21,1.19-.32,1.73-.32.67,0,1.29.11,1.87.32s1.05.5,1.42.87l8.68,8.86c1.16,1.16,1.73,2.44,1.73,3.84v1.37c0,1.46-.55,2.74-1.64,3.84l-12.06,12.06c.67,0,1.29.11,1.87.32s1.05.5,1.42.87l9.59,9.77c1.16,1.16,1.74,2.44,1.74,3.84v32.88h.02ZM157.83,43.68l13.52-13.79c.3-.3.5-.65.59-1.05s.14-.81.14-1.23v-8.49c0-.55-.14-1.08-.41-1.6s-.59-.96-.96-1.32l-5.02-5.02c-.73-.61-1.49-.91-2.28-.91-.85,0-1.64.3-2.37.91l-2.47,2.47c-.31.31-.52.67-.64,1.1-.06.24-.09.52-.09.82v28.13-.02Z"/>
  <path d="M227.01,44.69v30.69c-.06,1.58.61,3.04,2.01,4.38l1.1,1.19c.97,1.28,1.46,2.53,1.46,3.74,0,1.4-.49,2.65-1.46,3.75l-2.37,2.47c-1.1.85-2.28,1.28-3.56,1.28-1.4,0-2.65-.43-3.75-1.28l-5.02-5.3c-1.4-1.4-2.1-3.11-2.1-5.11v-26.21l-13.06-13.15c-.91-.91-1.37-1.92-1.37-3.01v-21.19c.06-1.58-.61-3.04-2.01-4.38l-1.1-1.19c-.97-1.28-1.46-2.53-1.46-3.75,0-1.4.49-2.65,1.46-3.74l2.37-2.47c1.1-.85,2.28-1.28,3.56-1.28,1.4,0,2.65.43,3.74,1.28l5.02,5.3c1.4,1.4,2.1,3.1,2.1,5.11v20.73c0,1.1.46,2.1,1.37,3.01,4.81,4.87,7.24,7.31,7.31,7.31.67.61,1.46.91,2.37.91.85,0,1.64-.3,2.37-.91l1.01-1.01c.49-.79.73-1.55.73-2.28v-22.65c.06-1.58-.61-3.04-2.01-4.38l-1.1-1.19c-.97-1.28-1.46-2.53-1.46-3.75,0-1.4.49-2.65,1.46-3.74l2.37-2.47c1.1-.85,2.28-1.28,3.56-1.28,1.4,0,2.65.43,3.74,1.28l5.02,5.3c1.4,1.4,2.1,3.1,2.1,5.11v15.89c0,1.16-.43,2.16-1.28,3.01l-13.15,13.97h.03Z"/>
  <path d="M17.64,143.26c.85,1.1,1.7,1.37,2.56.82l12.69-12.79c.37-.37.85-.65,1.46-.87.61-.21,1.19-.32,1.74-.32.67,0,1.29.11,1.87.32s1.05.5,1.42.87l4.2,4.2c.91.91,1.37,1.92,1.37,3.01v20c0,1.46-.55,2.74-1.64,3.84l-30.78,30.78c-.3.3-.7.53-1.19.69-.49.15-.95.23-1.37.23-.49,0-.96-.08-1.42-.23-.46-.15-.84-.38-1.14-.69l-3.47-3.38c-1.03-1.16-1.55-2.37-1.55-3.65s.43-2.62,1.28-3.84l2.37-2.37c1.16-.85,2.37-1.28,3.65-1.28,1.46,0,2.74.43,3.84,1.28l2.74,2.74c.67.61,1.46.91,2.37.91.85,0,1.64-.3,2.37-.91l9.5-9.5c.49-.79.73-1.55.73-2.28v-28.04c-.12-.97-.58-1.86-1.37-2.65-1.1-1.1-1.98-1.46-2.65-1.1l-12.88,12.79c-.37.37-.85.65-1.46.87-.61.21-1.19.32-1.74.32-.67,0-1.29-.11-1.87-.32s-1.05-.5-1.42-.87l-3.74-3.75c-1.16-1.16-1.74-2.43-1.74-3.84v-7.4c0-1.46.55-2.74,1.64-3.84l30.05-30.05c.37-.37.85-.65,1.46-.87.61-.21,1.19-.32,1.74-.32.67,0,1.29.11,1.87.32s1.05.5,1.42.87l2.83,2.74c1.03,1.16,1.55,2.37,1.55,3.65s-.43,2.62-1.28,3.84l-2.37,2.37c-1.16.85-2.37,1.28-3.65,1.28-1.46,0-2.74-.43-3.84-1.28l-2.83-2.74c-.67-.61-1.46-.91-2.37-.91-.85,0-1.64.31-2.37.91l-9.41,9.5c-.3.3-.52.67-.64,1.1-.06.24-.09.52-.09.82v15.98c.18.91.7,1.92,1.55,3.01v.03Z"/>
  <path d="M54.72,130.02c0-1.46.55-2.74,1.64-3.84l23.11-23.11c.37-.37.85-.65,1.46-.87.61-.21,1.19-.32,1.73-.32.67,0,1.29.11,1.87.32s1.05.5,1.42.87l9.59,9.77c1.16,1.16,1.74,2.44,1.74,3.84v49.78c0,1.46-.55,2.74-1.64,3.84l-23.02,23.02c-.37.37-.85.65-1.46.87-.61.21-1.19.32-1.74.32-.67,0-1.29-.11-1.87-.32-.58-.21-1.05-.5-1.42-.87l-9.68-9.59c-1.16-1.16-1.74-2.43-1.74-3.84v-49.87h.01ZM67.5,117.69v56.99c0,.55.14,1.08.41,1.6.27.52.59.96.96,1.32l5.94,5.94c.73.61,1.49.91,2.28.91.85,0,1.64-.3,2.37-.91l2.47-2.47c.3-.3.5-.65.59-1.05.09-.39.14-.81.14-1.23v-56.99c0-.55-.14-1.08-.41-1.6s-.59-.96-.96-1.32l-5.94-5.94c-.73-.61-1.49-.91-2.28-.91-.85,0-1.64.3-2.37.91l-2.47,2.47c-.31.31-.5.66-.59,1.05-.09.4-.14.81-.14,1.23h0Z"/>
  <path d="M152.03,180.7c-.06,1.58.61,3.05,2.01,4.38l1.1,1.19c.97,1.28,1.46,2.53,1.46,3.75,0,1.4-.49,2.65-1.46,3.74l-2.01,2.1c-1.1.85-2.28,1.28-3.56,1.28-1.4,0-2.65-.43-3.75-1.28l-5.39-5.66c-1.4-1.4-2.1-2.92-2.1-4.57v-32.7c0-.55-.14-1.08-.41-1.6s-.59-.96-.96-1.32l-5.94-5.94c-.73-.61-1.49-.91-2.28-.91-.85,0-1.61.27-2.28.82l-2.83,2.83c-.18.24-.31.52-.37.82-.06.37-.09.76-.09,1.19v30.96c0,1.64-.7,3.17-2.1,4.57l-12.42,12.6c-.12.12-.3.18-.55.18-.37,0-.55-.18-.55-.55,0-.31.06-.52.18-.64l.46-.46c.91-1.1,1.34-2.25,1.28-3.47v-73.43c.06-1.58-.61-3.04-2.01-4.38l-1.1-1.19c-.97-1.28-1.46-2.53-1.46-3.74,0-1.4.49-2.65,1.46-3.75l2.37-2.47c1.1-.85,2.28-1.28,3.56-1.28,1.4,0,2.65.43,3.74,1.28l5.02,5.3c1.4,1.4,2.1,3.1,2.1,5.11v.64l11.05-11.05c.37-.37.85-.65,1.46-.87.61-.21,1.19-.32,1.73-.32.67,0,1.29.11,1.87.32s1.05.5,1.42.87l8.68,8.86c1.16,1.16,1.73,2.44,1.73,3.84v1.37c0,1.46-.55,2.74-1.64,3.84l-12.06,12.06c.67,0,1.29.11,1.87.32s1.05.5,1.42.87l9.59,9.77c1.16,1.16,1.74,2.44,1.74,3.84v32.88h.02ZM123.17,145.45l13.52-13.79c.3-.3.5-.65.59-1.05.09-.4.14-.81.14-1.23v-8.49c0-.55-.14-1.08-.41-1.6s-.59-.96-.96-1.32l-5.02-5.02c-.73-.61-1.49-.91-2.28-.91-.85,0-1.64.3-2.37.91l-2.47,2.47c-.31.31-.52.67-.64,1.1-.06.24-.09.52-.09.82v28.13-.02Z"/>
  <path d="M164.22,130.02c0-1.46.55-2.74,1.64-3.84l23.11-23.11c.37-.37.85-.65,1.46-.87.61-.21,1.19-.32,1.73-.32.67,0,1.29.11,1.87.32s1.05.5,1.42.87l9.59,9.77c1.16,1.16,1.74,2.44,1.74,3.84v49.78c0,1.46-.55,2.74-1.64,3.84l-23.02,23.02c-.37.37-.85.65-1.46.87-.61.21-1.19.32-1.74.32-.67,0-1.29-.11-1.87-.32-.58-.21-1.05-.5-1.42-.87l-9.68-9.59c-1.16-1.16-1.74-2.43-1.74-3.84v-49.87h0ZM177.01,117.69v56.99c0,.55.14,1.08.41,1.6.27.52.59.96.96,1.32l5.94,5.94c.73.61,1.49.91,2.28.91.85,0,1.64-.3,2.37-.91l2.47-2.47c.3-.3.5-.65.59-1.05.09-.39.14-.81.14-1.23v-56.99c0-.55-.14-1.08-.41-1.6s-.59-.96-.96-1.32l-5.94-5.94c-.73-.61-1.49-.91-2.28-.91-.85,0-1.64.3-2.37.91l-2.47,2.47c-.31.31-.5.66-.59,1.05-.09.4-.14.81-.14,1.23h0Z"/>
  <path d="M232.68,179.79c0,1.64-.7,3.17-2.1,4.57l-12.42,12.6c-.12.12-.3.18-.55.18-.37,0-.55-.18-.55-.55,0-.31.06-.52.18-.64l.46-.46c.91-1.1,1.34-2.25,1.28-3.47v-73.43c.06-1.58-.61-3.04-2.01-4.38l-1.1-1.19c-.97-1.28-1.46-2.53-1.46-3.74,0-1.4.49-2.65,1.46-3.75l2.37-2.47c1.1-.85,2.28-1.28,3.56-1.28,1.4,0,2.65.43,3.74,1.28l5.02,5.3c1.4,1.4,2.1,3.1,2.1,5.11v32.33l13.61-13.79c.3-.3.5-.65.59-1.05.09-.39.14-.81.14-1.23v-11.14c.06-1.58-.61-3.04-2.01-4.38l-1.1-1.19c-.97-1.28-1.46-2.53-1.46-3.74,0-1.4.49-2.65,1.46-3.75l2.37-2.47c1.1-.85,2.28-1.28,3.56-1.28,1.4,0,2.65.43,3.74,1.28l5.3,5.57c1.4,1.4,2.1,3.1,2.1,5.11v3.93c0,1.16-.43,2.16-1.28,3.01l-12.79,12.79c.67,0,1.29.11,1.87.32s1.05.5,1.42.87l9.59,9.59c1.16,1.16,1.74,2.44,1.74,3.84v29.04c-.06,1.58.61,3.04,2.01,4.38l1.1,1.19c.97,1.28,1.46,2.53,1.46,3.74,0,1.4-.49,2.65-1.46,3.75l-2.37,2.47c-1.1.85-2.28,1.28-3.56,1.28-1.4,0-2.65-.43-3.74-1.28l-5.02-5.3c-1.4-1.4-2.1-2.92-2.1-4.57v-29.5c0-.55-.14-1.08-.41-1.6s-.59-.96-.96-1.32l-5.85-5.85c-.73-.61-1.49-.91-2.28-.91-.85,0-1.64.31-2.37.91l-1.92,1.92c-.37.37-.7.82-1.01,1.37-.18.43-.3.85-.37,1.28v30.69h.02Z"/>
  <path d="M298.25,103.07c.37-.37.85-.65,1.46-.87.61-.21,1.19-.32,1.74-.32.67,0,1.29.11,1.87.32s1.05.5,1.42.87l10.5,10.59c1.16,1.16,1.74,2.44,1.74,3.84v59.64c-.06,1.58.61,3.04,2.01,4.38l1.1,1.19c.97,1.28,1.46,2.53,1.46,3.74,0,1.4-.49,2.65-1.46,3.75l-2.37,2.47c-1.1.85-2.28,1.28-3.56,1.28-1.4,0-2.65-.43-3.74-1.28l-5.02-5.3c-1.4-1.4-2.1-2.92-2.1-4.57v-46.49l-15.16,15.07v28.59c0,1.64-.7,3.17-2.1,4.57l-12.42,12.51c-.12.12-.3.18-.55.18-.37,0-.55-.18-.55-.55,0-.3.06-.52.18-.64l.46-.46c.91-1.1,1.34-2.25,1.28-3.47v-73.52c.06-1.58-.61-3.04-2.01-4.38l-1.1-1.19c-.97-1.28-1.46-2.53-1.46-3.74,0-1.4.49-2.65,1.46-3.75l2.37-2.47c1.1-.85,2.28-1.28,3.56-1.28,1.4,0,2.65.43,3.74,1.28l5.02,5.3c1.4,1.4,2.1,3.14,2.1,5.21l10.14-10.5h0ZM288.11,149.38l14.43-14.43c.43-.55.67-1.13.73-1.74v-12.33c0-.55-.14-1.08-.41-1.6s-.59-.96-.96-1.32l-5.94-5.94c-.73-.61-1.49-.91-2.28-.91-.85,0-1.64.31-2.37.91l-2.47,2.47c-.31.31-.5.66-.59,1.05-.09.4-.14.81-.14,1.23v32.6h0Z"/>
</svg>