<?xml version="1.0" encoding="utf-8"?>
<!-- Generator: Adobe Illustrator 24.3.0, SVG Export Plug-In . SVG Version: 6.00 Build 0)  -->
<svg version="1.1" id="Layer_1" xmlns="http://www.w3.org/2000/svg" xmlns:xlink="http://www.w3.org/1999/xlink" x="0px" y="0px"
	 viewBox="0 0 1584 300.7" style="enable-background:new 0 0 1584 300.7;" xml:space="preserve">
<style type="text/css">
	.st0{fill:#FCDFCD;}
</style>
<g>
	<polygon class="st0" points="122.4,110.9 73.9,37.4 20.5,37.4 20.5,217.3 66.8,217.3 66.8,108.9 119.3,184.7 171.8,108.7 
		171.8,217.3 218.1,217.3 218.1,37.4 171,37.4 	"/>
	<path class="st0" d="M329.4,94.1c-8.1-10.4-19.6-15.4-34.2-15.4c-18.2,0-33.4,6.7-45.5,20.2s-18.2,30.6-18.2,51.1
		c0,21.1,6.2,38.2,18.5,51.4s27.2,19.9,44.9,19.9c14,0,25.5-5.6,34.2-16.8l0.3,12.9h45.2V82.8h-45.2V94.1z M321.5,170.7
		c-5.1,5.6-11.2,8.4-18.8,8.4v-0.3c-7.6,0-13.8-2.8-18.8-8.4c-5.1-5.6-7.6-12.4-7.6-20.5s2.5-15.2,7.6-20.8
		c5.1-5.6,11.2-8.4,18.8-8.4s13.8,2.8,18.8,8.4c5.1,5.6,7.6,12.6,7.6,20.8C329.1,158,326.6,165.1,321.5,170.7z"/>
	<path class="st0" d="M437.1,103.9V83.1h-45.2v134.4h45.2l0.3-73c0-6.7,1.7-12.1,4.8-16c3.1-3.9,7.3-5.9,12.6-5.9
		c7.3,0,13.5,2.2,18.2,6.5l18.5-42.7c-5.6-5.1-13.2-7.6-22.5-7.6C455,78.9,444.4,87.3,437.1,103.9z"/>
	<path class="st0" d="M582.4,160.6l-31.2-77.7h-50l62,136.7c-4.2,9.8-10.4,14.6-18.5,14.6s-15.4-3.1-21.9-9.3L503,260.2
		c11.5,10.9,25.5,16.3,42.1,16.3c27.2,0,46.3-16,57.3-47.7l51.4-145.9h-45.5L582.4,160.6z"/>
	<path class="st0" d="M792.9,77.8c16.6,0,29.8,7,39.6,20.8L863.6,66c-7-10.1-16.6-18-28.3-23.9c-11.8-5.9-25.3-8.7-40.4-8.7
		c-19.9,0-36.5,5.3-49.4,15.7s-19.4,23.6-19.4,39.6c0,8.7,1.7,16.3,5.1,23c3.4,6.7,7.6,12.1,12.6,16c5.1,3.9,10.7,7.3,16.8,10.1
		c6.2,2.8,12.4,5.3,18.5,7.3c6.2,2,11.8,3.9,16.8,5.6c5.1,1.7,9.3,3.9,12.6,6.5c3.4,2.5,5.1,5.3,5.1,8.4c0,8.7-7,12.9-21.3,12.9
		c-17.1,0-30.9-7-41-21.1l-32.8,30.9c14.3,22.5,38.7,33.7,73.3,33.7c21,0,38.2-5.6,51.6-16.6c13.5-10.9,20.2-25,20.2-41.8
		c0-11.5-3.1-21.3-9-29.5c-5.9-8.1-13.2-14-21.9-17.7c-8.7-3.6-17.4-6.7-26.1-9.3c-8.7-2.5-16-5.3-21.9-8.1c-5.9-2.8-9-6.2-9-10.4
		C775.8,81.4,781.4,77.8,792.9,77.8z"/>
	<path class="st0" d="M945.4,78.1c-19.6,0-36.5,7-50.5,21.1c-14,14-21,30.9-21,50.8c0,19.6,7,36.5,21,50.5s30.9,21.1,50.5,21.1
		s36.5-7,50.5-21.1c14-14,21.1-30.9,21.1-50.5c0-19.9-7-36.8-21.1-50.8C981.9,85.1,965,78.1,945.4,78.1z M964.2,171
		c-5.1,5.6-11.2,8.4-18.8,8.4v-0.3c-7.6,0-13.8-2.8-18.8-8.4c-5.1-5.6-7.6-12.4-7.6-20.5s2.5-15.2,7.6-20.8
		c5.1-5.6,11.2-8.4,18.8-8.4s13.8,2.8,18.8,8.4c5.1,5.6,7.6,12.6,7.6,20.8C971.8,158.3,969.2,165.3,964.2,171z"/>
	<path class="st0" d="M1108,78.9c-14,0-24.7,8.4-32,25V83.1h-45.2v134.4h45.2l0.3-73c0-6.7,1.7-12.1,4.8-16
		c3.1-3.9,7.3-5.9,12.6-5.9c7.3,0,13.5,2.2,18.2,6.5l18.5-42.7C1124.8,81.4,1117.3,78.9,1108,78.9z"/>
	<path class="st0" d="M1198.4,78.1c-19.6,0-36.5,7-50.5,21.1c-14,14-21,30.9-21,50.8c0,19.6,7,36.5,21,50.5s30.9,21.1,50.5,21.1
		s36.5-7,50.5-21.1c14-14,21.1-30.9,21.1-50.5c0-19.9-7-36.8-21.1-50.8C1234.9,85.1,1218.1,78.1,1198.4,78.1z M1217.2,171
		c-5.1,5.6-11.2,8.4-18.8,8.4v-0.3c-7.6,0-13.8-2.8-18.8-8.4c-5.1-5.6-7.6-12.4-7.6-20.5s2.5-15.2,7.6-20.8
		c5.1-5.6,11.2-8.4,18.8-8.4s13.8,2.8,18.8,8.4c5.1,5.6,7.6,12.6,7.6,20.8C1224.8,158.3,1222.3,165.3,1217.2,171z"/>
	<polygon class="st0" points="1423.6,82.8 1368.4,82.8 1340,126.9 1329.3,126.9 1329.3,24.2 1284.2,24.2 1284.2,217.3 1329.3,217.3 
		1329.3,167.6 1340.6,167.6 1372,217.3 1428.4,217.3 1380.7,144.9 	"/>
	<path class="st0" d="M1518.3,82.8V94c-8.1-10.4-19.6-15.4-34.2-15.4c-18.2,0-33.4,6.7-45.5,20.2s-18.2,30.6-18.2,51.1
		c0,21.1,6.2,38.2,18.5,51.4c12.4,13.2,27.2,19.9,44.9,19.9c14,0,25.5-5.6,34.2-16.8l0.3,12.9h45.2V82.8H1518.3z M1510.4,170.7
		c-5.1,5.6-11.2,8.4-18.8,8.4v-0.3c-7.6,0-13.8-2.8-18.8-8.4c-5.1-5.6-7.6-12.4-7.6-20.5s2.5-15.2,7.6-20.8
		c5.1-5.6,11.2-8.4,18.8-8.4s13.8,2.8,18.8,8.4c5.1,5.6,7.6,12.6,7.6,20.8C1518,158,1515.5,165.1,1510.4,170.7z"/>
</g>
</svg>
