<?xml version="1.0" encoding="utf-8"?>
<!-- Generator: Adobe Illustrator 27.9.0, SVG Export Plug-In . SVG Version: 6.00 Build 0)  -->
<svg version="1.1" id="Layer_1" xmlns="http://www.w3.org/2000/svg" xmlns:xlink="http://www.w3.org/1999/xlink" x="0px" y="0px"
	 viewBox="0 0 750 566.3" style="enable-background:new 0 0 750 566.3;" xml:space="preserve">
<style type="text/css">
	.st0{fill:none;}
</style>
<g>
	<path d="M320,119.4v130.2c0,0.5,0.2,0.8,0.6,1.1l6.8,3.9c0.5,0.3,0.6,0.6,0.6,1.1c0,0.5-0.2,0.8-0.6,1.1l-16.3,9.6
		c-0.5,0.2-0.8,0.2-1.1,0l-16.3-9.5c-0.5-0.3-0.6-0.6-0.6-1.1c0-0.5,0.2-0.8,0.6-1.1l6.8-3.9c0.5-0.3,0.6-0.6,0.6-1.1V130.5l-17-9.7
		c-0.3-0.2-0.6-0.1-1.1,0.1s-0.6,0.6-0.6,1v127.9c0,0.5,0.2,0.8,0.6,1.1l6.8,3.9c0.5,0.3,0.6,0.6,0.6,1.1s-0.2,0.8-0.6,1.1
		l-16.3,9.5c-0.3,0.2-0.6,0.2-1.1,0l-16.4-9.6c-0.5-0.3-0.6-0.6-0.6-1.1c0-0.5,0.2-0.8,0.6-1.1l6.8-3.9c0.5-0.3,0.6-0.6,0.6-1.1
		V130.5l-17-9.7c-0.3-0.3-0.6-0.3-1.1,0s-0.6,0.6-0.6,1.1v146.9c0,0.5,0.2,0.8,0.6,1.1l6.8,3.9c0.5,0.3,0.6,0.6,0.6,1.1
		s-0.2,0.8-0.6,1.1l-16.3,9.6c-0.5,0.2-0.8,0.2-1.1,0l-16.3-9.6c-0.5-0.3-0.6-0.6-0.6-1.1s0.2-0.8,0.6-1.1l6.8-3.9
		c0.5-0.3,0.6-0.6,0.6-1.1V131.1c0-0.5-0.2-0.7-0.6-0.9l-16.4-9.6c-0.5-0.3-0.6-0.6-0.6-1.1s0.2-0.8,0.6-1.1l16.3-9.3
		c0.5-0.3,0.9-0.3,1.4,0l17.5,10.2c0.5,0.2,0.9,0.2,1.4,0l6.3-3.7l11.1-6.6c0.5-0.3,0.9-0.3,1.4,0l14.8,8.4l0.5,0.5l2.9,1.6
		l18.2-10.5c0.5-0.3,0.9-0.3,1.4,0L320,119.4z"/>
	<path d="M404.5,274.7c0.5,0.3,0.6,0.6,0.6,1.1s-0.2,0.8-0.6,1.1l-16.3,9.4c-0.5,0.3-0.9,0.3-1.4,0l-18.2-10.5l-18.1,10.5
		c-0.5,0.3-0.9,0.3-1.4,0L331.7,276c-0.5-0.2-0.6-0.5-0.6-0.9v-144c0-0.5,0.2-0.7,0.6-0.9l18.2-10.7l18.1-10.4
		c0.5-0.3,0.9-0.3,1.4,0l17.5,10.2c0.5,0.2,0.6,0.5,0.6,0.9v144c0,0.5,0.2,0.8,0.6,1.1L404.5,274.7z M368.7,273.5V131
		c0-0.5-0.2-0.7-0.6-0.9l-16.3-9.6c-0.3-0.3-0.6-0.3-1.1,0s-0.6,0.6-0.6,1.1v142.5c0,0.5,0.2,0.7,0.6,0.9l16.3,9.6
		c0.3,0.3,0.6,0.3,1.1,0C368.4,274.4,368.7,273.9,368.7,273.5z"/>
	<path d="M538.7,124.7c-0.5,0.2-0.6,0.5-0.6,0.9v62.1v92.5c0,0.5-0.2,0.8-0.6,1.1l-18.2,10.5L501,302.3c-0.5,0.2-0.9,0.2-1.4,0
		l-16.3-9.6c-0.5-0.2-0.6-0.5-0.6-1s0.2-0.9,0.6-1l16.3-9.6c0.5-0.3,0.9-0.3,1.4,0l16.3,9.6c0.3,0.2,0.6,0.1,1.1-0.1s0.6-0.6,0.6-1
		v-31.8c0-0.5-0.2-0.8-0.6-1c-0.5-0.2-0.8-0.2-1.1,0.1l-5.2,2.8l-11.1,6.6c-0.5,0.3-0.9,0.3-1.4,0L482,256.1
		c-0.5-0.2-0.6-0.5-0.6-0.9V125.7c0-0.5-0.2-0.7-0.6-0.9l-6.8-4.1c-0.5-0.3-0.6-0.6-0.6-1.1s0.2-0.8,0.6-1.1l16.3-9.3
		c0.3-0.3,0.6-0.3,1.1,0l16.3,9.3c0.5,0.3,0.6,0.6,0.6,1.1s-0.2,0.8-0.6,1.1l-6.8,4.1c-0.5,0.2-0.6,0.5-0.6,0.9v118.5
		c0,0.5,0.2,0.7,0.6,0.9l16.3,9.6c0.3,0.3,0.6,0.3,1.1,0s0.6-0.6,0.6-1.1v-65.9v-62.1c0-0.5-0.2-0.7-0.6-0.9l-6.8-4.1
		c-0.5-0.3-0.6-0.6-0.6-1.1s0.2-0.8,0.6-1.1l16.3-9.3c0.5-0.3,0.8-0.3,1.1,0l16.3,9.3c0.5,0.3,0.6,0.6,0.6,1.1s-0.2,0.8-0.6,1.1
		L538.7,124.7z"/>
	<g>
		<path d="M174.7,446.6C174.7,446.6,174.7,446.6,174.7,446.6L174.7,446.6C174.7,446.6,174.7,446.6,174.7,446.6z"/>
		<path d="M229.2,362.5l-17.5-10c-0.5-0.3-0.8-0.3-1.1,0L192.2,363l18.4,10.5c0.3,0.3,0.5,0.6,0.5,1.1v69.8c0,0.7-0.2,1.1-0.6,1.3
			c-0.4,0.3-0.8,0.2-1.4-0.2l-15.7-9.2v20.4l10.8-6.3l15.4-8.8l9.6-5.7c0.4-0.2,0.6-0.4,0.6-0.9v-71.4
			C229.9,363.1,229.8,362.8,229.2,362.5z"/>
		<path d="M192.9,435.9c-0.5-0.2-0.9-0.2-1.4,0l-16.3,9.6c-0.3,0.3-0.5,0.6-0.5,1.1v0c0,0.5,0.2,0.8,0.5,1.1l16.3,9.3
			c0.5,0.3,0.9,0.3,1.4,0l0.6-0.3v-20.4L192.9,435.9z"/>
		<path d="M192.9,291.4c0.5-0.3,0.8-0.3,1.1,0l16.3,9.6c0.5,0.2,0.9,0.2,1.4,0l16.2-9.5c0.4-0.3,0.6-0.6,0.6-1.1s-0.1-0.8-0.6-1.1
			l-16.3-9.3c-0.5-0.3-0.9-0.3-1.4,0l-9.7,5.7l-15.4,8.8l-11.1,6.6c-0.4,0.2-0.6,0.4-0.6,0.9v72l18.9-10.9V363v-70.3
			C192.2,292.3,192.5,291.9,192.9,291.4z"/>
	</g>
	<path d="M259,300.4l18.1-10.4c0.5-0.3,0.9-0.3,1.4,0l17.5,10.2c0.5,0.2,0.6,0.5,0.6,0.9v134.1c0,0.5-0.2,0.7-0.6,0.9l-18.2,10.7
		l-18.2,10.5c-0.5,0.3-0.9,0.3-1.4,0L240.9,447c-0.5-0.2-0.6-0.5-0.6-0.9v-134c0-0.5,0.2-0.7,0.6-0.9L259,300.4z M277.2,445.7
		c0.5-0.2,0.6-0.6,0.6-1.3V312c0-0.5-0.2-0.7-0.6-0.9l-16.3-9.6c-0.3-0.3-0.6-0.3-1.1,0c-0.5,0.3-0.6,0.6-0.6,1.1v132.5
		c0,0.5,0.2,0.8,0.6,1.1l16.3,9.3C276.4,445.9,276.8,446,277.2,445.7z"/>
	<path d="M330.9,305.7c-0.3,0.2-0.5,0.4-0.5,0.6v134.9l8.2,4.8c0.3,0.2,0.5,0.4,0.5,0.6c0,0.3-0.2,0.6-0.5,0.6l-17.3,10
		c-0.3,0.2-0.6,0.2-0.6,0l-17.3-10c-0.3-0.2-0.5-0.4-0.5-0.6c0-0.3,0.2-0.6,0.5-0.6l7.7-4.5c0.3-0.2,0.5-0.4,0.5-0.6V306.4
		c0-0.2-0.2-0.4-0.5-0.6l-7.7-4.5c-0.3-0.2-0.5-0.4-0.5-0.6c0-0.2,0.2-0.5,0.5-0.6l8.2-4.8l9.1-5.2c0.2-0.2,0.4-0.2,0.6,0l9.1,5.2
		l4.3,2.3c0.2,0.2,0.4,0.2,0.6,0l13.4-7.5c0.2-0.2,0.4-0.2,0.6,0l17.3,10c0.3,0.2,0.5,0.4,0.5,0.6c0,0.2-0.2,0.5-0.5,0.6l-17.3,10
		c-0.3,0.2-0.6,0.2-0.6,0l-13.4-7.7c-0.3,0-0.6,0-0.6,0L330.9,305.7z"/>
	<path d="M381.5,300.4l18.2-10.4c0.5-0.3,0.9-0.3,1.4,0l17.5,10.2c0.5,0.2,0.6,0.5,0.6,0.9v134.1c0,0.5-0.2,0.7-0.6,0.9l-18.2,10.7
		l-18.2,10.5c-0.5,0.3-0.9,0.3-1.4,0L363.2,447c-0.5-0.2-0.6-0.5-0.6-0.9v-134c0-0.5,0.2-0.7,0.6-0.9L381.5,300.4z M399.7,445.7
		c0.5-0.2,0.6-0.6,0.6-1.3V312c0-0.5-0.2-0.7-0.6-0.9l-16.3-9.6c-0.3-0.3-0.6-0.3-1.1,0c-0.5,0.3-0.6,0.6-0.6,1.1v132.5
		c0,0.5,0.2,0.8,0.6,1.1l16.3,9.3C398.8,445.9,399.2,446,399.7,445.7z"/>
	<path d="M481.8,335.7l17.7,10.2c0.5,0.3,0.6,0.7,0.6,1.3s-0.2,0.9-0.6,1l-11.4,6.6l-14.4,8.3c-0.5,0.3-0.6,0.7-0.6,1.3
		s0.2,0.9,0.6,1l17.3,10c0.5,0.3,0.6,0.6,0.6,1.1v63.2c0,0.5,0.2,0.8,0.6,1.1l7.3,4.1c0.5,0.3,0.6,0.7,0.6,1.3s-0.2,0.9-0.6,1
		l-17.3,10c-0.5,0.3-0.9,0.3-1.4,0l-17.3-10c-0.5-0.2-0.6-0.5-0.6-1s0.2-0.9,0.6-1.3l7.5-4.1c0.5-0.3,0.6-0.6,0.6-1.1v-51.6
		c0-0.5-0.2-0.8-0.6-1.1l-19.2-11v63.8c0,0.5,0.2,0.8,0.6,1.1l7.3,4.1c0.5,0.3,0.6,0.7,0.6,1.3s-0.2,0.9-0.6,1l-17.3,10
		c-0.5,0.3-0.9,0.3-1.4,0l-17.3-10c-0.5-0.2-0.6-0.5-0.6-1s0.2-0.9,0.6-1.3l7.3-4.1c0.5-0.3,0.6-0.6,0.6-1.1V274.2
		c0-0.6,0.2-1,0.6-1.1l17.3-10c0.5-0.3,0.9-0.3,1.4,0c0.5,0.3,0.6,0.6,0.6,1.1v74.9c0,0.5,0.2,0.8,0.6,1c0.5,0.2,0.9,0.3,1.4,0.1
		l8.2-4.8l9.1-5.2c0.5-0.3,0.8-0.3,1.1,0L481.8,335.7z M451.8,372c0,0.5,0.2,0.8,0.6,1.1c0.4,0.3,0.8,0.3,1.1,0l24.8-14.3
		c0.5-0.2,0.6-0.5,0.6-1s-0.2-0.9-0.6-1.3l-10.9-6.2l-13.9-8c-0.3-0.3-0.6-0.3-1.1,0c-0.5,0.3-0.6,0.6-0.6,1.1L451.8,372L451.8,372z
		"/>
	<path d="M580,445.7c0.5,0.3,0.6,0.6,0.6,1.1s-0.2,0.8-0.6,1.1l-16.3,9.3c-0.5,0.3-0.9,0.3-1.4,0l-18.2-10.5l-18.2,10.5
		c-0.5,0.3-0.9,0.3-1.4,0L507,447c-0.5-0.2-0.6-0.5-0.6-0.9V312c0-0.5,0.2-0.7,0.6-0.9l18.2-10.7l18.2-10.4c0.5-0.3,0.9-0.3,1.4,0
		l17.5,10.2c0.5,0.2,0.6,0.5,0.6,0.9v134.1c0,0.5,0.2,0.8,0.6,1.1L580,445.7z M544.2,444.5V312c0-0.5-0.2-0.7-0.6-0.9l-16.3-9.6
		c-0.3-0.3-0.6-0.3-1.1,0c-0.5,0.3-0.6,0.6-0.6,1.1v132.5c0,0.5,0.2,0.7,0.6,0.9l16.3,9.6c0.3,0.3,0.6,0.3,1.1,0
		C544,445.4,544.2,444.9,544.2,444.5z"/>
	<g>
		<path class="st0" d="M447.8,134.5c0-0.5-0.2-0.9-0.6-1.3l-10.9-6.2l-13.9-8c-0.3-0.3-0.6-0.3-1.1,0c-0.5,0.3-0.6,0.6-0.6,1.1
			l0,28.6c0,0.5,0.2,0.8,0.6,1.1s0.8,0.3,1.1,0l24.8-14.3C447.7,135.3,447.8,135,447.8,134.5z"/>
		<path d="M470.4,237.6l-7.3-4.1c-0.4-0.3-0.6-0.6-0.6-1.1v-79.2c0-0.5-0.1-0.8-0.6-1.1l-17.3-10c-0.4-0.1-0.6-0.4-0.6-1
			c0-0.6,0.1-1,0.6-1.3l14.4-8.3l11.4-6.6c0.4-0.1,0.6-0.4,0.6-1c0-0.6-0.1-1-0.6-1.3l-17.7-10.2l-9.9-5.5c-0.3-0.3-0.6-0.3-1.1,0
			l-9.1,5.2l-8.2,4.8c-0.5,0.2-0.9,0.1-1.4-0.1c-0.4-0.2-0.6-0.5-0.6-1v-4.9c0-0.5-0.1-0.8-0.6-1.1s-0.9-0.3-1.4,0l-17.3,10
			c-0.4,0.1-0.6,0.5-0.6,1.1v132.6c0,0.5-0.1,0.8-0.6,1.1l-7.3,4.1c-0.4,0.4-0.6,0.8-0.6,1.3s0.1,0.8,0.6,1l17.3,10
			c0.5,0.3,0.9,0.3,1.4,0l17.3-10c0.4-0.1,0.6-0.4,0.6-1c0-0.6-0.1-1-0.6-1.3l-7.3-4.1c-0.4-0.3-0.6-0.6-0.6-1.1V152.7l19.2,11
			c0.4,0.3,0.6,0.6,0.6,1.1v67.6c0,0.5-0.1,0.8-0.6,1.1l-7.5,4.1c-0.4,0.4-0.6,0.8-0.6,1.3s0.1,0.8,0.6,1l17.3,10
			c0.5,0.3,0.9,0.3,1.4,0l17.3-10c0.4-0.1,0.6-0.4,0.6-1C471,238.3,470.9,237.9,470.4,237.6z M424.4,149.8c-0.3,0.3-0.7,0.3-1.1,0
			s-0.6-0.6-0.6-1.1l0-28.6c0-0.5,0.1-0.8,0.6-1.1c0.5-0.3,0.8-0.3,1.1,0l13.9,8l10.9,6.2c0.4,0.4,0.6,0.8,0.6,1.3s-0.1,0.8-0.6,1
			L424.4,149.8z"/>
	</g>
	<path d="M193.6,437.3v-60l-18.9,10.9v0.1v58.3"/>
	<path d="M209.6,299.6v31l18.9-10.9v-0.1v-29.3"/>
</g>
</svg>
