<?xml version="1.0" encoding="utf-8"?>
<!-- Generator: Adobe Illustrator 27.9.0, SVG Export Plug-In . SVG Version: 6.00 Build 0)  -->
<svg version="1.1" id="Layer_1" xmlns="http://www.w3.org/2000/svg" xmlns:xlink="http://www.w3.org/1999/xlink" x="0px" y="0px"
	 viewBox="0 0 182.6 97.8" style="enable-background:new 0 0 182.6 97.8;" xml:space="preserve">
<g>
	<path d="M112,10.4v70.2c0,0.5,0.2,0.8,0.6,1.1l6.8,3.9c0.5,0.3,0.6,0.6,0.6,1.1s-0.2,0.8-0.6,1.1l-16.3,9.6c-0.5,0.2-0.8,0.2-1.1,0
		l-16.3-9.5c-0.5-0.3-0.6-0.6-0.6-1.1s0.2-0.8,0.6-1.1l6.8-3.9c0.5-0.3,0.6-0.6,0.6-1.1V21.5l-17-9.7c-0.3-0.2-0.6-0.1-1.1,0.1
		s-0.6,0.6-0.6,1v67.9c0,0.5,0.2,0.8,0.6,1.1l6.8,3.9c0.5,0.3,0.6,0.6,0.6,1.1s-0.2,0.8-0.6,1.1l-16.3,9.5c-0.3,0.2-0.6,0.2-1.1,0
		L48,87.9c-0.5-0.3-0.6-0.6-0.6-1.1s0.2-0.8,0.6-1.1l6.8-3.9c0.5-0.3,0.6-0.6,0.6-1.1V21.5l-17-9.7c-0.3-0.3-0.6-0.3-1.1,0
		s-0.6,0.6-0.6,1.1v67.9c0,0.5,0.2,0.8,0.6,1.1l6.8,3.9c0.5,0.3,0.6,0.6,0.6,1.1s-0.2,0.8-0.6,1.1l-16.3,9.6c-0.5,0.2-0.8,0.2-1.1,0
		L10.4,88c-0.5-0.3-0.6-0.6-0.6-1.1s0.2-0.8,0.6-1.1l6.8-3.9c0.5-0.3,0.6-0.6,0.6-1.1V22.1c0-0.5-0.2-0.7-0.6-0.9L0.8,11.6
		c-0.5-0.3-0.6-0.6-0.6-1.1s0.2-0.8,0.6-1.1l16.3-9.3c0.5-0.3,0.9-0.3,1.4,0L36,10.3c0.5,0.2,0.9,0.2,1.4,0l6.3-3.7L54.8,0
		c0.5-0.3,0.9-0.3,1.4,0L71,8.4l0.5,0.5l2.9,1.6L92.6,0c0.5-0.3,0.9-0.3,1.4,0L112,10.4z"/>
	<path d="M145,12.7v30.4L126.1,54V22c0-0.5,0.2-0.7,0.6-0.9l11.1-6.6l15.4-8.8l9.7-5.7c0.5-0.3,0.9-0.3,1.4,0l16.3,9.3
		c0.5,0.3,0.6,0.6,0.6,1.1s-0.2,0.8-0.6,1.1L164.4,21c-0.5,0.2-0.9,0.2-1.4,0l-16.3-9.6c-0.3-0.3-0.6-0.3-1.1,0
		C145.2,11.9,145,12.3,145,12.7z M163.3,85.7c0.4-0.2,0.6-0.6,0.6-1.3V54.6c0-0.5-0.2-0.8-0.5-1.1L145,43l18.4-10.5
		c0.3-0.3,0.6-0.3,1.1,0l17.5,10c0.5,0.3,0.6,0.6,0.6,1.1V75c0,0.5-0.2,0.7-0.6,0.9l-9.6,5.7L157,90.4L145.6,97
		c-0.5,0.3-0.9,0.3-1.4,0l-16.3-9.3c-0.3-0.3-0.5-0.6-0.5-1.1s0.2-0.8,0.5-1.1l16.3-9.6c0.5-0.2,0.9-0.2,1.4,0l16.3,9.6
		C162.5,85.9,162.9,86,163.3,85.7z"/>
</g>
</svg>
