<?xml version="1.0" encoding="utf-8"?>
<!-- Generator: Adobe Illustrator 27.0.1, SVG Export Plug-In . SVG Version: 6.00 Build 0)  -->
<svg version="1.1" id="Layer_1" xmlns="http://www.w3.org/2000/svg" xmlns:xlink="http://www.w3.org/1999/xlink" x="0px" y="0px"
	 viewBox="0 0 750 205" style="enable-background:new 0 0 750 205;" xml:space="preserve">
<style type="text/css">
	.st0{fill:#FAE5D4;}
</style>
<g>
	<path class="st0" d="M112,71.4v70.2c0,0.5,0.2,0.8,0.6,1.1l6.8,3.9c0.5,0.3,0.6,0.6,0.6,1.1s-0.2,0.8-0.6,1.1l-16.3,9.6
		c-0.5,0.2-0.8,0.2-1.1,0l-16.3-9.5c-0.5-0.3-0.6-0.6-0.6-1.1s0.2-0.8,0.6-1.1l6.8-3.9c0.5-0.3,0.6-0.6,0.6-1.1V82.5l-17-9.7
		c-0.3-0.2-0.6-0.1-1.1,0.1c-0.5,0.2-0.6,0.6-0.6,1v67.9c0,0.5,0.2,0.8,0.6,1.1l6.8,3.9c0.5,0.3,0.6,0.6,0.6,1.1s-0.2,0.8-0.6,1.1
		l-16.3,9.5c-0.3,0.2-0.6,0.2-1.1,0L48,148.9c-0.5-0.3-0.6-0.6-0.6-1.1c0-0.5,0.2-0.8,0.6-1.1l6.8-3.9c0.5-0.3,0.6-0.6,0.6-1.1V82.5
		l-17-9.7c-0.3-0.3-0.6-0.3-1.1,0c-0.5,0.3-0.6,0.6-0.6,1.1v67.9c0,0.5,0.2,0.8,0.6,1.1l6.8,3.9c0.5,0.3,0.6,0.6,0.6,1.1
		c0,0.5-0.2,0.8-0.6,1.1l-16.3,9.6c-0.5,0.2-0.8,0.2-1.1,0l-16.3-9.6c-0.5-0.3-0.6-0.6-0.6-1.1c0-0.5,0.2-0.8,0.6-1.1l6.8-3.9
		c0.5-0.3,0.6-0.6,0.6-1.1V83.1c0-0.5-0.2-0.7-0.6-0.9L0.8,72.6c-0.5-0.3-0.6-0.6-0.6-1.1c0-0.5,0.2-0.8,0.6-1.1l16.3-9.3
		c0.5-0.3,0.9-0.3,1.4,0L36,71.3c0.5,0.2,0.9,0.2,1.4,0l6.3-3.7l11.1-6.6c0.5-0.3,0.9-0.3,1.4,0L71,69.4l0.5,0.5l2.9,1.6L92.6,61
		c0.5-0.3,0.9-0.3,1.4,0L112,71.4z"/>
	<path class="st0" d="M193.5,146.7c0.5,0.3,0.6,0.6,0.6,1.1s-0.2,0.8-0.6,1.1l-16.3,9.4c-0.5,0.3-0.9,0.3-1.4,0l-18.2-10.5
		l-18.1,10.5c-0.5,0.3-0.9,0.3-1.4,0L120.7,148c-0.5-0.2-0.6-0.5-0.6-0.9v-64c0-0.5,0.2-0.7,0.6-0.9l18.2-10.7L157,61.1
		c0.5-0.3,0.9-0.3,1.4,0l17.5,10.2c0.5,0.2,0.6,0.5,0.6,0.9v64c0,0.5,0.2,0.8,0.6,1.1L193.5,146.7z M157.7,145.5V83
		c0-0.5-0.2-0.7-0.6-0.9l-16.3-9.6c-0.3-0.3-0.6-0.3-1.1,0s-0.6,0.6-0.6,1.1v62.5c0,0.5,0.2,0.7,0.6,0.9l16.3,9.6
		c0.3,0.3,0.6,0.3,1.1,0C157.4,146.4,157.7,145.9,157.7,145.5z"/>
	<path class="st0" d="M218.3,76.7c-0.3,0.2-0.5,0.4-0.5,0.6v64.9l8.2,4.8c0.3,0.2,0.5,0.4,0.5,0.6c0,0.3-0.2,0.6-0.5,0.6l-17.3,10.1
		c-0.3,0.2-0.6,0.2-0.6,0l-17.3-10c-0.3-0.2-0.5-0.4-0.5-0.6c0-0.3,0.2-0.6,0.5-0.6l7.7-4.5c0.3-0.2,0.5-0.4,0.5-0.6V77.4
		c0-0.2-0.2-0.4-0.5-0.6l-7.7-4.5c-0.3-0.2-0.5-0.4-0.5-0.6s0.2-0.5,0.5-0.6l8.2-4.8l9.1-5.2c0.2-0.2,0.4-0.2,0.6,0l9.1,5.2l4.3,2.3
		c0.2,0.2,0.4,0.2,0.6,0l13.4-7.5c0.2-0.2,0.4-0.2,0.6,0l17.3,10c0.3,0.2,0.5,0.4,0.5,0.6c0,0.2-0.2,0.5-0.5,0.6l-17.3,10
		c-0.3,0.2-0.6,0.2-0.6,0l-13.4-7.7c-0.3,0-0.6,0-0.6,0L218.3,76.7z"/>
	<path class="st0" d="M316.7,76.7c-0.5,0.2-0.6,0.5-0.6,0.9v32.1v64.5c0,0.5-0.2,0.8-0.6,1.1l-18.2,10.5L279,196.3
		c-0.5,0.2-0.9,0.2-1.4,0l-16.3-9.6c-0.5-0.2-0.6-0.5-0.6-1s0.2-0.9,0.6-1l16.3-9.6c0.5-0.3,0.9-0.3,1.4,0l16.3,9.6
		c0.3,0.2,0.6,0.1,1.1-0.1c0.5-0.2,0.6-0.6,0.6-1v-33.8c0-0.5-0.2-0.8-0.6-1c-0.5-0.2-0.8-0.2-1.1,0.1l-5.2,2.8l-11.1,6.6
		c-0.5,0.3-0.9,0.3-1.4,0l-17.5-10.2c-0.5-0.2-0.6-0.5-0.6-0.9V77.7c0-0.5-0.2-0.7-0.6-0.9l-6.8-4.1c-0.5-0.3-0.6-0.6-0.6-1.1
		s0.2-0.8,0.6-1.1l16.3-9.3c0.3-0.3,0.6-0.3,1.1,0l16.3,9.3c0.5,0.3,0.6,0.6,0.6,1.1s-0.2,0.8-0.6,1.1l-6.8,4.1
		c-0.5,0.2-0.6,0.5-0.6,0.9v58.5c0,0.5,0.2,0.7,0.6,0.9l16.3,9.6c0.3,0.3,0.6,0.3,1.1,0c0.5-0.3,0.6-0.6,0.6-1.1v-35.9V77.6
		c0-0.5-0.2-0.7-0.6-0.9l-6.8-4.1c-0.5-0.3-0.6-0.6-0.6-1.1s0.2-0.8,0.6-1.1l16.3-9.3c0.5-0.3,0.8-0.3,1.1,0l16.3,9.3
		c0.5,0.3,0.6,0.6,0.6,1.1s-0.2,0.8-0.6,1.1L316.7,76.7z"/>
	<path class="st0" d="M382.5,73.7v30.4l-18.9,10.9V83c0-0.5,0.2-0.7,0.6-0.9l11.1-6.6l15.4-8.8l9.7-5.7c0.5-0.3,0.9-0.3,1.4,0
		l16.3,9.3c0.5,0.3,0.6,0.6,0.6,1.1c0,0.5-0.2,0.8-0.6,1.1L401.9,82c-0.5,0.2-0.9,0.2-1.4,0l-16.3-9.6c-0.3-0.3-0.6-0.3-1.1,0
		C382.7,72.9,382.5,73.3,382.5,73.7z M400.8,146.7c0.4-0.2,0.6-0.6,0.6-1.3v-29.8c0-0.5-0.2-0.8-0.5-1.1l-18.4-10.5l18.4-10.5
		c0.3-0.3,0.6-0.3,1.1,0l17.5,10c0.5,0.3,0.6,0.6,0.6,1.1v31.4c0,0.5-0.2,0.7-0.6,0.9l-9.6,5.7l-15.4,8.8l-11.4,6.6
		c-0.5,0.3-0.9,0.3-1.4,0l-16.3-9.3c-0.3-0.3-0.5-0.6-0.5-1.1s0.2-0.8,0.5-1.1l16.3-9.6c0.5-0.2,0.9-0.2,1.4,0l16.3,9.6
		C400,146.9,400.4,147,400.8,146.7z"/>
	<path class="st0" d="M444.3,71.4L462.4,61c0.5-0.3,0.9-0.3,1.4,0l17.5,10.2c0.5,0.2,0.6,0.5,0.6,0.9v64.1c0,0.5-0.2,0.7-0.6,0.9
		l-18.2,10.7l-18.2,10.5c-0.5,0.3-0.9,0.3-1.4,0L426.1,148c-0.5-0.2-0.6-0.5-0.6-0.9v-64c0-0.5,0.2-0.7,0.6-0.9L444.3,71.4z
		 M462.4,146.7c0.5-0.2,0.6-0.6,0.6-1.3V83c0-0.5-0.2-0.7-0.6-0.9l-16.3-9.6c-0.3-0.3-0.6-0.3-1.1,0c-0.5,0.3-0.6,0.6-0.6,1.1v62.5
		c0,0.5,0.2,0.8,0.6,1.1l16.3,9.3C461.6,146.9,462,147,462.4,146.7z"/>
	<path class="st0" d="M510.1,76.7c-0.3,0.2-0.5,0.4-0.5,0.6v64.9l8.2,4.8c0.3,0.2,0.5,0.4,0.5,0.6c0,0.3-0.2,0.6-0.5,0.6l-17.3,10
		c-0.3,0.2-0.6,0.2-0.6,0l-17.3-10c-0.3-0.2-0.5-0.4-0.5-0.6c0-0.3,0.2-0.6,0.5-0.6l7.7-4.5c0.3-0.2,0.5-0.4,0.5-0.6V77.4
		c0-0.2-0.2-0.4-0.5-0.6l-7.7-4.5c-0.3-0.2-0.5-0.4-0.5-0.6s0.2-0.5,0.5-0.6l8.2-4.8l9.1-5.2c0.2-0.2,0.4-0.2,0.6,0l9.1,5.2l4.3,2.3
		c0.2,0.2,0.4,0.2,0.6,0l13.4-7.5c0.2-0.2,0.4-0.2,0.6,0l17.3,10c0.3,0.2,0.5,0.4,0.5,0.6c0,0.2-0.2,0.5-0.5,0.6l-17.3,10
		c-0.3,0.2-0.6,0.2-0.6,0l-13.4-7.7c-0.3,0-0.6,0-0.6,0L510.1,76.7z"/>
	<path class="st0" d="M558.7,71.4L576.9,61c0.5-0.3,0.9-0.3,1.4,0l17.5,10.2c0.5,0.2,0.6,0.5,0.6,0.9v64.1c0,0.5-0.2,0.7-0.6,0.9
		l-18.2,10.7l-18.2,10.5c-0.5,0.3-0.9,0.3-1.4,0L540.5,148c-0.5-0.2-0.6-0.5-0.6-0.9v-64c0-0.5,0.2-0.7,0.6-0.9L558.7,71.4z
		 M576.9,146.7c0.5-0.2,0.6-0.6,0.6-1.3V83c0-0.5-0.2-0.7-0.6-0.9l-16.3-9.6c-0.3-0.3-0.6-0.3-1.1,0s-0.6,0.6-0.6,1.1v62.5
		c0,0.5,0.2,0.8,0.6,1.1l16.3,9.3C576.1,146.9,576.4,147,576.9,146.7z"/>
	<path class="st0" d="M654.1,66.7l17.7,10.2c0.5,0.3,0.6,0.7,0.6,1.3c0,0.6-0.2,0.9-0.6,1l-11.4,6.6L646,94.1
		c-0.5,0.3-0.6,0.7-0.6,1.3c0,0.6,0.2,0.9,0.6,1l17.3,10c0.5,0.3,0.6,0.6,0.6,1.1v33.2c0,0.5,0.2,0.8,0.6,1.1l7.3,4.1
		c0.5,0.3,0.6,0.7,0.6,1.3c0,0.6-0.2,0.9-0.6,1l-17.3,10c-0.5,0.3-0.9,0.3-1.4,0l-17.3-10c-0.5-0.2-0.6-0.5-0.6-1s0.2-0.9,0.6-1.3
		l7.5-4.1c0.5-0.3,0.6-0.6,0.6-1.1v-21.6c0-0.5-0.2-0.8-0.6-1.1L624.1,107v33.8c0,0.5,0.2,0.8,0.6,1.1l7.3,4.1
		c0.5,0.3,0.6,0.7,0.6,1.3c0,0.6-0.2,0.9-0.6,1l-17.3,10c-0.5,0.3-0.9,0.3-1.4,0l-17.3-10c-0.5-0.2-0.6-0.5-0.6-1s0.2-0.9,0.6-1.3
		l7.3-4.1c0.5-0.3,0.6-0.6,0.6-1.1V15.6c0-0.6,0.2-1,0.6-1.1l17.3-10c0.5-0.3,0.9-0.3,1.4,0c0.5,0.3,0.6,0.6,0.6,1.1v64.5
		c0,0.5,0.2,0.8,0.6,1c0.5,0.2,0.9,0.3,1.4,0.1l8.2-4.8l9.1-5.2c0.5-0.3,0.8-0.3,1.1,0L654.1,66.7z M624.1,103
		c0,0.5,0.2,0.8,0.6,1.1s0.8,0.3,1.1,0l24.8-14.3c0.5-0.2,0.6-0.5,0.6-1s-0.2-0.9-0.6-1.3l-10.9-6.2l-13.9-8c-0.3-0.3-0.6-0.3-1.1,0
		s-0.6,0.6-0.6,1.1V103z"/>
	<path class="st0" d="M749.3,146.7c0.5,0.3,0.6,0.6,0.6,1.1s-0.2,0.8-0.6,1.1l-16.3,9.3c-0.5,0.3-0.9,0.3-1.4,0l-18.2-10.5
		l-18.2,10.5c-0.5,0.3-0.9,0.3-1.4,0l-17.5-10.2c-0.5-0.2-0.6-0.5-0.6-0.9V83c0-0.5,0.2-0.7,0.6-0.9l18.2-10.7L712.7,61
		c0.5-0.3,0.9-0.3,1.4,0l17.5,10.2c0.5,0.2,0.6,0.5,0.6,0.9v64.1c0,0.5,0.2,0.8,0.6,1.1L749.3,146.7z M713.4,145.5V83
		c0-0.5-0.2-0.7-0.6-0.9l-16.3-9.6c-0.3-0.3-0.6-0.3-1.1,0c-0.5,0.3-0.6,0.6-0.6,1.1v62.5c0,0.5,0.2,0.7,0.6,0.9l16.3,9.6
		c0.3,0.3,0.6,0.3,1.1,0C713.2,146.4,713.4,145.9,713.4,145.5z"/>
</g>
</svg>
