<?xml version="1.0" encoding="utf-8"?>
<!-- Generator: Adobe Illustrator 27.3.1, SVG Export Plug-In . SVG Version: 6.00 Build 0)  -->
<svg version="1.1" id="Layer_1" xmlns="http://www.w3.org/2000/svg" xmlns:xlink="http://www.w3.org/1999/xlink" x="0px" y="0px"
	 viewBox="0 0 750 205" style="enable-background:new 0 0 750 205;" xml:space="preserve">
<style type="text/css">
	.st0{fill:#FAE5D4;}
</style>
<g>
	<path class="st0" d="M112,71.4v70.2c0,0.5,0.2,0.8,0.6,1.1l6.8,3.9c0.5,0.3,0.6,0.6,0.6,1.1s-0.2,0.8-0.6,1.1l-16.3,9.6
		c-0.5,0.2-0.8,0.2-1.1,0l-16.3-9.5c-0.5-0.3-0.6-0.6-0.6-1.1s0.2-0.8,0.6-1.1l6.8-3.9c0.5-0.3,0.6-0.6,0.6-1.1V82.5l-17-9.7
		c-0.3-0.2-0.6-0.1-1.1,0.1s-0.6,0.6-0.6,1v67.9c0,0.5,0.2,0.8,0.6,1.1l6.8,3.9c0.5,0.3,0.6,0.6,0.6,1.1s-0.2,0.8-0.6,1.1l-16.3,9.5
		c-0.3,0.2-0.6,0.2-1.1,0L48,148.9c-0.5-0.3-0.6-0.6-0.6-1.1s0.2-0.8,0.6-1.1l6.8-3.9c0.5-0.3,0.6-0.6,0.6-1.1V82.5l-17-9.7
		c-0.3-0.3-0.6-0.3-1.1,0s-0.6,0.6-0.6,1.1v67.9c0,0.5,0.2,0.8,0.6,1.1l6.8,3.9c0.5,0.3,0.6,0.6,0.6,1.1s-0.2,0.8-0.6,1.1l-16.3,9.6
		c-0.5,0.2-0.8,0.2-1.1,0L10.4,149c-0.5-0.3-0.6-0.6-0.6-1.1s0.2-0.8,0.6-1.1l6.8-3.9c0.5-0.3,0.6-0.6,0.6-1.1V83.1
		c0-0.5-0.2-0.7-0.6-0.9L0.8,72.6c-0.5-0.3-0.6-0.6-0.6-1.1s0.2-0.8,0.6-1.1l16.3-9.3c0.5-0.3,0.9-0.3,1.4,0L36,71.3
		c0.5,0.2,0.9,0.2,1.4,0l6.3-3.7L54.8,61c0.5-0.3,0.9-0.3,1.4,0L71,69.4l0.5,0.5l2.9,1.6L92.6,61c0.5-0.3,0.9-0.3,1.4,0L112,71.4z"
		/>
	<path class="st0" d="M197.5,146.7c0.5,0.3,0.6,0.6,0.6,1.1s-0.2,0.8-0.6,1.1l-16.3,9.4c-0.5,0.3-0.9,0.3-1.4,0l-18.2-10.5
		l-18.1,10.5c-0.5,0.3-0.9,0.3-1.4,0L124.7,148c-0.5-0.2-0.6-0.5-0.6-0.9v-64c0-0.5,0.2-0.7,0.6-0.9l18.2-10.7L161,61.1
		c0.5-0.3,0.9-0.3,1.4,0l17.5,10.2c0.5,0.2,0.6,0.5,0.6,0.9v64c0,0.5,0.2,0.8,0.6,1.1L197.5,146.7z M161.7,145.5V83
		c0-0.5-0.2-0.7-0.6-0.9l-16.3-9.6c-0.3-0.3-0.6-0.3-1.1,0s-0.6,0.6-0.6,1.1v62.5c0,0.5,0.2,0.7,0.6,0.9l16.3,9.6
		c0.3,0.3,0.6,0.3,1.1,0C161.4,146.4,161.7,145.9,161.7,145.5z"/>
	<path class="st0" d="M224.3,76.7c-0.3,0.2-0.5,0.4-0.5,0.6v64.9l8.2,4.8c0.3,0.2,0.5,0.4,0.5,0.6c0,0.3-0.2,0.6-0.5,0.6l-17.3,10.1
		c-0.3,0.2-0.6,0.2-0.6,0l-17.3-10c-0.3-0.2-0.5-0.4-0.5-0.6c0-0.3,0.2-0.6,0.5-0.6l7.7-4.5c0.3-0.2,0.5-0.4,0.5-0.6V77.4
		c0-0.2-0.2-0.4-0.5-0.6l-7.7-4.5c-0.3-0.2-0.5-0.4-0.5-0.6s0.2-0.5,0.5-0.6l8.2-4.8l9.1-5.2c0.2-0.2,0.4-0.2,0.6,0l9.1,5.2l4.3,2.3
		c0.2,0.2,0.4,0.2,0.6,0l13.4-7.5c0.2-0.2,0.4-0.2,0.6,0l17.3,10c0.3,0.2,0.5,0.4,0.5,0.6s-0.2,0.5-0.5,0.6l-17.3,10
		c-0.3,0.2-0.6,0.2-0.6,0l-13.4-7.7c-0.3,0-0.6,0-0.6,0L224.3,76.7z"/>
	<path class="st0" d="M324.7,76.7c-0.5,0.2-0.6,0.5-0.6,0.9v32.1v64.5c0,0.5-0.2,0.8-0.6,1.1l-18.2,10.5L287,196.3
		c-0.5,0.2-0.9,0.2-1.4,0l-16.3-9.6c-0.5-0.2-0.6-0.5-0.6-1s0.2-0.9,0.6-1l16.3-9.6c0.5-0.3,0.9-0.3,1.4,0l16.3,9.6
		c0.3,0.2,0.6,0.1,1.1-0.1c0.5-0.2,0.6-0.6,0.6-1v-33.8c0-0.5-0.2-0.8-0.6-1c-0.5-0.2-0.8-0.2-1.1,0.1l-5.2,2.8l-11.1,6.6
		c-0.5,0.3-0.9,0.3-1.4,0l-17.5-10.2c-0.5-0.2-0.6-0.5-0.6-0.9V77.7c0-0.5-0.2-0.7-0.6-0.9l-6.8-4.1c-0.5-0.3-0.6-0.6-0.6-1.1
		s0.2-0.8,0.6-1.1l16.3-9.3c0.3-0.3,0.6-0.3,1.1,0l16.3,9.3c0.5,0.3,0.6,0.6,0.6,1.1s-0.2,0.8-0.6,1.1l-6.8,4.1
		c-0.5,0.2-0.6,0.5-0.6,0.9v58.5c0,0.5,0.2,0.7,0.6,0.9l16.3,9.6c0.3,0.3,0.6,0.3,1.1,0s0.6-0.6,0.6-1.1v-35.9V77.6
		c0-0.5-0.2-0.7-0.6-0.9l-6.8-4.1c-0.5-0.3-0.6-0.6-0.6-1.1s0.2-0.8,0.6-1.1l16.3-9.3c0.5-0.3,0.8-0.3,1.1,0l16.3,9.3
		c0.5,0.3,0.6,0.6,0.6,1.1s-0.2,0.8-0.6,1.1L324.7,76.7z"/>
	<path class="st0" d="M375.5,73.7v30.4L356.6,115V83c0-0.5,0.2-0.7,0.6-0.9l11.1-6.6l15.4-8.8l9.7-5.7c0.5-0.3,0.9-0.3,1.4,0
		l16.3,9.3c0.5,0.3,0.6,0.6,0.6,1.1s-0.2,0.8-0.6,1.1L394.9,82c-0.5,0.2-0.9,0.2-1.4,0l-16.3-9.6c-0.3-0.3-0.6-0.3-1.1,0
		C375.7,72.9,375.5,73.3,375.5,73.7z M393.8,146.7c0.4-0.2,0.6-0.6,0.6-1.3v-29.8c0-0.5-0.2-0.8-0.5-1.1L375.5,104l18.4-10.5
		c0.3-0.3,0.6-0.3,1.1,0l17.5,10c0.5,0.3,0.6,0.6,0.6,1.1V136c0,0.5-0.2,0.7-0.6,0.9l-9.6,5.7l-15.4,8.8l-11.4,6.6
		c-0.5,0.3-0.9,0.3-1.4,0l-16.3-9.3c-0.3-0.3-0.5-0.6-0.5-1.1s0.2-0.8,0.5-1.1l16.3-9.6c0.5-0.2,0.9-0.2,1.4,0l16.3,9.6
		C393,146.9,393.4,147,393.8,146.7z"/>
	<path class="st0" d="M439.3,71.4L457.4,61c0.5-0.3,0.9-0.3,1.4,0l17.5,10.2c0.5,0.2,0.6,0.5,0.6,0.9v64.1c0,0.5-0.2,0.7-0.6,0.9
		l-18.2,10.7l-18.2,10.5c-0.5,0.3-0.9,0.3-1.4,0L421.1,148c-0.5-0.2-0.6-0.5-0.6-0.9v-64c0-0.5,0.2-0.7,0.6-0.9L439.3,71.4z
		 M457.4,146.7c0.5-0.2,0.6-0.6,0.6-1.3V83c0-0.5-0.2-0.7-0.6-0.9l-16.3-9.6c-0.3-0.3-0.6-0.3-1.1,0s-0.6,0.6-0.6,1.1v62.5
		c0,0.5,0.2,0.8,0.6,1.1l16.3,9.3C456.6,146.9,457,147,457.4,146.7z"/>
	<path class="st0" d="M507.1,76.7c-0.3,0.2-0.5,0.4-0.5,0.6v64.9l8.2,4.8c0.3,0.2,0.5,0.4,0.5,0.6c0,0.3-0.2,0.6-0.5,0.6l-17.3,10
		c-0.3,0.2-0.6,0.2-0.6,0l-17.3-10c-0.3-0.2-0.5-0.4-0.5-0.6c0-0.3,0.2-0.6,0.5-0.6l7.7-4.5c0.3-0.2,0.5-0.4,0.5-0.6V77.4
		c0-0.2-0.2-0.4-0.5-0.6l-7.7-4.5c-0.3-0.2-0.5-0.4-0.5-0.6s0.2-0.5,0.5-0.6l8.2-4.8l9.1-5.2c0.2-0.2,0.4-0.2,0.6,0l9.1,5.2l4.3,2.3
		c0.2,0.2,0.4,0.2,0.6,0l13.4-7.5c0.2-0.2,0.4-0.2,0.6,0l17.3,10c0.3,0.2,0.5,0.4,0.5,0.6s-0.2,0.5-0.5,0.6l-17.3,10
		c-0.3,0.2-0.6,0.2-0.6,0l-13.4-7.7c-0.3,0-0.6,0-0.6,0L507.1,76.7z"/>
	<path class="st0" d="M556.7,71.4L574.9,61c0.5-0.3,0.9-0.3,1.4,0l17.5,10.2c0.5,0.2,0.6,0.5,0.6,0.9v64.1c0,0.5-0.2,0.7-0.6,0.9
		l-18.2,10.7l-18.2,10.5c-0.5,0.3-0.9,0.3-1.4,0L538.5,148c-0.5-0.2-0.6-0.5-0.6-0.9v-64c0-0.5,0.2-0.7,0.6-0.9L556.7,71.4z
		 M574.9,146.7c0.5-0.2,0.6-0.6,0.6-1.3V83c0-0.5-0.2-0.7-0.6-0.9l-16.3-9.6c-0.3-0.3-0.6-0.3-1.1,0s-0.6,0.6-0.6,1.1v62.5
		c0,0.5,0.2,0.8,0.6,1.1l16.3,9.3C574.1,146.9,574.4,147,574.9,146.7z"/>
	<path class="st0" d="M653.1,66.7l17.7,10.2c0.5,0.3,0.6,0.7,0.6,1.3c0,0.6-0.2,0.9-0.6,1l-11.4,6.6L645,94.1
		c-0.5,0.3-0.6,0.7-0.6,1.3c0,0.6,0.2,0.9,0.6,1l17.3,10c0.5,0.3,0.6,0.6,0.6,1.1v33.2c0,0.5,0.2,0.8,0.6,1.1l7.3,4.1
		c0.5,0.3,0.6,0.7,0.6,1.3s-0.2,0.9-0.6,1l-17.3,10c-0.5,0.3-0.9,0.3-1.4,0l-17.3-10c-0.5-0.2-0.6-0.5-0.6-1s0.2-0.9,0.6-1.3
		l7.5-4.1c0.5-0.3,0.6-0.6,0.6-1.1v-21.6c0-0.5-0.2-0.8-0.6-1.1l-19.2-11v33.8c0,0.5,0.2,0.8,0.6,1.1l7.3,4.1
		c0.5,0.3,0.6,0.7,0.6,1.3s-0.2,0.9-0.6,1l-17.3,10c-0.5,0.3-0.9,0.3-1.4,0l-17.3-10c-0.5-0.2-0.6-0.5-0.6-1s0.2-0.9,0.6-1.3
		l7.3-4.1c0.5-0.3,0.6-0.6,0.6-1.1V15.6c0-0.6,0.2-1,0.6-1.1l17.3-10c0.5-0.3,0.9-0.3,1.4,0s0.6,0.6,0.6,1.1v64.5
		c0,0.5,0.2,0.8,0.6,1c0.5,0.2,0.9,0.3,1.4,0.1l8.2-4.8l9.1-5.2c0.5-0.3,0.8-0.3,1.1,0L653.1,66.7z M623.1,103
		c0,0.5,0.2,0.8,0.6,1.1s0.8,0.3,1.1,0l24.8-14.3c0.5-0.2,0.6-0.5,0.6-1s-0.2-0.9-0.6-1.3l-10.9-6.2l-13.9-8c-0.3-0.3-0.6-0.3-1.1,0
		s-0.6,0.6-0.6,1.1L623.1,103L623.1,103z"/>
	<path class="st0" d="M749.3,146.7c0.5,0.3,0.6,0.6,0.6,1.1s-0.2,0.8-0.6,1.1l-16.3,9.3c-0.5,0.3-0.9,0.3-1.4,0l-18.2-10.5
		l-18.2,10.5c-0.5,0.3-0.9,0.3-1.4,0L676.3,148c-0.5-0.2-0.6-0.5-0.6-0.9V83c0-0.5,0.2-0.7,0.6-0.9l18.2-10.7L712.7,61
		c0.5-0.3,0.9-0.3,1.4,0l17.5,10.2c0.5,0.2,0.6,0.5,0.6,0.9v64.1c0,0.5,0.2,0.8,0.6,1.1L749.3,146.7z M713.4,145.5V83
		c0-0.5-0.2-0.7-0.6-0.9l-16.3-9.6c-0.3-0.3-0.6-0.3-1.1,0s-0.6,0.6-0.6,1.1v62.5c0,0.5,0.2,0.7,0.6,0.9l16.3,9.6
		c0.3,0.3,0.6,0.3,1.1,0C713.2,146.4,713.4,145.9,713.4,145.5z"/>
</g>
</svg>
