<?xml version="1.0" encoding="utf-8"?>
<!-- Generator: Adobe Illustrator 24.0.3, SVG Export Plug-In . SVG Version: 6.00 Build 0)  -->
<svg version="1.1" id="Layer_1" xmlns="http://www.w3.org/2000/svg" xmlns:xlink="http://www.w3.org/1999/xlink" x="0px" y="0px"
	 viewBox="0 0 1000 1000" style="enable-background:new 0 0 1000 1000;" xml:space="preserve">
<g>
	<path d="M-11740.9,799.9c59.6-1.1,107.7-25.8,143.4-73.6c21.8-29.1,32.7-62.2,36.4-98.9c14.3,57.4,28.6,114.8,42.9,172.3
		c18.1,0,35.4,0,53.7,0c-49.5-199.9-99-399.3-148.8-600.4c22.2,0,42.8,0,64.5,0c0-10.3,0-19.3,0-28.2c-0.1-16.1-2.3-18.4-18.1-18.4
		c-115.4,0-230.9,0-346.3,0c-3,0-6.5-0.8-8.9,0.4c-3.3,1.7-8,4.9-8.2,7.8c-0.9,12.6-0.4,25.2-0.4,38.8c21.8,0,42.1,0,63.5,0
		c-49.6,200.6-98.9,399.9-148.4,600c18.7,0,35.6,0,53.4,0c26.5-106.6,52.9-213.2,79.4-319.7c0.8,0.1,1.6,0.1,2.5,0.2
		c0,106.4,0,212.8,0,319.9C-11832.8,800-11786.9,800.7-11740.9,799.9z M-11614,637.4c-7.2,62.8-63.4,112.7-127,112.8
		c-24.1,0-48.2-0.3-72.4,0.1c-10.1,0.2-14.2-3.4-14-13.8c0.4-38.4,0.2-76.9,0.2-115.4c0-38.1,0.2-76.2-0.2-114.2
		c-0.1-10.3,3.6-14.4,13.8-14c33.1,1.3,66.8-1.4,99.1,4.2C-11649.6,508.5-11606.4,571.4-11614,637.4z M-11816.2,212.5
		c2.2-8.4,9-12.9,17.9-12.9c38.9-0.1,77.7-0.1,116.6,0c9,0,15.5,4.5,17.8,13c7.2,27.6,13.9,55.4,21,84.3c-65.1,0-128.5,0-191.9,0
		c-0.5-1.3-1.3-2.4-1.1-3.2C-11829.5,266.6-11823.3,239.4-11816.2,212.5z M-11852.3,360.3c1.5-5,10.7-10.8,16.3-10.8
		c63.7-0.8,127.4-0.5,191.1-0.5c9.4,0,15.8,4.5,18.1,13.8c13.7,55.3,27.3,110.6,40.9,165.9c-16.2-16.6-31.9-35.2-50.5-50.3
		c-29.9-24.1-65.5-34.7-104-34.7c-39.9,0-79.9,0-119.8,0c-4,0-8,0-13.7,0C-11866.6,414.6-11860.4,387.2-11852.3,360.3z"/>
	<path d="M-11283.3,562c-2.3,0.1-5.6,4.3-6.3,7.1c-2.4,9.9-3.5,20.1-5.8,29.9c-54.3,233.7-280.5,385.4-516.7,346.5
		c-254.2-41.8-422.7-287.5-369.6-539c56.2-266.5,339.1-425.5,595-331.1c164.8,60.8,263.7,180.9,296.9,354.1c0.6,3.3,4.6,8.4,7.3,8.6
		c13.5,0.9,27,0.4,41.5,0.4c-18.6-210.9-208.5-428.6-479.6-438.3c-291.4-10.4-540,232.7-518.1,537.6
		c19.1,266.6,257.4,492.8,559.6,458.7c269.1-30.3,426.3-258.6,437.4-434.9C-11255.6,561.7-11269.5,561.3-11283.3,562z"/>
</g>
<g>
	<path d="M-10596.4,437.8c-4.5-3.3-9.8-4.9-15-2.9c-4.8,1.9-9.5,4.7-13.6,7.8c-6,4.5-12.2,7.2-19.8,6.4c-4.2-0.4-7.4-2.1-10.1-5.2
		c-4.1-4.7-5.9-10.6-6.5-16.5c-1.3-12.7-0.5-25.3,2.5-37.8c0.9-3.6,1.5-7.2,2.3-11.4c-4.9,1.8-8.9,3.7-13.1,4.8
		c-12.9,3.4-17.8,1.5-21.2-9.7c-0.4-1.3-0.2-2.9-0.8-4c-0.9-1.7-2.1-3.7-3.6-4.4c-2.3-1.1-5.1-1.2-7.7-1.7c-1.4-0.3-3-0.5-4.3-1.2
		c-8.4-4.3-12.6-11.1-12.3-20.7c0.1-2,0-4,0-5.9c-2.7,1.9-4.8,3.9-6.5,6.3c-7.3,10.1-11.5,21.7-15.5,33.3
		c-4.1,12-18.2,16.3-28.5,11.4c-3.9-1.8-7-5.5-10.6-8.4c-0.2,0.4-0.9,1.3-1.2,2.3c-3.6,10.9-2.3,22.1-1.5,33.3
		c0.5,6.9,1.3,13.8,1.1,20.6c-0.2,5.7-2.4,11.1-7,14.9c-3,2.5-6.2,3.6-10.5,2.1c-7.2-2.5-12-7.4-16-13.6c-1.3-2-2.4-4-4-6.7
		c-1.6,3-3.1,5.2-4,7.6c-3.6,8.8-11.3,11.1-20.8,7.3c-5.9-2.3-10.9-6.7-16.4-10.1c-1.9-1.1-3.9-2-6.3-3.1c-1.6,11.5,0.4,21.7,4,31.6
		c1.9,5.4,4.4,10.6,6.3,16c1.3,3.6-0.1,6.4-3.8,7.2c-3.5,0.8-7.2,0.7-10.8,0.9c-1.2,0-2.4-0.4-4.2-0.8c0.6,1.8,0.8,3,1.3,4.1
		c5.5,11,12,21.2,19.9,30.6c4.8,5.7,9.7,11.5,14,17.6c5,7,3.3,15.4-3.9,18.4c-3.2,1.3-7.2,1-10.8,1.3c-1.3,0.1-2.6-0.2-5.1-0.4
		c2.1,2.9,3.4,5,5,6.8c9.2,10.7,20.2,18.4,34.4,20.9c7.8,1.4,15.6,2.9,23.2,5.1c6.5,1.8,12.1,5.6,13.9,12.7c0.8,3.2,2.1,3.3,4.6,2.3
		c6.6-2.8,13.5-4.8,20.8-4.4c9.1,0.5,16.6-3,23.6-8.3c3-2.3,4.4-1.8,5.3,2c0.8,3.4,1.7,6.7,2.3,10.1c1.7,9.7,3.8,19.4,4.7,29.3
		c1.2,14.5,1,29-1.4,43.5c-1.8,10.9-3.1,21.9-4.6,32.8c-1.9,14.1-1,28,3.7,41.6c3,8.7,6.9,16.8,12,24.4c3.5,0,6.9,0,10.4,0
		c-0.8-3-1.3-6.2-2.4-9.1c-2.3-5.9-5.7-11.4-7.2-17.5c-2.6-10.3-4-21-6.1-31.5c-1.8-9.2,0.2-18.2,1.2-27.2
		c0.8-7.2,2.3-14.4,2.7-21.6c0.7-14.1,1.2-28.2-1.4-42.1c-1.6-8.6-3.2-17.2-5-25.7c-0.8-4-2-7.9-3.1-12.6c1.8,0.7,3.1,1,4.1,1.6
		c3.5,1.8,6.8,3.9,10.3,5.7c10.7,5.3,21.9,9.1,34,9.2c3.2,0,6.4-1,9.9-1.6c-1.7-2.5-3.1-4.3-4.2-6.3c-1.1-2.1-0.5-3.6,2.1-3.7
		c1.3,0,2.5-0.1,3.8-0.1c11.8-0.1,23-2.6,33.3-8.7c10.8-6.4,22.5-10.6,35.3-10.9c0.9,0,1.9-0.4,2.9-0.6c-2.5-2.7-4.9-5-7.1-7.5
		c-5.5-6.2-8.3-13.6-5.6-21.4c4.6-13.4,13.2-23.9,26.4-30.1c3.8-1.8,7.7-3.4,11.4-5.1c-3.9-3.4-7.9-6.4-11.1-10
		c-4.8-5.5-5.7-12-3.5-19.1c2.4-7.7,7.3-13.7,12.6-19.6c4.1-4.5,8-9.2,11.5-14.2c2.2-3.1,3.6-6.9,5.5-10.6c-8,1.7-15.1,3.1-22.1,4.6
		C-10582.5,444.2-10589.8,442.7-10596.4,437.8z"/>
	<path d="M-10222.1,374c-1.1-20.8-2.9-41.4-6.8-61.8c-2.4-12.5-5.7-24.6-11-36.2c-7.5-16.4-18.9-29-35.1-37.3
		c-15.8-8.1-32.8-11.6-50.1-13.4c-16.5-1.7-33.2-2.5-49.8-2.7c-35.8-0.5-71.6-0.4-107.5-0.7c-3,0-4.3,0.9-4.1,4c0.1,1.3,0,2.5,0,3.8
		c0,87.7,0,175.4,0,263c0,87.8,0,175.6,0,263.4c0,6.9,0,6.9,6.7,6.9c32.1,0,64.3,0.2,96.4-0.1c26.2-0.2,52.5,0.5,78.4-4.5
		c9.6-1.8,19.2-4,28.2-7.6c21.8-8.7,35-25.8,41.8-47.7c3.4-10.7,5.7-21.8,7.5-32.9c2.2-14.2,4.1-28.6,4.8-42.9
		c1.3-24.4,2-48.9,2.1-73.4C-10220.2,493.8-10219,433.9-10222.1,374z M-10325.2,619.8c0,11.1-1.7,22.3-3.8,33.2
		c-1.9,9.7-6.5,18.4-16.2,22.8c-8.1,3.7-16.9,4.6-25.7,4.2c-0.9,0-2.1-1.5-2.5-2.5c-0.4-1.2-0.2-2.7-0.2-4.1c0-60.3,0-120.6,0-180.9
		c0-60.3,0-120.6,0-180.9c0-1.5-0.2-3.1,0.2-4.5c0.2-0.9,1.3-2.2,2.1-2.2c10.1-0.5,20.1,0.1,29,5.9c6.5,4.3,9.9,10.8,12,18
		c5,17.6,5.4,35.7,5.4,53.9C-10324.9,461.8-10324.8,540.8-10325.2,619.8z"/>
	<path d="M-10934.8,720.9c-2-19.7-3.9-39.5-5.8-59.2c-0.6-6.4-1.5-12.8-2.2-19.2c-0.9-8.5-1.9-17-2.7-25.5
		c-0.8-7.8-1.4-15.6-2.2-23.4c-1.6-15.3-3.2-30.5-4.8-45.7c-0.7-7-1.4-14-2.1-21c-1.6-15-3.2-30-4.8-45.1
		c-0.8-7.1-1.4-14.2-2.1-21.4c-1.5-13.5-3.2-27-4.6-40.6c-1.5-14.3-2.8-28.7-4.2-43.1c-0.6-5.9-1.3-11.7-1.9-17.5
		c-1-8.7-2-17.4-2.9-26.1c-0.8-7.9-1.4-15.9-2.3-23.8c-1.5-13.4-3.1-26.8-4.6-40.2c-1.5-14-2.7-28-4.1-42c-0.5-4.9-1-5.2-5.8-5.2
		c-27,0-54.1,0-81.1,0c-26.8,0-53.6,0-80.4,0c-5.9,0-6.2,0.5-6.8,6.5c-1.2,12.9-2.6,25.7-4,38.5c-1.5,12.9-3.2,25.9-4.7,38.8
		c-1.4,12.8-2.6,25.7-4,38.5c-0.6,6.1-1.5,12.1-2.2,18.2c-0.9,7.6-1.8,15.1-2.7,22.7c-0.8,7.5-1.4,14.9-2.3,22.4
		c-1.5,12.5-3.2,24.9-4.6,37.4c-2,18.3-3.8,36.7-5.8,55c-0.6,5.8-1.3,11.7-2,17.5c-1.5,12.5-3.1,24.9-4.5,37.4
		c-1.5,13.1-2.6,26.2-4.1,39.2c-2,17.8-4.3,35.5-6.3,53.2c-2.1,18.3-3.8,36.7-5.8,55c-0.7,6.3-1.5,12.6-2.3,18.9
		c-1.5,12.4-3,24.7-4.3,37.1c-0.4,4,0.1,4.5,4,4.5c32.8,0,65.6,0,98.5,0.1c3.1,0,4.5-1.1,4.7-4.1c0.7-7.2,1.5-14.5,2.1-21.7
		c2-22.3,3.8-44.6,5.8-66.9c0.7-8,1.6-16.1,2.4-24.1c0.3-2.7,1.6-3.8,4.3-3.8c14.3,0.1,28.7,0.1,43,0c2.4,0,3.7,0.9,3.9,3.3
		c0.6,5.7,1.2,11.5,1.8,17.2c0.9,9.2,1.9,18.4,2.8,27.5c0.8,8.2,1.4,16.3,2.2,24.5c1.5,14.3,3.1,28.7,4.6,43c0.5,4.9,0.3,5,5.2,5
		c33.1,0,66.1,0,99.2,0c0.8,0,1.6,0,2.4,0c2.1,0,2.8-1,2.5-3.1C-10932,746.8-10933.5,733.9-10934.8,720.9z M-11062.4,564.7
		c-9.6,0-19.2,0-28.8,0c-2.6,0-3.4-1.3-3.2-3.7c0.8-8.8,1.5-17.7,2.3-26.5c0.9-10.3,2-20.7,2.9-31c0.9-10.1,1.8-20.2,2.7-30.3
		c0.8-9.3,1.6-18.6,2.5-27.9c1-10.4,2-20.9,3-31.3c0.8-8,1.5-16.1,2.2-24.1c0.1-1.2,0.4-2.4,0.6-3.5c0.5,0,1,0,1.4-0.1
		c0.5,2.3,1.3,4.5,1.5,6.8c1.5,15.8,2.7,31.7,4.2,47.6c1.4,14.8,3,29.6,4.5,44.4c0.7,6.9,1.4,13.8,2,20.7c1.3,15.3,2.6,30.6,4,45.8
		c0.3,3.2,0.8,6.4,1.3,9.6C-11058.8,563.6-11059.9,564.7-11062.4,564.7z"/>
</g>
<g>
	<path d="M-9330.5,601.6c-100.2-173.4-200.5-346.8-300.4-520.5c-7-12.2-15.3-17.1-29.3-16.6c-27.4,1-54.8,0.7-82.2,0.1
		c-11.6-0.3-18.8,3.8-24.7,14c-142.3,246.7-284.8,493.4-427.5,739.8c-6.2,10.7-6.4,19.2,0,29.7c14.5,23.8,28.6,47.8,41.8,72.3
		c6.1,11.5,13.7,15.5,26.7,15.4c141.9-0.4,283.9-0.3,425.8-0.3c141.9,0,283.9-0.2,425.8,0.3c14.4,0.1,22.2-4.9,28.8-17.1
		c12.9-24.1,26.6-47.9,41.1-71.1c6.6-10.6,6.1-18.8-0.1-29.4C-9247.1,746.4-9288.7,673.9-9330.5,601.6z M-9661,93.3
		c4.2,0.2,9.2,6.1,11.8,10.5c40.7,70,81,140.2,121.5,210.3c94.9,164.2,190,328.4,285,492.7c1.9,3.4,3.7,6.8,6.4,11.8
		c-111.8,0-222.4,0-336,0c12-20.3,23.1-39.9,35.4-58.8c1.8-2.7,8.9-2.6,13.5-2.6c49.9-0.2,99.9-0.1,149.8-0.1
		c20.5,0,25.2-8.5,14.9-26.3c-44.1-76.5-88.5-152.8-132.1-229.5c-6.5-11.4-14.2-15.3-27-15.2c-76.4,0.5-152.7,0.2-229.1,0.2
		c-5.2,0-10.4,0-17.8,0c11.3-19.8,20.8-37.8,31.9-54.8c2.6-4,10.5-6.2,16-6.2c48.9-0.5,97.9-0.3,146.8-0.3c24.6,0,29.7-8.1,17.7-29
		c-55.9-97.2-112-194.3-168-291.4c-1.7-2.9-3-6-5.9-11.7C-9702.9,92.8-9681.9,92.2-9661,93.3z M-9759.2,757.7
		c11.9,0.1,18.7-4.4,24.4-14.4c24.5-43.4,49.7-86.3,74.4-129.5c3.7-6.5,7.4-10.1,15.8-9.8c19.5,0.7,39,0.2,59.9,0.2
		c-1.9,4.4-3,7.5-4.6,10.3c-37.1,64.3-74.3,128.5-111.3,192.8c-4,7-7.7,12.4-17.6,12.4c-75.8-0.4-151.6-0.2-227.4-0.3
		c-2.8,0-5.6-0.7-10.6-1.3c11.4-19.6,21.7-38.3,33.3-56.2c2-3.2,9.3-4.1,14.2-4.1C-9859,757.4-9809.1,757.1-9759.2,757.7z
		 M-9906.3,730c4.8-8.4,8.9-15.6,14.1-24.5c4.9,8.5,8.9,15.4,14.1,24.5C-9888.5,730-9896.2,730-9906.3,730z M-9797.3,515.7
		c24.9,42,48.7,84.6,73.4,126.7c5.1,8.7,6,15.3,0.3,24.1c-9.5,14.6-17.7,30.1-27.7,47.4c-12.3-20.9-23.6-40-34.7-59.3
		c-27.3-47.4-54.3-94.9-81.6-142.3c-4.1-7.2-6.3-13.2-1.4-21.6c37.9-65.4,75.4-131.2,113-196.8c0.9-1.6,2.5-2.9,5.2-6
		c10.7,18.5,21.4,35.7,30.5,53.8c1.9,3.8-1,11.2-3.6,15.9c-24,42.5-48.2,84.8-73,126.9C-9803.3,495.3-9804,504.4-9797.3,515.7z
		 M-9714.1,603.7c10.7,0,18.4,0,28.3,0c-4.8,8.4-8.8,15.4-13.9,24.3C-9704.5,619.9-9708.6,613-9714.1,603.7z M-9715.6,575.7
		c-9.9,0.1-16.1-2.6-20.9-11.8c-8.2-16-17.9-31.2-27.6-48c4.3-0.7,7.5-1.7,10.7-1.7c75.9,0,151.7-0.1,227.6,0.5
		c5.3,0,12.9,4.4,15.6,9c38.1,64.7,75.5,129.8,113.1,194.8c1.6,2.9,2.8,6,5.1,11.3c-22.5,0-42.5,0.7-62.5-0.5
		c-4.8-0.3-10.9-5.6-13.6-10.2c-24.8-42-49.5-84.1-73.2-126.7c-7.2-12.9-15.9-17.5-30.4-17.3
		C-9619.7,575.9-9667.7,575.2-9715.6,575.7z M-9493.2,730.1c-10.5,0-18.2,0-28.3,0c4.8-8.5,8.9-15.7,14-24.6
		C-9502.5,713.9-9498.5,720.9-9493.2,730.1z M-9713.4,397.1c4.4-7.9,8.4-15.1,13.7-24.5c5.2,9.1,9.2,16,14.1,24.5
		C-9695.5,397.1-9703.4,397.1-9713.4,397.1z M-10136.6,892.1c-11.5-19.9-22.6-37.5-31.5-56.1c-2-4.2,3-12.7,6.3-18.4
		c60.7-105.3,121.7-210.4,182.5-315.6c74-128,147.9-256.1,221.9-384.1c1.4-2.5,3.3-4.7,6.6-9.3c55.3,95.7,109.6,189.8,166.2,287.8
		c-24.4,0-44.8,0.7-65-0.6c-4-0.2-8.5-7.3-11.3-12.1c-24.4-41.7-48.6-83.6-72.8-125.4c-12.2-21.2-23-21.4-35.2-0.3
		c-43.4,75.2-86.3,150.8-130.3,225.6c-7.7,13.1-6.3,22.5,0.8,34.6c37.9,64.9,75.1,130.2,112.5,195.4c2.4,4.1,4.4,8.5,8,15.4
		c-22.4,0-41.9,0.6-61.4-0.5c-4.5-0.2-10-5.5-12.6-9.9c-25.6-43.3-50.6-86.9-76-130.3c-10.5-18-21.7-18-32.1,0.1
		c-55.3,95.5-110.5,191-165.8,286.5C-10128.7,880-10131.9,884.7-10136.6,892.1z M-9270.1,905.4c-1.6,2.6-7.8,3.1-11.9,3.1
		c-19.6,0.3-39.1,0.1-58.7,0.1c-250.6,0-501.1,0-751.7,0c-5.7,0-11.4,0-19.8,0c56.4-97.6,111.5-193,168.2-291.2
		c12,20.8,23.2,39.2,33.1,58.4c1.7,3.2-1.6,10-4,14.3c-24.5,42.8-49.3,85.5-73.9,128.2c-11.6,20.1-6.6,29,16.6,29
		c87.6,0.1,175.2-0.2,262.8,0.3c13.1,0.1,20.6-5.2,26.8-16c39.1-68.3,78.5-136.3,117.9-204.4c1.4-2.5,3-4.9,5.7-9.3
		c11.4,19.6,22.5,37.6,32.2,56.4c1.9,3.7-0.8,11.1-3.3,15.6c-24.3,42.9-49.2,85.6-73.8,128.3c-11.6,20.1-6.5,29.1,16.6,29.1
		c111.1,0.1,222.2,0.1,333.3,0.1c4.9,0,9.7,0,18,0C-9248,868.2-9258.6,887.1-9270.1,905.4z"/>
</g>
<g id="wwqayU_1_">
</g>
<g>
	<path d="M-8403.9,571.7c-17.9-47-35.7-94-53.7-140.9c-1.4-3.7-1.7-9.6-6.8-9.3c-4,0.2-4.4,5.7-5.7,9.2
		c-16.1,42.4-32.1,84.8-48.2,127.1c-1.5,3.9-3.2,7.8-5.8,13.8c-18.5-48.7-36-95-53.7-141.2c-1.3-3.4-1.7-8.7-5.9-8.9
		c-4.7-0.3-4.8,5.1-6.1,8.5c-18.1,47.3-36.1,94.6-54.2,142c-0.9,2.5-2,5-2.4,7.6c-0.2,1.2,0.5,3.4,1.4,3.7c1.1,0.4,3.3-0.2,4-1.1
		c1.5-2.1,2.4-4.7,3.3-7.2c16.2-42.7,32.4-85.4,48.7-128.1c1.4-3.6,1.4-8.2,6.1-10.9c17.2,45.5,34.2,90.7,51.5,135.8
		c1.7,4.4,1.8,11.9,7,12.1c6.5,0.4,6.2-7.6,8-12.1c17.4-45.1,34.4-90.4,52.3-137.8c2.4,5.6,3.9,8.7,5.1,11.8
		c16.1,42.4,32.2,84.7,48.3,127.1c1.1,2.8,2,5.8,3.4,8.5c0.9,1.8,2.9,2.9,4.8,1.9c0.9-0.5,1.4-2.7,1.2-4
		C-8402,576.6-8403,574.1-8403.9,571.7z"/>
	<path d="M-8215.9,428.8c8.7,4.2,16.1,10.1,23,16.8c1.7,1.6,3.8,3.7,5.8,2c2.9-2.3,0.7-4.7-1.1-6.7c-1.3-1.4-2.7-2.7-4.1-4
		c-28.8-26.8-71.9-30.8-106-9.8c-32,19.7-47.7,60.1-37.7,96.6c10.7,38.9,44.1,64.4,81.9,64.4c24.1,0.6,42.9-6.8,59.3-20.5
		c3.4-2.9,10.8-6.3,6.9-11c-3.9-4.6-7.4,2.7-10.5,5.3c-30.3,25.8-75.9,26.2-105.2,0.7c-31.6-27.5-37.7-72.3-14.6-106.6
		C-8295.7,422.6-8252.5,411.1-8215.9,428.8z"/>
	<path d="M-8852.8,498.4c-10.3-0.1-20.6,0-30.9,0c-9.9,0-19.9-0.5-29.8,0.1c-7.9,0.5-10.6-1.8-10.3-10c0.6-19.8,0.3-39.6,0.1-59.5
		c0-3.1,1.8-8.4-2.6-8.6c-5.6-0.3-3.8,5.5-3.8,8.9c-0.2,19.4-0.5,38.9,0.1,58.3c0.2,8.3-1.6,11.3-10.6,11
		c-19.8-0.7-39.7-0.3-59.5-0.2c-3.2,0-8.3-1.3-8.4,3.3c-0.1,4.7,5.1,3.4,8.2,3.5c20.2,0.1,40.5,0.4,60.7-0.1
		c7.6-0.2,9.7,2.3,9.5,9.7c-0.5,19.4-0.3,38.9-0.1,58.3c0,3.8-2.1,10.4,3.5,10.2c5.5-0.2,2.9-6.9,2.9-10.6c0.3-18.7,0.7-37.4-0.1-56
		c-0.5-10,3-12,12.2-11.7c19.4,0.7,38.9,0.2,58.4,0.2c3.3,0,8.4,1.1,8.6-3.2C-8844.5,497.6-8849.6,498.5-8852.8,498.4z"/>
	<path d="M-9078.9,425.8c-3.7-6.6-6.8-6.3-10.3,0c-21.6,39.4-43.3,78.8-64.9,118.1c-6.1,10.5-12.2,21.1-18.3,31.6
		c-1.5,2.6-3.6,6.3-0.2,8c3.3,1.7,5-2.2,6.5-4.9c5.7-10.7,11.5-21.5,17.3-32.2c21.4-38,42.9-76.1,65-115.2
		c4.2,7.4,7.5,13.3,10.8,19.3c23.5,42.3,47,84.6,70.6,126.8c1.5,2.7,2.6,8,6.7,6.1c4.5-2,1-6-0.5-8.7
		C-9023.8,525.1-9051.4,475.5-9078.9,425.8z"/>
	<path d="M-8371.2,420.8c-5,0.3-2.8,6.2-2.8,9.6c-0.2,23.6-0.1,47.3-0.1,70.9c0,24-0.1,48.1,0.1,72.1c0,3.4-2.2,9.2,2.8,9.6
		c5.3,0.4,3.9-5.6,3.9-9c0.1-48.1,0.1-96.1,0-144.2C-8367.4,426.3-8365.9,420.4-8371.2,420.8z"/>
	<path d="M-8739.9,415.7c-47.6,0.2-85.7,38.5-85.6,86.2c0,48.5,38,86.2,86.6,86.2c48.8-0.1,86.4-37.9,86.1-86.5
		C-8653.1,452.9-8691.1,415.4-8739.9,415.7z M-8740.7,581.2c-44.1-0.5-78.7-36.9-77.8-81.8c0.8-42.7,37.1-77.3,80.6-76.8
		c44,0.5,78.9,36.2,78.2,80.2C-8660.4,547.7-8695.6,581.7-8740.7,581.2z"/>
</g>
<g>
	<path d="M-7223.7,443.6c34-39.6,37.9-76.7,11-120.9c-10.3-16.9-22.3-32.8-33.5-49.1c-14.8-21.6-24.7-44.1-26.5-71.4
		c-4.4-67.5-41.9-111.4-104.3-135.1c-7.7-2.9-16.1-4.3-24.7-6.5c15.8,17.6,31.2,33.1,44.6,50.1c13.9,17.6,12.2,36.8,0.8,55.4
		c-14.5,23.5-37,35.1-62.8,42.1c-32.9,8.9-65.9,17.3-98.5,27.3c-30.7,9.4-32.8,13.8-28.9,45.1c1.2,9.3,2,18.6,3.6,27.8
		c6.5,37.2-2.4,66.8-37.6,86.6c-29.7,16.7-57.9,36.1-86.8,54.3c-14,8.8-28.1,17.5-42.4,26.3c3.3,0.8,9.2,4.1,14.3,3.2
		c14.4-2.7,28.8-6.1,42.5-11c11.6-4.2,19.9-0.2,25.7,8.4c2.4,3.5,2,12.5-0.8,15.5c-28.1,30.7-86.6,21.4-106.3-17.1
		c5.1-2.9,11-5.1,15.2-9c3.6-3.4,5.3-8.8,7.8-13.3c-4.3-1.7-8.5-3.9-12.9-4.9c-4.7-1.1-9.8-1.9-14.4-1.2c-8.4,1.4-16.6,3.9-24.8,6.3
		c-5.4,1.5-10.6,3.6-15.8,5.5c-1-5-3.6-10.3-2.8-15.1c3.8-22.7,9.2-45.2,12.7-68c1.6-10,1.6-20.7-0.2-30.6
		c-2.5-13.5-9.1-26.3-10.9-39.9c-2-15.2-0.5-30.8-0.5-46.2c-15.4,27.3-25.2,54.4-4.4,83c3,4.2,3.6,11.3,2.9,16.8
		c-3,22.3-7,44.5-10.5,66.8c-5.4,34.6,1.5,48.9,31.8,66.6c11.4,6.6,23.8,11.8,34.5,19.4c4.6,3.3,7.9,11,8.1,16.9
		c0.2,4-5.2,9.6-9.5,12.2c-13.2,7.9-27.9,13.4-40.4,22.1c-18.7,13-28.2,31.9-29.3,55.6c25.2-21.2,52.3-36.4,90-39.6
		c-24,18.1-44.9,32.9-64.7,49.1c-20.3,16.6-34.8,37-32.7,66.3c13.8-26.4,37.4-37.4,64.2-41.4c30.6-4.5,59.8-10.3,76.8-40.2
		c0.1-0.1,0.8,0.1,2.2,0.4c-2.5,7.1-4.9,14.1-7.3,21c31-28.9,68.9-40.7,107.6-51.1c-0.7,1.9-1.7,3.1-3.1,3.8
		c-78.8,43.9-150,98-218.1,157c-42.3,36.6-87.5,70.2-133.1,102.8c-32.5,23.2-68.6,31.8-109.4,18.7c-25.9-8.3-57-6.7-71.9,18.2
		c-9.1,15.3-22.8,29.5-26.9,48.2c-3.3,15,2.8,44.8,11.9,46.8c29.2,6.4,54.1,25.1,88.4,18.3c29.8-5.9,62.3,2.4,93.6,3.6
		c28.4,1.1,58.1,0.7,80.3-18.5c83.7-72.2,182.3-107.1,290.2-118.9c54-5.9,95.7-30,126.7-74.1c9.2-13.1,19.3-25.5,29.2-38
		c27.5-34.7,62.6-57.3,107.1-61.9c21-2.2,42.3-0.4,63.5-0.4c0.5-1.6,0.9-3.3,1.4-4.9c-9.5-4.5-18.6-10.1-28.4-13.5
		c-75.2-25.8-163.1-0.9-214.9,59.3c-14.3,16.6-29.8,32.6-47.2,45.8c-30.3,23-66.4,34.9-103.3,41.6
		c-97.5,17.7-180.7,61.1-249.3,132.5c-13.7,14.2-31.4,21.7-50.8,19.5c-29.1-3.3-57.8-9-86.7-13.7c-0.5-1.8-1.1-3.6-1.6-5.4
		c30.9-16.1,72.5-10.1,97.6-41.3c-2.8-0.8-4.4-1.8-5.8-1.5c-30.2,5.5-60.3,11.5-90.6,16.7c-17,2.9-26.5,12-28.4,29.2
		c-0.6,5.4-2.7,10.6-4.6,17.9c-12.1-17.9-11-33.1,3.1-42.4c8.9-5.9,19.7-9.4,30.1-12.7c30.3-9.6,63.5-13.6,90.5-28.7
		c56.5-31.7,111.5-66.8,163.9-104.9c77.5-56.3,150.1-119.3,233.9-166.8c87.3-49.5,174.8-98.2,277.7-107.9c16.8-1.6,33.5-5,50.3-7.6
		c0.2-2.1,0.3-4.2,0.5-6.3c-21.2-5.1-42.3-10.3-55.7-13.5C-7244.1,469.5-7234.4,456.1-7223.7,443.6z M-8095.3,945.9
		c-0.9-8.1-3.8-15.2-1.9-20.7c5.8-16.6,22.2-24.9,40.3-22.2C-8068.7,916.2-8080.5,929.4-8095.3,945.9z M-7583.9,470
		c24.5-32.5,47.2-62.6,70.5-93.5C-7500,424-7516,444.3-7583.9,470z M-7506.2,528.1c43.7-71.8,53-149.8,42.7-232.7
		C-7410.2,369.5-7427.7,466.3-7506.2,528.1z M-7357.7,471.2c8.6-16.7,20.6-33.3,26.2-51.9c11.2-37.6-3.7-71.5-22.7-103.1
		c-13.5-22.6-29.3-43.9-44-65.7c37.5,22.6,71.7,48.7,88.4,91.1C-7292.3,386.4-7317.9,454-7357.7,471.2z M-7307.6,485.9
		c-0.2-1.6-0.4-3.1-0.5-4.7c13.5-16.4,28.6-31.8,39.9-49.6c10.9-17.3,17.7-37.1,26.2-55.4c-1.5,35-11.3,68.7-31.6,97.7
		C-7279.2,481.9-7296,482.1-7307.6,485.9z"/>
	<path d="M-7877.5,457.6c4.9-12.2,3.7-30.1-7.5-49.4c-18.3-31.4-27.2-65.7-36-100.4c-4.3-17,1-28.7,11.8-41.8
		c14.5-17.6,31.1-36.3,37.1-57.3c13.2-46.4,49.1-74.9,77.7-109.6c-11.6,29.6-25.3,58-40.7,85.5c-15.6,27.8-33.8,54.1-49.2,81.9
		c-12,21.8-18.5,46.7-7,69.8c22,43.8,28.9,89.2,29,137.9c0.1,33.5,24.6,57.9,50.7,78.5c-19.5-23.2-18-48.8-11.1-75.5
		c2.5-9.5,3.6-19.4,5.2-29.2c6.2-37.1-7.8-70.5-20.6-103.8c-7.9-20.6-6.8-39.6,3.6-58.6c6.9-12.5,15.2-24.5,20.5-37.6
		c11-27.3,21-55,30.1-83c4.7-14.5,5-30.5,9.8-44.9c10.7-31.8,38.4-54.8,66.1-53.8c33.4,1.1,65.5,8.9,94.1,27
		c36.5,23.2,41.6,43.6,24,83.1c-6.2,14-9.3,29.3-14.5,46.1c7.1,0,8.6,0.5,9.2-0.1c36.1-30.5,74-59.2,107.5-92.3
		c19.3-19.1,13.1-56.4-20.7-65c-26.1-6.7-52.1-13.7-77.5-22.5c-13.7-4.7-28.2-11.2-38.7-20.8c-28.6-26.2-62.6-29.9-93.8-6.4
		c-25.4,19.1-53.2,32.4-83.9,41c-21.6,6-42.6,14.6-63.2,23.6c-21.6,9.4-34.1,26.4-37.7,50.4c-6.3,41.6-18.2,81.2-42.2,116.7
		c-13.9,20.7-14.6,44.5-8.4,68.4C-7940,369.5-7920.5,420.4-7877.5,457.6z"/>
	<path d="M-7539.2,33.2c18.4,3.9,38.1,8.4,53.6,18.3c45,28.7,44.3,73,0.1,102.7c-26.5,17.8-53.3,35-79.7,53
		c-6.3,4.3-11.3,10.5-16.9,15.9c6.8,3.7,11.6,4.6,15.9,3.6c41.8-9.5,83.8-18.3,125-29.7c18.1-5,36.1-13.6,51.5-24.2
		c21.6-14.9,24.8-36,10.5-57.7c-9.9-15.1-20.9-30-33.7-42.6c-58-57.2-124.9-86.9-213.2-59.7c10.6,5.4,18.1,11.5,26.3,13
		C-7579.6,29.1-7559,28.9-7539.2,33.2z"/>
	<path d="M-7650.4,151.1c12.8,4.9,19.2,13.6,19,27.7c-0.1,8.9,1.4,17.8,2.1,26.6c1.7,0.3,3.4,0.5,5.1,0.8
		c16.4-15,23.3-35.4,28.5-56.5c4.1-16.6-1.1-29.6-16.8-36.8c-18.4-8.5-36.8-17.5-55.9-23.8c-43.2-14.3-70.7,1.5-84.2,45.2
		c-7.3,23.5-16.2,46.5-25.2,69.5c-6.7,17.2-14.6,33.9-21.9,50.8c29.2-28.9,57.2-58.4,82.7-89.9
		C-7698.5,141.7-7675.5,141.4-7650.4,151.1z"/>
	<path d="M-7599.9,242.5c-8.6,4.9-15.5,11-22.3,17.2c-5.2,4.8-9.7,13.4-15.4,14.3c-23.9,3.8-36.8,23.1-54.7,35.2
		c-13.5,9.2-27.3,19.1-45.8,13c-1.9-0.6-8.4,6.2-9.2,10.3c-5.3,28.3,7,51.4,27,77.2c0.8-21.1,1.4-38.1,2.1-55
		c9.5,1.1,19.1,2.2,31.7,3.6c-3.1,19-6.2,37.5-9.2,56.1C-7657.5,359.9-7622,304.9-7599.9,242.5z M-7706,345.2
		c-4.6,1.7-8.2,5.9-12.2,9.1c0,0,0-0.1,0-0.1c0.2-4.2-1.1-10.8,1-12.2c12.1-7.9,25-14.5,40.9-23.4
		C-7682.9,335.2-7693.7,340.7-7706,345.2z"/>
</g>
<g>
	<path d="M-6252.3,291.2c0-11.9-3.4-23.2-7.6-34.1c-8-20.6-19.3-39.5-31.7-57.7c-20.8-30.5-44.5-58.7-70.1-85.3
		c-23.1-23.9-47.5-46.3-74.2-66.2c-18.8-14-38.4-26.7-60-36.1c-12.1-5.3-24.6-9.3-37.8-11.1c-1.2-0.2-2.4-0.4-3.6-0.6
		c-163.5,0-327,0-490.5,0c0,333.3,0,666.7,0,1000c27.3,0,54.6,0,82,0c230.1,0,460.2,0,690.3,0c1,0,2,0,3.3,0c0-1,0-1.8,0-2.6
		C-6252.2,762-6252.2,526.6-6252.3,291.2z M-6352.2,195.1c-29.4-7.2-59.2-10.2-89.5-10.5c0.8-29.7-0.7-59.1-7.6-88.7
		C-6413,125.6-6381,158.7-6352.2,195.1z M-6298.4,950.7c0,1,0,2,0,3.2c-227.8,0-455.5,0-683.3,0c0-302.6,0-605.1,0-907.9
		c0.9,0,1.7-0.1,2.5-0.1c142.5,0,285,0,427.4,0c21.3,0,36,10.5,45.9,28.7c6.9,12.8,10.9,26.5,13.6,40.7c2.7,14.3,4,28.7,4.6,43.3
		c0.7,17.7,0,35.3-2.2,52.9c-0.8,6.3-1.5,12.7-2.2,19c-0.1,0.7,0,1.4,0,2.3c11.2-0.7,22.3-1.4,33.3-1.9c17.3-0.8,34.6,0,51.9,1.7
		c19.4,1.9,38.5,5.2,56.9,11.5c11.7,4,23,8.9,32.7,16.8c12.6,10.2,19,23.2,19,39.5C-6298.4,517.2-6298.4,734-6298.4,950.7z"/>
	<path d="M-6634.2,681c-2.2,10.3-6.7,19.3-15.3,25.7c-12.5,9.3-26.8,10.7-41.5,7.9c-16.4-3.1-27.4-13.3-34.4-28.1
		c-4.9-10.3-7-21.4-7.7-32.7c-0.9-14.8,0.7-29.2,6.4-42.9c5.8-14.2,15.3-25,30.3-29.8c11.6-3.7,23.5-3.4,35.1,0.1
		c15.2,4.6,24.7,14.7,27.8,30.4c0.4,2.2,1.2,2.8,3.3,2.8c18.3-0.1,36.6,0,54.9,0c0.9,0,1.7,0,2.8,0c0-1,0.1-1.7,0-2.4
		c-0.8-5.2-1.2-10.5-2.5-15.6c-5.4-21.5-18.2-37.8-36.4-49.8c-29.2-19.1-61.2-24.3-95.1-16.8c-25.8,5.7-46.7,19.2-62.7,40.3
		c-14.6,19.4-22.1,41.5-24,65.5c-1.6,19.5,0.4,38.7,7.1,57.2c11.9,32.8,33.7,56.2,66.8,68.2c24,8.7,48.7,9.1,73.4,3
		c19-4.6,35.5-13.7,48.8-28.2c12.9-14.1,20.2-30.9,23.3-49.6c0.7-4.2,1-8.5,1.5-12.9c-20.4,0-40.4,0-60.5,0
		C-6633.4,675.8-6633.7,678.4-6634.2,681z"/>
	<path d="M-6405.6,608.6c-12.7-10.5-27.5-14.4-43.8-13.7c-16.9,0.8-30.7,7.5-41,21c-0.2,0.3-0.6,0.5-1.2,1c0-25.9,0-51.5,0-77
		c-17.4,0-34.7,0-52,0c0,73,0,145.7,0,218.4c16.6,0,33,0,49.7,0c0-6.1,0-12.1,0-18.2c0.4,0.2,0.5,0.3,0.6,0.4c0.4,0.5,0.7,0.9,1,1.4
		c3.8,5.2,8.4,9.6,13.8,13.1c13.3,8.5,27.8,9.5,42.8,6.8c22.1-4,37.2-17.2,46.9-37.1c5.8-12,8.7-24.8,9.7-38.1
		c1.2-14.9,0.2-29.6-4.5-43.9C-6387.8,629.4-6394.7,617.6-6405.6,608.6z M-6438.2,709.2c-5.3,9.1-13.3,13.9-23.9,13.9
		c-14.8-0.1-24.2-7.1-28.1-21.5c-4.2-15.4-4.9-31,0.6-46.3c3.6-10.1,10.6-17.2,21.4-19.7c14.1-3.2,26.3,2.9,32.4,16
		c3.8,8.2,5.1,16.9,5.2,26.4C-6431,688.6-6432.5,699.4-6438.2,709.2z"/>
	<path d="M-6876.4,758.3c20.1,0,40,0,60.1,0c0-20.1,0-40,0-60.1c-20.2,0-40.1,0-60.1,0C-6876.4,718.3-6876.4,738.3-6876.4,758.3z"/>
</g>
<g>
	<path d="M-5526.4,427.1c-1-0.8-2-1.6-3-2.4c-6.4,4.8-12.7,9.7-19.1,14.5c-17.5-20.5-43.7-18.1-61.3-10.6
		c-49,20.7-61.3,91.7-22.7,128.2c15.1,14.3,30.8,28.4,44.4,44c18.5,21.3,5.9,54.8-21.5,60.2c-17.1,3.4-32.7-3.8-42.2-19.4
		c-11.5-18.9-14-39.4-10.2-60.8c-8-3.6-11.7-1.2-12.7,6.6c-1.1,8.2-2.5,16.3-3.8,24.4c-2.8,18-5.7,36.1-8.7,55.3
		c14.2-0.5,14.8-14.3,21.3-18.3c12.7,7.2,24.6,14,36.6,20.7c8,0,16,0,24,0c14.7-4.2,26.9-12.1,37.7-22.8
		c28.3-28.1,38.6-91.3-3.2-123.6c-11.2-8.7-21.3-19-30.8-29.6c-5.8-6.4-11-14.2-13.9-22.3c-5.1-14.2,3.9-30.3,19-36.9
		c14.2-6.3,28.5-2,36.7,12.2c4,7,7,15,8.4,22.9c1.9,10.9,1.9,22.2,2.8,33.5c7.2,2.8,10.2-0.1,11.1-7.2c0.8-6.8,2.3-13.6,3.4-20.4
		C-5531.6,459.2-5529,443.2-5526.4,427.1z"/>
	<path d="M-5713.5,523c-11.5-8.8-21.6-19.6-31.4-30.3c-5.4-5.9-10.2-13.1-13-20.6c-5.3-14.2,3.3-30.2,18.3-37.3
		c13.8-6.5,28.1-3.1,36.3,10.6c4.9,8.2,8,18,9.9,27.4c2,9.8,1.5,20.2,2.1,30.7c3.1,0,5.9,0,9.9,0c4.3-25.5,8.6-50.9,12.8-76.3
		c-1.2-0.8-2.4-1.6-3.7-2.5c-6,4.9-12.1,9.7-18.4,14.8c-14.9-17.8-34.6-19.1-55.2-13c-53.1,15.7-69.6,92.4-28.6,130.7
		c15,14,30.1,28,43.8,43.3c13.9,15.4,10.4,42.3-5.3,54c-17,12.6-42.9,9.2-54.9-8.4c-5.5-8-10.1-17.4-12.1-26.7
		c-2.7-12.3-2.4-25.3-3.5-38.4c-6.8-2.3-10-0.2-10.9,7.9c-1.8,15-4.8,29.9-7.2,44.8c-1.7,10.9-3.1,21.8-4.8,33.3
		c14.5,0,14.2-14.8,21.4-18.1c12.3,7.4,23.5,14.1,34.7,20.8c8.7,0,17.3,0,26,0c10.8-6.1,22.8-10.9,32.3-18.6
		C-5680.9,623.2-5670.4,555.9-5713.5,523z"/>
	<path d="M-5138.8,429.9c-2.4,0.9-5.9,1.8-7.7,0.7c-14.2-8.5-29.7-9.3-45.4-8c-21.4,1.7-40.1,9.2-53,27.3
		c-12.3,17.3-10.8,34.3,4.9,48.5c6.3,5.7,13.7,10.3,20.9,15.1c11.9,7.8,24.4,14.8,35.8,23.2c10,7.4,9.5,19.7,0.2,27.9
		c-24.6,21.7-68.9,8.5-76.7-23c-1.6-6.3-1.9-12.8-3-20c-2.4,0.5-6,0.5-6.4,1.5c-6,17.9-11.5,36-17.3,54.4c13,3.1,15.8-9.7,24.1-12.3
		c36.5,22.4,82.8,18.8,109.5-8.5c22.3-22.8,20.2-48.1-6.1-65.9c-12-8.2-25.1-14.8-37.5-22.5c-5-3.1-9.8-6.8-13.9-11
		c-5.5-5.6-5.2-12,0.1-17.7c11.4-12.4,26.5-13.4,41.5-10.9c12.6,2.1,19.8,11.6,22.8,23.6c1.6,6.6,2,13.5,2.9,20.4
		c6.3,2.7,8.7-0.6,10.4-6.1c4-13.5,8.4-26.8,12.6-40.3c0-1.3,0-2.6,0-4C-5126.2,424.8-5132.4,427.6-5138.8,429.9z"/>
	<path d="M-5810.5,573.6c-0.4-0.8-0.8-1.6-1.2-2.3c-5.1-0.4-10.2-0.9-16-1.3c5.7-49.1,11.3-97.4,16.9-145.9
		c-19-2.3-33.8-2.2-47.6,14.7c-33.8,41.6-70.4,80.9-106.2,120.9c-4.4,4.9-10.6,8.2-15.9,12.2c-0.7-0.8-1.4-1.7-2.1-2.5
		c4.3-12.6,8.6-25.2,13-38c-9-1.3-9.1-1.4-13.2,5.5c-12.8,21.4-29.6,36.3-56.5,35.8c-18.2-0.4-29.3-12.5-24.4-29.7
		c8.7-30.7,18.5-61.1,28.9-91.2c2.4-7.1,8.2-13.8,14.2-18.7c11.4-9.3,25.6-9.8,38.8-4.9c12.7,4.8,19.8,15.1,19.9,29.2
		c0,5.8,0,11.6,0,17.2c6.6,2.2,9.4-0.6,10.9-6.5c2.2-8.9,5.2-17.7,7.7-26.5c1.6-5.8,3.1-11.6,4.6-17.4c-0.8-0.7-1.7-1.3-2.5-2
		c-5.3,3.2-10.7,6.5-14.9,9.1c-8.6-3.2-16.4-7.1-24.6-8.9c-22.5-5-44.4-0.7-65.5,7.3c-32.7,12.4-58.9,32.3-69.2,67.3
		c-10.9,36.9,4.4,64.5,41.3,76.2c25.7,8.2,51,7.7,73.6-3.1c5.9,3.3,10.2,7.7,14.9,8.1c11.9,1.1,24,0.6,35.9,0.1
		c2.8-0.1,5.6-3,8.3-4.6c-0.4-0.8-0.9-1.6-1.3-2.3c-4.2-0.4-8.3-0.7-14.2-1.2c1.6-3.7,2.3-6.5,4-8.6c6.2-7.8,12.7-15.3,19.1-22.8
		c1.2-1.4,2.9-3.6,4.5-3.6c15.8-0.3,31.6-0.2,47.9-0.2c-1.3,12.5-2.5,23.9-3.6,34.3c-5.4,3.9-15.3-2.5-15.4,9.3
		c27.9,0,55.2,0.1,82.4-0.2C-5815.5,578.1-5813,575.2-5810.5,573.6z M-5878,508c-3,20.9-3.3,20.9-25.3,20.9c-6.5,0-13.1,0-22.5,0
		c17.7-20.6,33.6-39,49.5-57.3c0.6,0.1,1.3,0.2,1.9,0.4C-5875.5,483.9-5876.2,496-5878,508z"/>
	<path d="M-5294.6,537.6c-16.2,24.7-37.8,38.3-69.8,32.2c7.2-23.6,14.3-47,21.3-70.2c19.9,1.3,23.8,5.5,26.7,29.9
		c3.4-2,7.5-3.1,8.3-5.3c6.3-18.4,12.1-37.1,17.9-55.5c-7.6-2.7-11,0.3-14.5,5.9c-9.6,15.5-22,21.2-36.3,17.6
		c4.7-15.8,9.4-31.5,14.1-47.3c4.6-15.5,4.6-15.5,21.5-14.9c18,0.7,28.9,11.3,30.1,29.1c0.2,2.6,0.4,5.1,0.7,9.5
		c4.1-1.3,9.7-1.6,10.5-3.6c4.9-13.4,8.7-27.2,13.2-42c-47.4,0-93-0.1-138.6,0.2c-2.4,0-4.8,2.5-7.2,3.8c0.4,0.8,0.8,1.6,1.2,2.5
		c4.5,0.3,9.1,0.6,14.1,0.9c-0.7,2.6-1,4.5-1.6,6.4c-12.4,41.6-24.9,83.2-37,124.8c-2,6.8-4.8,10.2-12.2,9.1
		c-4.9-0.7-9.6-0.1-7.5,7.5c46.2,0,92.4,0.1,138.6-0.2c2.2,0,5.6-2.4,6.2-4.4c4.5-13.7,8.4-27.5,12.4-41.2
		C-5289.5,528.9-5291.8,533.2-5294.6,537.6z"/>
	<path d="M-5460.8,570.3c0.1-1.3,0-2.3,0.2-3.2c13.1-43.8,26.4-87.6,39.3-131.4c1.8-6.2,5.9-5.5,10.6-6c3.1-0.3,6-2.2,9.1-3.3
		c-0.4-1.1-0.8-2.2-1.2-3.3c-28.2,0-56.5-0.1-84.7,0.2c-2.2,0-4.5,2.6-6.7,4c0.3,0.7,0.7,1.5,1,2.2c4.2,0.3,8.4,0.6,13.3,1
		c0,1.9,0.2,2.9,0,3.8c-13,43.2-26.2,86.3-38.9,129.5c-1.6,5.5-4,7.6-9.6,7.1c-4.8-0.5-9.7-0.3-8.2,7.5c28,0,56,0.1,83.9-0.2
		c2.5,0,5-3.2,7.4-4.9c-0.5-0.7-1-1.5-1.5-2.2C-5451.4,570.8-5456,570.5-5460.8,570.3z"/>
</g>
<g>
	<path d="M-5099.3,0c0,1.7,0.1,3.3,0.1,5c0,329.6,0,659.3,0,988.9c0,1.6,0,3.3,0,5.1c96.5,0,192.7,0,289.8,0c-5-1.7-9.3-3-13.6-4.6
		c-33.4-12.4-58.8-34.2-76-65.4c-14.6-26.6-20.3-55.3-16-85.2c7.6-52.8,36.3-90.5,85-112.5c17.8-8,36.6-11.2,56-11.4
		c20-0.2,40,0,60-0.1c3.1,0,4,1,4,4c-0.1,16-0.1,32,0,48c0,3.2-1.1,3.9-4.1,3.9c-19.1-0.1-38.2,0-57.3-0.1
		c-39.2,0-74.3,27.7-83.3,65.9c-10.4,44.3,14.8,88.3,58.4,102c8.1,2.5,16.4,3.7,24.9,3.8c18.9,0,37.7,0,56.6,0
		c4.6,0,4.7,0.1,4.7,4.6c0,14.3,0,28.6,0,43c0,1.3,0,2.6,0,4.1c13.6,0,26.7,0,40.2,0c0.1-1.5,0.2-2.9,0.2-4.3c0-90,0-180.1,0-270.1
		c0-4.1,0.4-4.7,4.1-4.7c15.9,0,31.8,0.1,47.6,0c2.4,0,3.9,0.7,4.9,3c20.6,44.9,41.4,89.8,61.9,134.8c4.8,10.5,8.7,21.3,13.1,32
		c0.4,1,0.8,2,1.6,3.8c1.5-3.9,2.6-7.2,3.9-10.3c13.2-30.6,26.4-61.3,39.8-91.9c10-22.8,20.2-45.4,30.2-68.1c1-2.3,2.4-3.4,5-3.4
		c16.2,0.1,32.4,0.1,48.6,0c3.3,0,4.1,1.3,4.1,4.3c-0.1,50.3-0.1,100.6-0.1,150.9c0,27.1,0,54.2,0,81.3c0,1.4,0.2,2.8,1,4.4
		c1.2-3,2.5-6,3.7-9c13.6-35.5,27.2-71,40.8-106.5c12-31.3,23.9-62.5,35.8-93.8c3.5-9.2,7.2-18.4,10.6-27.6c1-2.8,2.6-3.9,5.6-3.9
		c15.8,0.1,31.5,0.1,47.3,0c2.9,0,4.4,1,5.4,3.7c13.4,35.5,26.8,70.9,40.3,106.3c14.7,38.8,29.5,77.5,44.2,116.2
		c6.3,16.7,12.7,33.4,19,50.1c0.8,2.1,1.8,3.1,4.2,3c15.6-0.1,31.3,0,46.9,0c0-333.1,0-666.2,0-999.3C-4433.1,0-4766.2,0-5099.3,0z
		 M-4528.1,189.9c3.8-10.2,7.7-20.3,11.6-30.5c6-15.7,12.1-31.5,18-47.2c1.9-4.9,1.8-5,7.1-5c2.9,0,5.8,0.2,8.7-0.1
		c2.7-0.2,4,1,4.9,3.4c9.6,25.3,19.2,50.5,28.7,75.9c2.8,7.5,2.7,7.5-5.4,7.5c-0.7,0-1.3,0-2,0c-8.2,0-9.3,0-11.6-5.8
		c-0.3-0.8-0.7-1.8-1.1-2.9c-0.9-2.4-1.8-4.8-2.5-7.2c-0.7-2.4-1.9-3.4-4.5-3.3c-8.1,0.2-16.2,0.1-24.3,0c-2.1,0-3.2,0.7-3.9,2.7
		c-1.5,4.4-3.1,8.8-4.6,13.2c-0.8,2.3-2,3.5-4.6,3.3c-3.9-0.2-7.8,0-11.7,0C-4529.1,193.9-4529.4,193.5-4528.1,189.9z
		 M-4460.8,296.8C-4460.8,296.8-4460.8,296.8-4460.8,296.8c0,13-0.1,26,0,38.9c0,3.1-0.9,4.2-4,4c-3.3-0.2-6.7-0.2-10,0
		c-3.1,0.2-4-1.1-4-4.1c0.1-20.9,0-41.7,0-62.6c0-5.5,0.1-11.1,0-16.6c0-2.6,1-3.6,3.6-3.5c3.4,0.1,6.9,0.2,10.3,0
		c3-0.2,4.1,0.9,4,4C-4460.9,270.2-4460.8,283.5-4460.8,296.8z M-4649,107.2c10.6,0.3,21.3,0,31.9,0.8c17.2,1.3,29,11.6,32.8,28.6
		c2.5,11.5,2.5,23-2.5,33.9c-7.3,15.9-20.8,22.4-37.4,23.3c-8.4,0.5-16.9,0-25.3,0.1c-2.7,0-3.7-1-3.7-3.7c0.1-13.3,0-26.6,0-39.9
		c0,0,0,0,0,0c0-13,0.1-26-0.1-38.9C-4653.3,108.2-4652.2,107.1-4649,107.2z M-4659.7,253c0.2,0.3,0.4,0.6,0.5,1
		c-0.6,0.9-1.2,2-1.9,2.8c-6.8,8.1-13.5,16.2-20.4,24.2c-1.5,1.7-1.6,2.9-0.5,4.9c9.2,16.3,18.4,32.6,27.5,49
		c0.7,1.2,1.2,2.5,2.1,4.3c-1.5,0.2-2.5,0.5-3.5,0.5c-4.7,0.1-9.3-0.1-14,0.1c-2.6,0.1-4-0.9-5.3-3.1c-6.2-11.3-12.5-22.4-18.9-33.7
		c-0.7-1.2-1.5-2.4-2.6-4.1c-4.4,5.2-8.5,10-12.4,14.9c-0.6,0.8-0.5,2.3-0.5,3.5c0,6.2-0.1,12.4,0,18.6c0.1,2.7-1,3.8-3.7,3.7
		c-3.4-0.2-6.9-0.2-10.3,0c-3.2,0.2-4.2-1.1-4.2-4.2c0.1-19.1,0.1-38.2,0.1-57.3c0-6.9,0-13.8,0-20.6c0-4.5,0.1-4.6,4.7-4.6
		c3.1,0,6.2,0.2,9.3,0c3-0.2,4.2,0.9,4.1,4c-0.1,8.4-0.1,16.9-0.1,25.3c0,1.8,0,3.7,0,5.5c0.3,0.1,0.6,0.2,0.9,0.3
		c3.5-4.2,7-8.4,10.5-12.7c5.5-6.7,10.9-13.5,16.5-20c1.1-1.3,3.3-2.3,5-2.4C-4671,252.8-4665.4,253-4659.7,253z M-4748,182.5
		c9.2-23.9,18.4-47.7,27.4-71.7c1-2.6,2.3-3.7,5.1-3.6c3.3,0.2,6.7,0.2,10,0c2.6-0.1,4,0.8,4.9,3.3c8.7,23.2,17.6,46.4,26.4,69.6
		c1.4,3.6,2.7,7.3,4.1,10.9c0.8,2.1,0.1,2.9-2,2.9c-4.8,0-9.5-0.1-14.3,0.1c-2.5,0.1-3.1-1.7-3.7-3.5c-1.5-4.2-3-8.4-4.3-12.6
		c-0.7-2.2-1.8-3.2-4.3-3.2c-8.1,0.1-16.2,0.2-24.3,0c-2.7-0.1-3.7,1.2-4.4,3.3c-1.4,4.2-3,8.4-4.3,12.6c-0.7,2.3-1.9,3.4-4.5,3.3
		c-5-0.2-9.9,0-15.9,0C-4750.6,189.5-4749.3,186-4748,182.5z M-4838.2,115.7c0-8.4,0-8,8.5-8.6c6.2-0.4,9.8,1.6,13.2,6.9
		c9.1,14.5,18.9,28.5,28.4,42.7c0.6,0.9,1.2,1.7,2.4,3.3c0-3.4,0-5.8,0-8.1c0-13.4,0-26.9,0-40.3c0-4.2,0.1-4.3,4.3-4.3
		c3.4,0,6.9,0.1,10.3,0c2.1,0,3,0.8,3,3c-0.1,2.9,0,5.8,0,8.7c0,23.4,0,46.9,0,70.3c0,4.7,0,4.7-4.8,4.8c-11.3,0.1-11.2,0-17.6-9.5
		c-9.4-14.1-18.9-28.2-28.3-42.3c-0.4-0.5-0.8-1-1.8-2.2c0,6.3,0,11.6,0,16.9c0,11.1-0.1,22.2,0.1,33.3c0,2.9-0.8,4-3.8,3.8
		c-3.3-0.2-6.7-0.3-10,0c-3.2,0.2-3.9-1.1-3.9-4.1C-4838.2,165.2-4838.2,140.4-4838.2,115.7z M-5012.3,148.8
		c0.9-17.6,10-30.4,26.1-37.9c6.1-2.8,12.5-3.7,19.1-3.7c5.1,0,10.2,0.1,15.3,0c2.3,0,3.2,1,3.2,3.2c-0.1,3.8-0.1,7.5,0,11.3
		c0,2.4-1,3.4-3.4,3.4c-5-0.1-10,0.2-15-0.1c-16.1-0.7-26.6,13.3-26.6,24.9c0,15.2,10.9,26.6,26.2,26.9c5.1,0.1,10.2,0.1,15.3,0
		c2.3,0,3.6,0.8,3.5,3.2c-0.1,3.8-0.1,7.5,0,11.3c0,2.2-1.1,3-3.1,3c-3.4,0-6.9,0-11.8,0c-9.1,0.7-19.2-0.5-28.3-6.4
		C-5005.9,178.9-5013.1,165.6-5012.3,148.8z M-4948.5,485.5c-6.9,0-6,0.7-8.3-5.9c-1.3-3.7-2.7-7.3-3.9-11c-0.6-1.8-1.5-2.4-3.4-2.4
		c-8.4,0.1-16.9,0.1-25.3,0c-2,0-3,0.7-3.6,2.6c-1.4,4.4-3.2,8.7-4.6,13.2c-0.8,2.5-2,3.7-4.7,3.6c-5-0.2-10.1,0-15.9,0
		c2.2-5.9,4-10.9,6-15.9c8.5-22.1,17-44.2,25.3-66.4c1.3-3.5,3.1-5,6.8-4.6c2.7,0.3,5.6,0.3,8.3,0c3.2-0.4,4.5,1.2,5.5,3.9
		c4.8,12.8,9.6,25.5,14.5,38.2c5.2,13.8,10.4,27.6,15.7,41.3c0.3,0.8,0.5,1.7,1.1,3.5C-4940,485.5-4944.3,485.5-4948.5,485.5z
		 M-4930.9,302.5c0,11.1-0.1,22.2,0,33.3c0,2.8-0.8,4.1-3.8,3.9c-3.4-0.2-6.9-0.2-10.3,0c-2.8,0.1-4-0.8-4-3.8
		c0.2-12.6,0.2-25.3,0.2-37.9c0-1.4,0-2.8-0.6-4.4c-7.2,15.8-14.4,31.5-21.6,47.3c-0.4,0.1-0.7,0.2-1.1,0.3
		c-7.5-15.5-14.3-31.3-22.3-46.8c0,1.5,0,3,0,4.5c0,12.2-0.1,24.4,0,36.6c0,3.1-1,4.4-4.2,4.2c-3.5-0.2-7.1-0.1-10.7,0
		c-1.8,0-2.7-0.7-2.6-2.6c0-2,0-4,0-6c0-24.3,0-48.6,0-72.9c0-5.2,0-5.2,5.3-5.2c2.4,0,4.9,0.2,7.3-0.1c3.5-0.4,5.1,1.2,6.5,4.2
		c6.7,15.1,13.5,30.1,20.3,45.2c0.3,0.6,0.7,1.1,1.2,2c2.7-6.1,5.2-11.9,7.7-17.7c4.6-10.3,9.1-20.7,13.8-31c0.6-1.2,2.5-2.4,4-2.6
		c3.5-0.4,7.1,0,10.6-0.2c3.3-0.2,4.2,1.2,4.1,4.3C-4930.9,272.3-4930.9,287.4-4930.9,302.5z M-4929.5,193.9
		c-4.2-0.1-4.5-0.5-2.9-4.5c6.2-16.1,12.4-32.3,18.6-48.4c3.8-10,7.7-20,11.4-30.1c1-2.7,2.5-3.9,5.4-3.7c3.4,0.2,6.9,0.1,10.3,0
		c2.2-0.1,3.4,0.8,4.2,2.9c5.9,15.6,11.8,31.1,17.7,46.6c4.2,11,8.3,22,12.5,32.9c1.4,3.8,1.1,4.2-2.9,4.2c-2,0-4,0-6,0
		c-8.8-0.2-9,1.1-10.6-3.5c-0.1-0.4-0.3-0.8-0.4-1.2c-0.2-0.7-0.5-1.4-0.8-2.3c-0.2-0.6-0.4-1.2-0.7-1.9c-1-2.6-1.7-5.3-2.9-7.8
		c-0.6-1.1-2.2-2.3-3.3-2.4c-8.5-0.2-17.1-0.2-25.6,0c-1.1,0-2.7,1.4-3.1,2.5c-1.8,4.4-3.4,8.9-4.9,13.4c-0.8,2.5-2.2,3.3-4.7,3.2
		C-4921.9,193.9-4925.7,194-4929.5,193.9z M-4858.7,463.1c-2.4,16.2-13.9,21.6-26,23.2c-2.5,0.3-5.1,0.3-7.6,0.4
		c-12.3,0-23.2-3.5-31.8-12.7c-2.1-2.2-2.5-3.9,0.2-5.9c2.9-2.2,5.5-4.8,8.2-7.3c1.4-1.3,2.6-1.3,4,0.1c6.9,7.1,15.7,9,25.1,7.7
		c2.8-0.4,6.1-2,8-4.1c3.3-3.7,1.4-9.5-3.6-11.3c-6.1-2.3-12.6-3.4-18.8-5.6c-5.1-1.8-10.5-3.6-14.6-6.9c-13.2-10.7-9-33.5,7.4-40
		c16.3-6.5,31.5-4,45,7.6c3,2.5,2.9,3.1,0.2,5.7c-2.6,2.6-5.3,5-7.9,7.6c-1.7,1.8-3,1.6-4.8,0c-6.4-5.6-13.7-7.9-22.2-6.1
		c-3.6,0.8-6.1,2.9-6.4,5.8c-0.4,3.3,0.9,5.7,4.7,7.1c4.7,1.7,9.6,2.6,14.3,4.2c5.2,1.7,10.7,3.3,15.4,5.9
		C-4860.9,443.5-4857.2,453.2-4858.7,463.1z M-4852.7,336.5c-1.7-4.3-3.3-8.7-4.6-13.1c-0.7-2.2-1.9-2.9-4.1-2.8
		c-8.1,0.1-16.2,0.1-24.3,0c-2.4,0-3.6,0.8-4.3,3.1c-1.4,4.4-3.1,8.8-4.6,13.2c-0.7,2.1-1.9,3-4.2,3c-4.2-0.1-8.4-0.1-12.6,0
		c-2.7,0-3.3-1.2-2.4-3.6c8.9-23.3,17.9-46.5,26.8-69.8c1.3-3.5,2.7-7,4-10.6c0.7-1.9,1.9-2.8,4-2.8c3.8,0.1,7.5,0.1,11.3,0
		c2.4-0.1,3.6,1.1,4.4,3.2c8.8,23.4,17.8,46.8,26.6,70.2c1.2,3.2,2.5,6.4,3.6,9.6c0.3,1,0.4,2,0.7,3.6c-6.2,0-12,0.1-17.7-0.1
		C-4851.1,339.4-4852.2,337.7-4852.7,336.5z M-4799,485.2c-3.4,0.8-7,1.1-10.5,1.7c-12.2,0.2-23.4-2.3-32.6-10.9
		c-0.9-0.8-1.7-1.7-2.5-2.6c-1.6-1.8-1.8-3.2,0.5-4.9c2.9-2.2,5.5-4.8,8.2-7.3c1.6-1.5,2.7-1.6,4.4,0c8.1,7.7,17.8,9.4,28.4,6.7
		c3.5-0.9,5.5-3.1,5.9-6.8c0.3-3.7-1.1-6.5-4.9-7.8c-6.2-2.1-12.6-3.4-18.8-5.6c-5-1.8-10.2-3.5-14.4-6.6
		c-11-8.3-10.5-26.9,0.7-36.2c7.7-6.5,16.9-7.9,26.6-7.3c9.7,0.7,18.2,4.5,25.4,11.2c2,1.9,2.2,3.2,0.1,5.1
		c-2.7,2.3-5.3,4.8-7.7,7.4c-2,2.2-3.6,2.1-5.8,0.1c-6.3-5.6-13.7-7.5-22-5.7c-3.5,0.8-6.1,3.1-6.3,6c-0.2,3.5,1.7,5.8,4.8,6.8
		c7,2.2,14.1,4,21.1,6.1c6.6,2,12.6,5.1,16.5,11.1C-4772.4,460.9-4781,480.8-4799,485.2z M-4767.8,336.6c-4-8.3-8.2-16.5-12.2-24.8
		c-1.1-2.3-2.5-3.3-5.1-3.2c-3.2,0.2-6.4,0.2-9.7,0c-2.5-0.1-3.5,0.7-3.4,3.4c0.2,7.9,0,15.8,0.1,23.6c0.1,3.1-1,4.2-4,4
		c-3.3-0.2-6.7-0.2-10,0c-3.1,0.2-4.1-1.1-4.1-4c0.1-6.5,0-13.1,0-19.7c0-6.6,0-13.1,0-19.7c0,0,0,0,0,0c0-13,0.1-26,0-39
		c0-3.2,0.9-4.5,4.4-4.5c12,0.2,24-0.1,36,0.1c8.3,0.1,15.9,2.1,22.4,7.9c10.6,9.3,11.9,35.8-5.7,44c-2.5,1.2-2.3,2.4-1.3,4.4
		c4.3,8.4,8.4,16.9,12.6,25.3c2.2,4.4,1.8,5.1-3.1,5.1c-3.9,0-7.8-0.1-11.7,0.1C-4765.1,339.8-4766.7,339-4767.8,336.6z
		 M-4695.5,466.9c-0.8,1.7-1.7,3.3-2.6,4.8c-6.7,10.3-17,15.1-30.1,15.1c-12.1-0.3-22-5-28.4-13.5c-1-1.3-1.9-2.6-2.7-4.1
		c-0.5-0.9-1-1.8-1.4-2.7c-1.1-2.3-2-4.9-2.6-7.6c-3.7-15-3.4-29.7,4.2-43.7c7.6-14,22.3-19.5,36.9-17.4c14.2,2,23.7,10.1,28.5,23.4
		C-4688.2,436.6-4688.4,452.1-4695.5,466.9z M-4654.9,458.5c6.5,12.7,22.1,14.1,30.4,2.6c2-2.7,3.3-3.2,6-1.2
		c2.7,1.9,5.7,3.5,8.6,5.1c2.1,1.2,2.7,2.5,1.4,4.8c-5.9,10.1-14.6,15.8-26.3,16.7c-6.6,0.5-13.1,0.2-19.3-2.5
		c-13.7-6-19.9-17.3-22.3-31.3c-0.6-3.5-0.7-7-0.9-9c0.2-14.6,3.3-26.4,12.8-35.9c8.6-8.6,19.2-11.3,31.1-10
		c10.9,1.2,19.2,6.4,24.8,15.9c1.5,2.5,1.2,3.9-1.5,5.1c-3.6,1.5-7.1,3.2-10.6,4.8c-1.6,0.7-2.8,0.8-4.1-0.7
		c-10.3-12-26.3-9.4-31.7,5.6C-4659.9,438.5-4659.9,448.7-4654.9,458.5z M-4607.6,339.7C-4607.6,339.7-4607.6,339.7-4607.6,339.7
		c-9,0-18-0.1-27,0.1c-3.1,0-4.4-0.8-4.3-4.1c0.1-26.3,0.1-52.6,0-78.9c0-2.7,0.9-3.8,3.7-3.8c17.9,0.1,35.7,0.1,53.6,0
		c2.7,0,3.5,1.1,3.4,3.6c-0.1,3.5-0.2,7.1,0,10.7c0.1,2.9-1.2,3.6-3.8,3.6c-11.5-0.1-23.1,0.1-34.6-0.1c-3.2,0-4.2,0.9-4.2,4.2
		c0.1,9.8,0,9.8,9.7,9.8c3.9,0,7.8,0.1,11.7,0c2.4-0.1,3.5,0.7,3.4,3.2c-0.1,3.5-0.1,7.1,0,10.7c0.1,2.7-1.2,3.7-3.8,3.7
		c-5.9-0.1-11.8,0.1-17.7-0.1c-2.5-0.1-3.3,0.9-3.3,3.3c0.1,4.4,0.1,8.9,0,13.3c-0.1,2.6,0.9,3.5,3.5,3.5c12.4-0.1,24.9,0,37.3-0.1
		c2.7,0,3.8,0.7,3.7,3.6c-0.2,3.4-0.2,6.9,0,10.3c0.1,2.7-0.8,3.7-3.6,3.7C-4589.2,339.6-4598.4,339.7-4607.6,339.7z M-4574.5,485.5
		c-3.3-0.2-6.7-0.2-10,0c-3,0.2-4.1-0.9-4-4c0.1-18.3,0-36.6,0-54.9c0-8,0.1-16,0-24c0-2.9,0.8-4.3,4-4.1c3.3,0.2,6.7,0.2,10,0
		c3.1-0.2,4.3,1,4.3,4.2c-0.1,6.6-0.1,13.2-0.1,19.8c0,6.6,0,13.2,0,19.8c0,3.2,0,6.5,0,9.7c0,6.5,0,13,0,19.5c0,3.2,0,6.5,0.1,9.7
		C-4570.2,484.6-4571.4,485.7-4574.5,485.5z M-4564.8,189.9c0.1-2.3,0-4.7,0-7c0-23.7,0-47.5,0-71.2c0-4,0.4-4.4,4.3-4.4
		c3.2,0,6.4,0,9.7,0c4,0,4.2,0.2,4.2,4.4c0,13.1,0,26.2,0,39.3c0,0,0,0,0,0c0,12.9,0,25.7,0,38.6c0,4.3-0.2,4.4-4.6,4.4
		c-3.2,0-6.4-0.2-9.6,0.1C-4563.9,194.2-4564.9,192.8-4564.8,189.9z M-4563.9,267.1c0.2-3.5,0.1-7.1,0-10.6
		c-0.1-2.6,1.1-3.5,3.6-3.5c8.5,0.1,17.1,0,25.6,0c11.3,0,22.6,0.1,33.9,0c3.1,0,4.5,0.9,4.3,4.1c-0.2,3.4-0.1,6.9,0,10.3
		c0.1,2.6-1,3.5-3.6,3.5c-5.4-0.1-10.9-0.1-16.3-0.1c-4.5,0-4.5,0-4.5,4.3c0,10,0,20,0,29.9c0,0,0,0,0,0c0,10.1,0,20.2,0,30.3
		c0,4.3-0.2,4.4-4.6,4.4c-3.2,0-6.4-0.2-9.6,0c-3.2,0.2-4.2-1.1-4.2-4.2c0.1-19.9,0.1-39.7,0.1-59.6c0-5.1,0-5.1-5-5.1
		c-5.2,0-10.4-0.1-15.6,0.1C-4562.7,270.9-4564,270.1-4563.9,267.1z M-4479.6,485.5c-10.4,0-10.4,0-13.8-9.8
		c-3.3-9.4-3.3-9.4-13.4-9.5c-5.7,0-11.3,0.2-17-0.1c-2.9-0.1-4.2,1-5,3.6c-1.3,4.3-3.1,8.5-4.5,12.9c-0.6,2-1.7,2.9-3.8,2.8
		c-5.3-0.1-10.5,0-16.5,0c1.7-4.6,3.1-8.3,4.5-11.9c8.9-23.4,18-46.7,26.8-70.2c1.4-3.8,3.3-5.4,7.3-4.9c2,0.3,4,0.1,6,0.1
		c5.8,0,5.8,0,7.8,5.3c10,26.3,20,52.6,30,78.9c0.2,0.6,0.4,1.2,0.8,2.7C-4473.8,485.5-4476.7,485.5-4479.6,485.5z M-4404.4,413.5
		c0.1,2.5-1.2,3.3-3.5,3.3c-5.7-0.1-11.3,0.2-17-0.1c-3.5-0.2-4.2,1.2-4.2,4.4c0.2,10,0.1,20,0.1,30c0,10.2-0.1,20.4,0,30.6
		c0,2.9-1,4-3.9,3.8c-3.5-0.2-7.1-0.2-10.6,0c-3,0.1-3.7-1.1-3.7-4c0.1-20,0.1-39.9,0-59.9c0-4.8,0-4.9-5-4.9c-5.3,0-10.7-0.1-16,0
		c-2.6,0.1-3.9-0.8-3.8-3.6c0.2-3.8,0.1-7.5,0-11.3c0-2.1,0.7-3.3,3.1-3.3c20.4,0,40.8,0,61.2,0c2.3,0,3.2,1.2,3.1,3.3
		C-4404.4,405.7-4404.5,409.6-4404.4,413.5z M-4372.5,485.5c-3.6-0.2-7.3-0.1-11-0.1c-2.2,0-3.2-0.8-3.2-3.1c0.1-26.7,0-53.5,0-80.2
		c0-2.5,0.9-3.7,3.5-3.6c3.2,0.1,6.4,0,9.7,0c4.8,0,4.9,0,4.9,4.7c0,13,0,26,0,39c0,0,0,0,0,0c0,13.1-0.1,26.2,0.1,39.3
		C-4368.5,484.5-4369.4,485.7-4372.5,485.5z M-4372.2,339.8c-8.3,1.2-13-2.3-17.2-9.2c-8.9-14.5-18.8-28.5-28.3-42.7
		c-0.4-0.6-0.9-1.2-1.9-2.4c0,16.9,0,33,0,49.2c0,4.8,0,4.8-4.8,4.9c-3.2,0-6.4-0.1-9.7,0c-2.6,0.1-3.5-1-3.5-3.5
		c0.1-21.2,0.1-42.4,0.1-63.6c0-5.2,0.1-10.4-0.1-15.6c-0.1-2.8,0.7-3.9,3.7-4c13.2-0.3,13.2-0.4,20.6,10.7
		c8.6,12.9,17.2,25.8,25.8,38.7c0.5,0.8,1.2,1.5,2.7,2.2c0-1.9,0-3.8,0-5.7c-0.1-14-0.2-28-0.4-41.9c-0.1-3.1,1.1-4.2,4.1-4
		c3.4,0.2,6.9,0.2,10.3,0c2.7-0.1,3.6,1.1,3.5,3.6c0,0.9,0,1.8,0,2.7c0,25.1,0,50.2,0,75.2C-4367.2,339.6-4367.3,339-4372.2,339.8z
		 M-4360.2,126.2c0,21,0,41.9,0,62.9c0,4.8-0.2,4.2-4.8,5c-8.7,1.4-13.5-2.4-17.9-9.7c-8.7-14.3-18.5-27.9-27.8-41.8
		c-0.4-0.6-1-1.1-2.2-2.5c0,2.6,0,4.2,0,5.8c0.1,14.5,0.2,29.1,0.3,43.6c0,4.3-0.2,4.5-4.5,4.4c-3.2,0-6.4-0.1-9.7,0
		c-2.8,0.1-3.7-1.1-3.7-3.8c0.1-9.4,0-18.9,0-28.3c0-16.8,0-33.5,0-50.3c0-4.1,0.3-4.3,4.3-4.4c2.6,0,5.1,0.3,7.6-0.1
		c3.9-0.5,6,1.3,8,4.4c10.3,15.7,20.8,31.2,31.2,46.8c0.3,0.4,0.6,0.8,1.3,1.6c0-2.3,0-4,0-5.8c0-14.3,0.1-28.6-0.1-42.9
		c0-3,1-4.2,4.1-4.1c3.3,0.2,6.7,0.1,10,0c2.7-0.1,3.8,0.9,3.8,3.7C-4360.3,116-4360.2,121.1-4360.2,126.2z M-4343.5,270.9
		c11.1-20.7,35.4-23.3,51.2-14.8c6.3,3.4,10.3,9,13.2,15.4c0.3,0.7-0.4,2.7-1.1,3c-4.2,2-8.5,3.8-12.9,5.3c-0.8,0.3-2.7-0.5-3.1-1.3
		c-4.1-7.5-10.5-10-18.5-8.6c-7.9,1.4-12.3,6.7-14.4,14c-3.3,11.1-3.1,22,3.7,31.9c5.2,7.7,16.4,9.8,24.4,5.2c3.4-2,5.3-5.1,5.6-10
		c-3.4,0-6.6-0.1-9.8,0c-2.3,0.1-3.2-0.9-3.2-3.1c0.1-3.7,0.1-7.3,0-11c0-2,0.9-2.7,2.8-2.7c8.7,0.1,17.3,0,26,0.1
		c1,0,2.7,1.2,2.7,1.9c0.4,9,0.6,18-3.4,26.4c-5.6,11.8-15.5,17.3-28.1,18.2c-23.9,1.7-37.8-14.7-40.6-34.8
		C-4350.6,293.8-4349.5,282-4343.5,270.9z M-4278.5,464.1c-5.6,14.6-19.6,23.3-35.3,22.7c-20.6-0.8-32-15.7-35-31.9
		c-0.8-4.1-1-8.3-1.5-12.5c0.3-10.8,2.3-21,8.5-30c8.5-12.1,20.5-16.4,34.6-14.4c17.6,2.5,28.6,14.4,31.5,32.1
		C-4273.7,441.7-4274.2,453-4278.5,464.1z M-4190.7,485.5c-12.1,0-12.1,0.1-18.9-10.2c-9.3-14-18.6-27.9-27.9-41.8
		c-0.3-0.4-0.7-0.8-2-1.2c0,1.8,0,3.5,0,5.3c0.1,14.9,0.2,29.7,0.3,44.6c0,2.3-0.8,3.3-3.1,3.2c-3.7-0.1-7.3-0.1-11,0
		c-2.9,0.1-3.9-0.9-3.8-3.8c0.1-12.9,0-25.7,0-38.6c0-13.4,0.1-26.9,0-40.3c0-3.2,1-4.5,4.2-4.3c3.1,0.2,6.2,0.2,9.3,0
		c2.6-0.2,4.1,0.9,5.4,3c10.6,15.9,21.2,31.7,31.8,47.6c0.5,0.7,1,1.4,1.9,2.5c0-16.1,0-31.4,0-46.7c0-6.3,0-6.3,6.3-6.3
		c2.7,0,5.3,0.1,8,0c2.6-0.1,3.5,1,3.5,3.6c-0.1,5.2,0,10.4,0,15.6c0,21.2,0,42.4,0.1,63.6C-4186.5,484.5-4187.5,485.5-4190.7,485.5
		z"/>
	<path d="M-4285.5,794.1c-23.8,68.2-47.6,136.4-71.4,204.8c48.1,0,95.8,0,143.9,0c-23.9-68.6-47.7-136.8-71.4-204.9
		C-4284.9,794-4285.2,794.1-4285.5,794.1z"/>
	<path d="M-4613.5,999.1c23.7,0,46.9,0,70.6,0c-23.8-52.5-47.4-104.6-70.6-155.9C-4613.5,894.6-4613.5,946.8-4613.5,999.1z"/>
	<path d="M-4461.9,999c0-52.5,0-104.8,0-155.7c-23.1,51.1-46.7,103.3-70.4,155.7C-4508.8,999-4485.7,999-4461.9,999z"/>
	<path d="M-4772.8,271.1c-7.6-0.5-15.3-0.4-22.9-0.6c-2-0.1-2.4,1-2.4,2.7c0.1,5.3,0.1,10.6,0,16c0,2.1,0.9,2.7,2.8,2.7
		c3.3-0.1,6.7,0,10,0c0,0.1,0,0.1,0,0.2c4.3-0.2,8.7-0.1,12.9-0.7c5.5-0.7,8.2-4.5,8.2-10.3
		C-4764.3,275.2-4767.2,271.4-4772.8,271.1z"/>
	<path d="M-4635.3,150.6C-4635.3,150.6-4635.4,150.6-4635.3,150.6c0,5.4,0,10.9,0,16.3c0,10.1,0,10.2,10.2,9.5
		c9.4-0.7,17.4-3.9,21.3-13.3c3.3-8,3.1-16.3,0.6-24.4c-1.9-6.4-6.2-10.9-12.8-12.3c-5.2-1-10.5-1.1-15.8-1.6
		c-2.7-0.3-3.7,0.7-3.6,3.5C-4635.2,135.8-4635.3,143.2-4635.3,150.6z"/>
	<path d="M-4311.9,415.5c-7.4-0.1-13.2,3-15.9,9.8c-2.1,5.2-3,11-4.4,16.7c1.4,5.8,2.3,11.5,4.3,16.8c2.7,6.8,8.4,10.1,15.7,10.1
		c7.5,0,13.1-3.6,16-10.4c4.6-10.9,4.6-22.1-0.1-33C-4299.2,418.9-4304.6,415.5-4311.9,415.5z"/>
	<path d="M-4728.2,415.5c-7,0.1-12.3,3-15.2,9.3c-4.9,10.6-4.8,21.6-1,32.4c2.8,7.8,9,11.7,16.8,11.7c7.4,0,13.6-4.2,16.3-11.9
		c1.6-4.6,2.2-9.7,2.8-12.7c-0.5-8.2-0.9-14.3-4.1-20C-4716,418.2-4721.2,415.4-4728.2,415.5z"/>
	<path d="M-4521.1,449c6.2,0,11.7,0,17.9,0c-3-8.6-5.8-16.8-9-26C-4515.3,432.1-4518.1,440.3-4521.1,449z"/>
	<path d="M-4977.2,424.2c-2.8,8.1-5.6,16.3-8.5,24.8c6.3,0,11.8,0,17.9,0c-3-8.5-5.8-16.6-8.6-24.7
		C-4976.7,424.2-4977,424.2-4977.2,424.2z"/>
	<path d="M-4882.6,303c6.2,0,11.7,0,17.8,0c-3-8.7-5.9-16.8-9-25.7C-4876.8,286.3-4879.6,294.4-4882.6,303z"/>
	<path d="M-4487.8,132.7c-0.3,0-0.5,0-0.8,0c-2.8,8.1-5.6,16.2-8.5,24.6c6.2,0,11.9,0,17.9,0C-4482.2,148.8-4485,140.7-4487.8,132.7
		z"/>
	<path d="M-4892.2,132.8c-0.3,0-0.6,0-0.8,0c-2.7,8-5.5,16-8.4,24.4c6.3,0,11.9,0,17.8,0C-4886.6,148.7-4889.4,140.8-4892.2,132.8z"
		/>
	<path d="M-4710.9,131.6c-3.1,9.1-5.9,17.2-8.9,25.8c6.1,0,11.6,0,17.9,0C-4705,148.6-4707.8,140.5-4710.9,131.6z"/>
</g>
<path d="M-3081,650c-17.7,0-34.7,0-52.4,0c0,4.3,0,7.9,0,11.4c0.2,39.1,0.9,78.2,0.5,117.3c-0.1,14.2-1.4,28.7-4.7,42.5
	c-4.4,18.4-15.2,25.1-33.6,24.4c-14.4-0.5-24-8.3-26.8-26c-2.8-17.2-3.7-34.9-3.6-52.4c0.3-164.6,0.9-329.1,1.5-493.7
	c0.1-30.7-5.2-60.3-18.1-88.3c-24-52.1-61.9-88.8-118-104.7c-40.3-11.4-81.4-9.2-122.5-6.6c-26.2,1.6-52.1,5.9-75.8,17.4
	c-63,30.5-100.3,80.1-109.4,151.3c-0.4-3.5-0.8-5.9-1.1-8.4c-8.6-75.2-64.7-141.1-136.8-157.4c-86.1-19.5-195.8,5.1-249.1,118.1
	c-25.3,53.6-36.9,110.4-42.2,168.7c-8.8,96.6-9.7,193.3,1.5,289.8c6.1,52.6,16.8,104.1,39.4,152.5c26,55.7,65.4,96.9,126.3,114
	c15,4.2,30.5,6.4,45.8,9.5c16.3,0,32.6,0,49,0c12.3-2.8,24.9-4.8,36.9-8.7c47-15,77.1-48.2,96.4-92.2c5.5-12.4,9.9-25.3,15.2-39.1
	c1.8,9.7,3.1,18.3,5,26.9c8.9,40.4,34.1,68.7,69.4,87.4c19.3,10.2,41,16,61.7,23.7c1.8,0.7,3.5,1.3,5.3,2c17,0,33.9,0,50.9,0
	c6.6-1.7,13.1-3.3,19.7-5.1c42.3-11.9,71.1-40.5,94.2-76.1c4.8-7.3,9.1-14.9,14.3-23.3c3.3,9.9,5.9,19.1,9.5,27.9
	c16.9,41.8,46.5,68.2,92,75.1c1.2,0.2,2.3,1,3.4,1.6c16.3,0,32.6,0,49,0c2.5-0.7,4.9-1.6,7.4-1.9c50.6-6.9,81-33.4,93.5-82.7
	c3.4-13.2,6.2-26.9,6.5-40.4c1-49.5,0.9-99,1.1-148.5C-3080,654-3080.6,652.2-3081,650z M-3344.2,498.4c-0.3,56,0.6,112-1.4,167.9
	c-1.4,38.4-8.7,76.5-25.4,111.6c-6.6,13.9-15.1,27.6-25.4,39c-22.8,25.1-52.2,34.8-85.2,25.8c-32.2-8.8-45.9-34.9-51.5-65.3
	c-13.1-70.6,5.2-134,51.9-187.1c42.6-48.3,89.4-93,134.3-139.2c0.9,0.2,1.8,0.4,2.7,0.6C-3344.2,467.3-3344.2,482.8-3344.2,498.4z
	 M-3428.2,435c-29.5,20.9-60.5,39.6-91.3,58.7c-49.5,30.7-95.7,64.5-124,118.6c0-16.6,0-33.2,0-49.8c-25.2,0-48.9,0-73.9,0
	c0,4.4,0.2,8.2,0,12c-2.5,49.7-4.2,99.5-8.1,149.2c-2.1,26.6-9.9,52.3-21.1,76.8c-31.2,68-114.8,58.4-146.7,13.7
	c-20.4-28.6-31.2-61.1-35-95.2c-4.3-38.1-7-76.6-7.1-115c-0.1-84.4,0.2-168.8,3.6-253.1c1.6-40.1,8.5-80.3,17.1-119.6
	c10.3-47,58.8-83.2,106.9-84.2c54.1-1.1,94,27.3,109.8,79.2c3.6,12,4.6,24.8,6.3,37.3c0.5,3.3-0.9,6.8-1.3,10.2
	c-1.1,0.2-2.1,0.5-3.2,0.7c-2.6-4.7-5.3-9.3-7.9-14c-17.1-31-45.1-42.2-78.5-31c-25.3,8.4-36.3,29.1-41.6,52.7
	c-4.8,21.2-2.8,42.8,4.9,63.5c16.2,43.7,64.4,65.6,105.8,47.5c20.7-9,35-25.5,43.4-45.8c10.1-24.2,17.8-49.4,26.1-73
	c0.2,1.1,0.8,4.4,1,7.6c2.9,42,21.2,75.4,55.7,99.5c31.8,22.2,86.6,24.9,118.4-30.9c14.8-25.9,16.2-54.4,8.8-82.5
	c-6.3-23.9-23-41-47.6-45.7c-24.7-4.8-47.4,2.1-64.2,22.3c-5.8,6.9-10.4,14.8-18.2,22.6c-0.3-8-2.3-16.4-0.8-24
	c7.4-36.7,36.1-83.9,97.6-92.4c24.6-3.4,48.7-3.4,72.3,5.3c47.9,17.6,77.5,60.4,79.7,114.7C-3338.3,342.5-3371.9,395.1-3428.2,435z"
	/>
<g>
	<path d="M-2374.5,854c-2.9-4.5-4.1-7.5,1.9-11.2c9.8-6.2,11.7-16,9.1-26.9c-2.6-10.8-10.5-15.3-20.6-16.6
		c-5.4-0.7-10.9-0.1-16.4-0.5c-5.9-0.4-7.5,2.4-7.4,7.8c0.3,10.5,0.1,21.1,0.1,31.7c0,11.3,0,22.6,0,33.8c0,3.6,0.5,6.5,5.2,6.5
		c4.8-0.1,4.9-3.3,4.9-6.7c0-4.4-0.4-8.8,0.1-13.1c0.5-3.8-2.8-9.5,3.4-11.1c6.3-1.6,7.6,4.3,9.9,8.2c3.9,6.6,7.6,13.3,11.4,19.9
		c2.1,3.6,5.9,3.6,8.7,2.3c4.5-2.1,0.3-5-0.7-7C-2367.7,865.2-2371,859.5-2374.5,854z M-2390,838.7c-7.6-0.1-7.6-0.1-7.6-16.7
		c2.4-4.5-5.7-15.1,8.2-14.7c10.9,0.4,17,5.6,17.2,15.4C-2372.1,832.9-2378.7,838.9-2390,838.7z"/>
	<path d="M-2964.3,842.2c8.6-5.2,10.4-14.4,8.8-24.1c-1.7-10.2-7.9-16-17.8-18.3c-7.2-1.6-14.5-0.8-21.8-0.9
		c-3.7-0.1-5.1,1.9-5.1,5.4c0,22.9,0,45.9,0,68.8c0,3.5,1.3,5.4,5.1,5.4c4,0,4.7-2.5,4.7-5.7c0-5.8-0.1-11.7,0.1-17.5
		c0.1-3-1.2-6.9,3.7-7.8c3.9-0.7,6.1,1.4,7.8,4.6c3.8,7,8,13.9,11.7,21c2.9,5.6,6.7,6.9,13.2,3.8c-4.3-7.4-8.2-14.7-12.6-21.8
		C-2969.7,849.9-2971.4,846.4-2964.3,842.2z M-2981.8,838.8c-14.9,0.7-5.8-10.7-8.9-16c2.4-5.7-4.6-16.2,9.1-15.4
		c10.9,0.6,16.8,5.8,16.8,15.8C-2964.8,833-2970.9,838.3-2981.8,838.8z"/>
	<path d="M-2064.9,815.9c-7.9-16.5-22.5-17.6-38-17.2c-5.2,0.1-7,1.9-6.9,7.1c0.3,10.9,0.1,21.8,0.1,32.8s-0.1,21.8,0,32.8
		c0,2.7-0.8,5.7,3.2,7.1c9.3,3.3,28.7-1.3,35.8-8.9C-2059.5,857.7-2056.9,832.6-2064.9,815.9z M-2092.1,870.1
		c-5.5,0.2-8-1.8-7.9-7.5c0.2-8,0.1-16,0.1-24c0-8,0.2-16-0.1-24c-0.2-5.8,2.6-7.5,8-7.3c13.6,0.5,21.6,12,21.5,31.3
		C-2070.6,857.8-2078.8,869.6-2092.1,870.1z"/>
	<path d="M-2134,842.6c9.4-5.9,11.1-15.6,9-26c-2.1-10.3-9.1-15.6-18.9-17c-6.4-0.9-13.1-0.5-19.6-0.8c-4.2-0.2-5.7,1.9-5.7,5.9
		c0.1,22.6,0,45.1,0,67.7c0,3.1,0.3,5.8,4.5,6c5,0.3,5.1-3,5.1-6.4c0-5.5-0.1-10.9,0.1-16.4c0.1-3-1.1-6.9,3.5-8
		c4.4-1,6.7,1.5,8.6,5c3.7,6.7,7.7,13.2,11.1,20c2.8,5.6,6.6,7.3,13.4,4.5c-4.7-8.4-8.7-16.2-13.4-23.5
		C-2139.4,848.8-2139.6,846.2-2134,842.6z M-2150.9,838.8c-14.4,0.6-6.3-10.4-9.1-16c2.4-5.6-4.7-15.9,8.7-15.5
		c11.3,0.3,17.6,5.9,17.4,16.2C-2134,833.2-2140.1,838.3-2150.9,838.8z"/>
	<path d="M-2445.2,796.6c-9.7,0-17.2,4.3-21,13.1c-8.1,18.9-8.1,38.3-0.3,57.4c3.8,9.3,11.6,13.8,21.7,13.8
		c10.2,0,17.2-5.1,21.6-14.1c4.3-8.8,4.8-18.2,5-27.7c-0.3-9.9-0.6-19.7-5.1-28.8C-2427.8,801.2-2435.1,796.6-2445.2,796.6z
		 M-2432.6,864.5c-2.6,5.2-6.8,8.8-12.8,8.6c-5.6-0.2-9.8-3.6-11.6-8.6c-6.4-17.3-7-35,0.4-51.9c5.1-11.4,17.5-11,23.9-0.1
		c3.1,5.4,4.7,14.1,4.7,26.5C-2428.1,847.8-2428.5,856.5-2432.6,864.5z"/>
	<path d="M-2599.1,842.7c9.6-5.9,11.1-15.6,9.1-26c-2-10.4-9.1-15.6-18.9-17c-6.4-0.9-13.1-0.5-19.6-0.8c-4.2-0.2-5.7,1.9-5.7,5.9
		c0.1,22.6,0,45.1,0,67.7c0,3.1,0.3,5.8,4.4,6c5,0.2,5-3,5-6.4c0-5.5-0.1-10.9,0.1-16.4c0.1-3-1.2-7,3.4-8c4.3-1,6.7,1.4,8.7,4.9
		c3.7,6.7,7.7,13.2,11.1,20c2.8,5.6,6.6,7.4,13.4,4.6c-4.7-8.4-8.7-16.1-13.3-23.5C-2604.4,848.9-2604.8,846.2-2599.1,842.7z
		 M-2616.2,838.8c-8.5,0-8.5,0-8.5-16.9c1.8-4.8-4.9-15.1,8.5-14.5c11.3,0.4,17.5,6.1,17.3,16.3
		C-2599.1,833.3-2605.3,838.7-2616.2,838.8z"/>
	<path d="M-2196.2,805.2c-1-3.8-2.3-7.1-6.2-6.4c-4.1,0.3-7.6-0.6-8.9,3.9c-6.4,23.6-13,47.1-19.4,70.6c-0.6,2-1.4,4.5,1.9,5
		c2.6,0.4,5.4,0.6,6.5-2.5c1.3-3.8,2.1-7.7,3.3-11.6c0.9-3,1.2-6.2,5.4-7.4c13.3-3.8,21.6,0.6,25.6,13.9c0.3,1,0.7,2.1,0.9,3.2
		c0.8,4.3,3.8,5.1,7.3,4.5c5.2-0.9,2.4-4.6,1.8-6.8C-2183.9,849.5-2190.1,827.4-2196.2,805.2z M-2197.1,847.7
		c-5,0.4-10.2,0.5-15.1-0.3c-2.7-0.4-1.4-3.7-0.9-5.6c2.4-9.8,5-19.5,7.5-29.3c0.9,0,1.8-0.1,2.6-0.1c2.5,10,5.1,20.1,7.6,30.1
		C-2195,844.4-2194,847.4-2197.1,847.7z"/>
	<path d="M-2916,870.3c-17.4-0.6-17-0.3-17.3-17.1c-0.1-8,2-11.7,10.4-10.6c2.9,0.4,5.8,0,8.7,0c3.3,0,5.8-1,5.6-4.9
		c-0.2-3.7-3-3.5-5.6-3.6c-2.5-0.1-5.2-0.4-7.6,0c-9.2,1.4-11.9-2.5-11.6-11.5c0.6-15.2,0.1-15.3,15.5-15.3c2.6,0,5.1,0.1,7.7,0
		c3.2-0.1,7.1,0.8,7.4-4.1c0.3-5.3-3.8-4.3-6.9-4.4c-8.8-0.1-17.5,0.3-26.3-0.1c-6-0.3-7.4,2.5-7.2,7.8c0.3,10.6,0.1,21.1,0.1,31.7
		c0,4.4,0,8.7,0,13.1c0,27.2,0,27.4,27.1,27c4.8-0.1,13.5,3.3,13.8-3.4C-2901.9,866-2911.2,870.5-2916,870.3z"/>
	<path d="M-2859.9,803.3c-1.1-4.3-4.2-4.4-7.6-4.4c-3.5,0-6.4,0.5-7.5,4.6c-6.2,23.2-12.6,46.4-18.8,69.6c-0.5,2-1.8,4.4,1.6,5.1
		c2.5,0.5,5.4,0.8,6.5-2.3c1.5-4.1,2.6-8.3,3.7-12.6c0.8-3.4,1.9-5.8,6-6.7c15-3,20.4,0,24.9,14.8c0.5,1.7,0.9,3.6,1.9,5.1
		c1.7,2.6,4.4,2.1,6.9,1.6c2.6-0.5,2-2.5,1.7-4.3C-2847.1,850.4-2853.6,826.8-2859.9,803.3z M-2864.7,848c-4.3-0.7-12.4,3.3-11.9-4
		c0.7-10.5,4.7-20.7,7.8-32.7c5.1,11.5,7.8,21.3,10.3,31.2C-2857.1,848.5-2861.2,848.5-2864.7,848z"/>
	<path d="M-3034.9,804.8c9.8-1.6,12.9,6,15.2,13.8c0.1,0.3,0.2,0.7,0.3,1c1,2.9,3.1,3.9,6,3.4c3.7-0.7,3.1-3.4,2.7-5.9
		c-1.7-9.1-5.6-16.6-15.2-19.6c-9.9-3-20.3,0.6-26.2,8.9c-9.9,14-10.3,49.9-0.6,64.1c6.3,9.3,15.2,12.1,25.8,9.5
		c10.3-2.5,14.2-10.5,16.1-20c0.4-2.1,1-4.5-1.9-5.4c-2.7-0.8-5.2-0.3-6.3,2.6c-0.8,2-1.2,4.2-2,6.2c-2.1,5.5-5.9,9.6-12,9.5
		c-6,0-10.1-3.7-12.4-9.2c-3.4-7.9-3.6-16.3-3.9-24.7c0.4-5.4,0.3-11,1.3-16.3C-3046.7,814.8-3044.2,806.4-3034.9,804.8z"/>
	<path d="M-2259.6,804.6c8.9-0.9,12.2,6.4,14.2,13.9c0.1,0.4,0.2,0.7,0.3,1c0.9,2.9,3,4,5.9,3.5c3.7-0.6,3.2-3.3,2.7-5.9
		c-1.8-9.5-5.9-17.5-16.2-19.8c-10.1-2.3-18.8,0.4-25.1,9.1c-10,14-10.4,49.7-0.7,64c6.3,9.3,15.2,12.1,25.8,9.6
		c10.3-2.5,14.2-10.5,16.1-20c0.4-2.1,1-4.5-1.9-5.4c-2.7-0.8-5.2-0.3-6.3,2.6c-0.8,2-1.2,4.2-2,6.2c-2.1,5.5-5.9,9.6-12,9.5
		c-6-0.1-10.1-3.6-12.5-9.1c-3.4-7.9-3.6-16.3-3.9-24.7c0.4-5.4,0.3-11,1.2-16.3C-2272.4,814.4-2269.7,805.6-2259.6,804.6z"/>
	<path d="M-2540.1,870.3c-6.6-0.2-13.1-0.1-19.7-0.2c-2.8-0.1-6.6,0.5-7.1-3.3c-0.9-7.2-2.4-15.1,0.6-21.5c2.4-5.1,9.3-1.6,14.2-2.4
		c3.6-0.6,9.2,1.8,9.3-4.4c0.1-6.7-5.8-3.3-9.2-4.2c-1-0.3-2.2-0.2-3.3,0c-9.3,1.5-13.9-1.7-12.3-11.7c0.4-2.5,0.2-5.1,0-7.6
		c-0.5-5.9,2.5-7.7,7.9-7.4c5.8,0.2,11.7,0,17.5,0c2.9,0,4.9-1.1,5-4.5c0-3.7-2.5-3.9-5.2-3.9c-9.1,0-18.3,0.2-27.4-0.1
		c-5.7-0.2-7.7,1.8-7.5,7.5c0.4,10.9,0.1,21.9,0.1,32.8c0,5.5,0,10.9,0,16.4c0,5.5,0,10.9,0,16.4c0,3.5,0.1,6.7,5,6.6
		c10.6-0.1,21.2,0,31.8-0.1c2.2,0,4.5-0.3,4.7-3.3C-2535.4,872.1-2537,870.3-2540.1,870.3z"/>
	<path d="M-2670.5,870.2c-5.5-0.1-11-0.6-16.4,0c-12.3,1.5-10.2-6.8-10.3-13.9c-0.1-7.3-1.6-14.8,10.5-13.9
		c4.6,0.4,14.1,4.6,13.7-4.6c-0.3-7.1-9.1-3.5-13.8-3.3c-8.1,0.2-11.7-2.2-10.4-10.5c0.3-2.1,0.3-4.4,0-6.6
		c-1-7.5,1.8-10.9,9.7-10.1c5.1,0.5,10.2,0,15.3,0c3.4,0,5.7-1.2,5.5-5c-0.2-3.8-3.3-3.4-5.7-3.4c-9.1-0.1-18.3,0.2-27.4-0.1
		c-5.2-0.2-7.1,1.8-7,7c0.3,10.9,0.1,21.9,0.1,32.8c0,10.9,0,21.9,0,32.8c0,4,0.2,7.2,5.6,7.1c10.2-0.2,20.5,0,30.7-0.1
		c2.6,0,5.3-0.2,5.1-4C-2665.5,871.2-2667.7,870.2-2670.5,870.2z"/>
	<path d="M-2522.5,799.3c-3.3,1.8-2.3,5-2.3,7.8c-0.1,10.2-0.1,20.3-0.1,30.5c0,8.7-0.6,17.5,0.2,26.1c0.5,4.9-4.5,14,4.1,14.2
		c9.8,0.2,4.9-9.4,4.9-14.4c0-8.8,1.1-13.3,12-14c18.4-1.1,28-18.8,21-35.8C-2487.4,802.1-2511.8,793.3-2522.5,799.3z
		 M-2495.7,837.6c-4.6,4.2-11.1,5.9-16.3,3.6c-7.2-3.3-1.7-11.1-3.4-15.8c0-1.2-0.1-1.6,0-2c1.5-5.3-4-13.5,4.6-15.6
		c7.8-1.9,15.5,0.7,19.1,8.9C-2488.3,824.3-2489.3,831.8-2495.7,837.6z"/>
	<path d="M-2719.4,799.2c-2.4-0.5-5.3-1-6.6,2.1c-1,2.7-1.6,5.6-2.3,8.4c-4.5,18.3-8.9,36.7-13.4,55c-0.9,0.1-1.7,0.2-2.6,0.3
		c-2.5-10.1-5.1-20.2-7.6-30.3c-2.5-10.2-5-20.5-7.3-30.8c-0.9-4-3.2-5.3-7.1-5c-3.9,0.3-3.5,2.6-2.7,5.4
		c6.2,23.2,12.3,46.4,18.3,69.7c1.1,4.3,3.9,4.6,7.3,4.6c3.5,0.1,6.5-0.5,7.5-4.5c6-23.2,12.2-46.5,18.2-69.7
		C-2717.1,802.4-2716.2,799.8-2719.4,799.2z"/>
	<path d="M-2316.9,798.9c-11.7-0.1-23.4-0.1-35.1,0c-2.4,0-5.5-0.4-5.8,3.3c-0.3,3.8,2,5.7,5.4,5.1c13.3-2.3,14.2,5.4,13.4,15.4
		c-0.5,6.5-0.1,13.1-0.1,19.7c0,9.5-0.1,19,0,28.5c0,3.5-0.8,7.7,5,7.8c5.9,0.1,4.9-4.2,4.9-7.6c0.1-16.4,0.5-32.8-0.1-49.2
		c-0.3-9.7,0.4-16.8,13-14.3c3.2,0.6,5.8-0.6,5.8-4.6C-2310.7,798.2-2314.2,798.9-2316.9,798.9z"/>
	<path d="M-2801.9,798.9c-5.8-0.1-11.7,0-17.5,0c0,0,0,0,0,0c-5.1,0-10.2-0.3-15.3,0.1c-3.4,0.3-9.1-2.5-9.3,3.9
		c-0.2,6.4,5.6,4.7,9.1,4.4c7.8-0.6,9.9,2.7,9.8,10.1c-0.4,17.8-0.2,35.7-0.1,53.5c0,3.4-1.1,7.8,4.9,7.6c6-0.2,4.5-4.7,4.5-8
		c0.1-15.3,0.3-30.6,0-45.9c-0.2-10.3-1.5-20.5,14.3-17.4c2.8,0.6,4.8-1.2,4.8-4.4C-2796.7,799-2799.3,798.9-2801.9,798.9z"/>
	<path d="M-2777.2,839c0-10.9,0-21.9,0-32.8c0-3.8,0.1-7.5-5.5-7.3c-5,0.1-4.7,3.6-4.7,6.9c0,21.9,0,43.7,0,65.6
		c0,3.7-0.4,7.6,5.3,7.3c5.6-0.3,4.8-4.4,4.8-7.9C-2777.2,860.1-2777.2,849.5-2777.2,839z"/>
	<path d="M-2425.7,767c8.6,0,16.6-1.4,24-5.9c2-1.2,3.5-1.1,5.5-0.1c7.5,4,15.5,5.9,24,5.9c89,0,177.9,0,266.9,0
		c4.2,0,8.3-0.6,12.3-1.6c20.3-5.2,32.7-21.7,32.7-43.5c0-84,0-167.9,0-251.9c0-83.3,0-166.6,0-249.9c0-4.7-0.4-9.3-1.6-13.9
		c-5.4-20.2-21.8-32.3-43.9-32.3c-88.6,0-177.3,0-265.9,0c-8.6,0-16.9,1.7-24.5,5.9c-2,1.1-3.5,1.1-5.5-0.1
		c-6.9-4.2-14.5-5.8-22.5-5.8c-86.3,0-172.6,0-258.9,0c-11,0-21.1,3-29.5,10.5c-1.9,1.8-3.1,1.6-5-0.1c-8.7-7.7-19.2-10.5-30.5-10.5
		c-88.6,0-177.3,0-265.9,0c-27.3,0-45.7,18.3-45.7,45.5c0,167.4,0,334.8,0,502.2c0,4.4,0.6,8.6,1.7,12.8
		c5.3,20.2,21.8,32.5,43.7,32.5c88.3,0,176.6,0,264.9,0c12,0,23.1-2.7,32.3-10.9c1.6-1.4,2.7-1.4,4.2,0c9.2,8.3,20.3,10.9,32.3,10.9
		C-2595.6,767-2510.7,766.9-2425.7,767z M-2381.3,438.7c0.6-23.2,2.8-46.3,6.9-69.1c0,0,0,0,0,0c0.7-11.2,3.9-21.9,6.8-32.7
		c2.9-11.1,7-21.9,11.4-32.5c1.8-8.1,6.3-14.9,10.5-21.9c11.7-19.3,26.4-35.8,46.6-46.7c2.9-1.6,5.6-3.8,9.1-3.7c0,0,0,0,0,0
		c9-3.6,18.1-6.9,27.6-8.6c2.1-0.4,4.3-0.3,6.5-0.4c0,0,0,0,0,0c0,0,0,0,0,0c14.4-2.8,28.7-1.7,43.1,0c0,0,0,0,0,0c0,0,0,0,0,0
		c11.1,0,21.3,3.8,31,8.5c28.5,13.7,46.5,36.9,58.2,65.6c6.4,15.6,10.1,32,14,48.4c0.4,1.6,0.1,3.3,0.2,5v0c0.5,4.6,1.5,9.2,0.9,14
		c-0.4,3.2-1.6,5.1-5.4,5c-9.7-0.2-19.4-0.2-29.1,0c-4.1,0.1-5.7-2-6.6-5.4c-2-8.3-3.8-16.6-6-24.8c-4.5-17-10.6-33.4-20.5-48.2
		c-16-23.7-38.6-33.3-66.7-31.2c-2,0.1-4,0.3-6,0.4c0,0,0,0,0,0c-11.8,3.2-23,7.4-32.9,14.9c-14.8,11.1-24,26.1-31.3,42.5
		c-7.5,16.8-12.2,34.5-15.4,52.6c-0.1,0.5-0.5,0.9-0.7,1.3c-2.4,17.5-4.6,35.1-5.5,52.8c-1,20.4-0.7,40.7-0.2,61.1
		c0.5,21.1,3.5,41.9,6.7,62.7c0,0,0,0,0,0c2.7,9.8,5.1,19.6,8,29.2c5.7,18.8,14.3,36.2,27.6,51c10.2,11.4,23.2,18.2,37.9,22.1
		c0.7,0.2,1.3,0.4,1.9,0.7c0.3,0.1,0.5,0.2,0.8,0.3c7.3,0.8,14.7,1.4,22,0.8c0,0,0,0,0,0c5.4-0.9,10.7-1.8,16.1-2.8
		c5.3-3.4,11.3-5.3,16.7-8.6c12.3-7.7,19.7-19,26.7-31.1c5.4-9.3,8.2-19.6,11.7-29.7c0.6-1.7,0.6-3.6,2.2-4.9
		c3.1-8.1,4-16.6,6.1-24.9c0.6-2.5,0.3-6.5,4.8-6.3c10.7-2.1,21.5-1.8,32.3-0.5c3.3,0.4,4.8,2.5,4.9,5.8c0.2,5.4-1.1,10.6-2.1,15.8
		c-0.4,8.9-3.2,17.3-5.5,25.8c-5.5,20.1-14.4,38.6-26.6,55.5c-4.6,8.5-11.8,14.8-18.9,20.9c-15.4,13.2-33.8,19.6-53.4,23
		c-2.3,0.4-4.7,0.1-7,0.1c-12.7,1.7-25.3,0.1-37.9-1c0,0,0,0,0,0c0,0,0,0,0,0c-9.9,0.2-19-3.3-27.9-6.8
		c-27.6-10.8-47.3-30.3-61.4-56c-14-25.6-21.5-53.3-26.4-81.8c-0.5-3-1.2-5.9-0.8-8.9C-2380.7,503.8-2382.2,471.3-2381.3,438.7z
		 M-2816.9,298.4c-2.9-2.4-4.5-5.7-6.4-8.8c-7.2-11.9-18.8-17.9-30.8-23.5c-3.9-1.8-8.4-2.1-12-4.7c-5.4-2.4-11.1-0.7-16.6-1.1
		c-2.5-0.2-5,0.1-7.4,0.1c0,0,0,0,0,0c-14.4,4.2-27.8,10.3-39.2,20.3c-0.5,0.4-1.2,0.5-1.8,0.7c0,0,0,0,0,0
		c-6.5,8.7-13.5,17-18.5,26.7c-0.7,1.3-1,2.9-2.8,3.2c0,0,0,0,0,0c0,0,0,0,0,0c-3.2,4.9-5,10.5-6.6,16c-3.1,11-7.3,21.6-11.3,32.3
		c-0.7,14-4.1,27.7-5.4,41.6c-2.9,32.1-4.6,64.2-1.1,96.3c0.6,5.5,0.6,11,0.9,16.5c0.6,13.8,5.9,27,5.6,41c0,0,0,0,0,0
		c0.3,0.1,0.5,0.1,0.8,0.2c2.4,4.4,3.5,9.3,4.9,14c5.2,16.7,11.3,33,21.4,47.5c12.7,18.3,30.6,28.6,51.8,33.9
		c0.5,0.1,0.9,0.5,1.3,0.7c8.3,0,16.6,0,24.9,0c0,0,0,0,0,0c5.7-2.1,11.8-3,17.3-5.8c2.2-3.1,5.5-5.1,8.7-6.3
		c8.7-3.3,12.9-11,17.5-17.8c14.2-21.1,21.6-45.1,27-69.8c0.9-4.3,1.5-9.4,8.1-8.5c8.8-1,17.5-1.6,26.3-0.1c6.6,1.1,7.8,2.4,7.7,9.1
		c-0.2,8.2-2.8,16-4,24c0,0,0,0,0,0c-0.6,12.2-5.1,23.3-9,34.6c-6.8,19.7-17.6,36.7-33,50.8c0,0,0,0,0,0c-0.9,2.5-2.4,4.4-5.2,4.9
		c-1.4,1.3-2.7,2.6-4.1,3.9c0,0,0,0,0,0c0,0,0,0,0,0c-6.1,5.9-13.8,9.2-21.3,12.6c-9.1,4.2-18.7,7.1-28.8,7.4
		c-13.9,1.3-27.9,2.1-41.8-0.1c-5.4-0.8-10.7-2.6-16.2-3c0,0,0,0,0,0c0,0,0,0,0,0c-7.6,0.1-14.3-3.2-20.8-6.4
		c-14.2-7-26.8-16.2-37.4-28c-0.4-0.5-0.7-1.1-1.1-1.7c-12.8-15.4-21.6-33.2-30-51.2c-0.3-0.6-0.1-1.3-0.2-2
		c-6.8-23.2-12.9-46.6-15.4-70.7c-1.3-12.6-2.8-25.3-3.2-37.9c-1-32.9-1-65.8,2.5-98.7c1.3-12,4.8-23.5,6.1-35.5
		c-0.2-7.4,1.4-14.4,3.8-21.4c5.5-15.9,11.1-31.8,19.2-46.5c9.5-17.5,21.1-33.4,38.1-44.6c0,0,0,0,0,0
		c12.9-10.7,28.9-14.5,44.3-19.7c1.5-0.5,3.3-0.1,5-0.2c3.6-0.4,7.3-0.7,10.9-1.3c9.1-1.7,18.1-1.7,27.3,0.1
		c10.9,2.1,22.2,1.8,32.8,6.2c22.5,9.1,40.3,23.8,54.4,43.4c8.2,11.3,13,24,17.1,37.1c5.2,16.8,8.7,33.9,11.2,51.3
		c1.1,7.4-0.7,9.3-7.7,10.6c-9.2,1.8-18.3,0.6-27.4-0.1c-7-0.6-6-6.4-7.2-10.8c-3.7-10.4-8-20.7-10.2-31.6
		c-1.4-6.9-3.9-13.4-7.5-19.4c-0.8-1.3-1.7-2.5-1.4-4.1h0C-2815.3,303.1-2815.5,300.3-2816.9,298.4z M-2684.9,674.7
		c0.2-7.7,0.5-15.4,0.5-23.1c0-135.6,0-271.2,0-406.8c0-16.1,0.3-16.6,16.5-16.6c26.6-0.1,53.2-1,79.7,0.2
		c29,1.4,58.1,3.9,84.7,17.6c6.6,3.4,12.9,7,19,11.2c2.1,1.4,4,3.1,6.2,4.3c21.6,11.3,30.6,31.3,36.1,53.3
		c4.8,19.2,6.5,38.8,5.6,58.7c-0.4,8.3-3.4,16-4.1,24.2c0.5,7.4-2.3,14-4.7,20.7c-3.3,9-6.5,18.2-12.5,25.9
		c-1.6,2.1-3.5,4.1-5.5,5.8c-8.3,6.8-16.1,14.2-25.9,18.8c-1.2,0.6-2.2,1.5-3.3,2.2c0,0,0,0,0,0c-10.3,7.6-21.9,12.5-34.1,16
		c0,0,0,0,0,0c-6.4,3.1-6.7,3.8-3.1,10c11.3,20,22.6,39.9,33.9,59.9c0.6,1,0.8,2.2,1.2,3.2c0,0,0,0,0,0c1.7,3.8,5.2,6.6,6.1,10.9
		c0,0,0,0,0,0c6.5,9,11.1,19.1,16.5,28.7c2.1,3.7,5.3,6.9,5.4,11.5c0.3,0.7,0.7,1.4,1,2.1c1.9,0,2.1,1.8,3,3
		c9.7,13.1,16.2,28.1,24.1,42.2c0,0,0,0,0,0v0c0,0,0,0,0,0c0.1,0.2,0.3,0.3,0.3,0.5c3.6,5.2,7,10.5,8.5,16.7c0,0,0,0,0,0
		c0.5,3-0.3,5-3.8,5c0,0,0,0,0,0c-6.7,2.7-13.8,2.5-20.7,2.4c-6.1-0.1-12.4,0.1-18.4-1.6c-2.3,0.3-3.8-1-4.9-2.8
		c-6.5-10-12-20.5-17.3-31.2c-4.7-6.1-7.9-13.1-11.6-19.7c-16.8-29.9-33.4-60-50-90c-6.6-11.9-13.3-23.9-19.8-35.9
		c-1.9-3.5-4.4-6.1-7.9-7.9c-14.2,0-28.4,0-42.6,0c-0.5,0-1,0-1.5,0c-11.9,0.6-12.9,1.7-12.9,13.5c0,52.5,0,105,0,157.5
		c0,4.2,0.1,8.3-0.8,12.5c-0.7,3.1-2.2,4.7-5.3,4.9c-10.7,0.5-21.3,1.1-32-0.1C-2684.4,682-2685,678.7-2684.9,674.7z"/>
	<path d="M-2634.8,456.4c15.1,0.1,30.3-0.3,45.4,0.1c12.2,0.3,24.2-0.9,36-4c0,0,0,0,0,0c0,0,0,0,0,0c10.1-3.6,20-7.6,29.7-12.2
		c5.1-4.5,10.4-8.6,15.4-13.1c3.6-3.3,6.7-6.6,8.9-11c5.6-10.8,10.9-21.8,13.9-33.7c0,0,0,0,0,0c0,0,0,0,0,0
		c3.1-18.7,1.8-37.1-3.7-55.2c-4.1-13.6-12-24.8-22.8-33.8c-19-15.8-42-21.3-65.9-22.6c-20.4-1.1-40.9-0.2-61.4-0.3
		c-3.2,0-4.2,0.7-4.2,4.1c0.1,57.9,0.1,115.8,0.1,173.7C-2643.1,456-2642.7,456.3-2634.8,456.4z"/>
</g>
<g>
	<path d="M-1174.9,697.1c0-9.1,0.8-8.3-9.8-9.8c-1-0.1-2,0-3,0c-36.4,0-72.9,0-109.3,0c-7.8,0-8.7-0.9-8.7-8.9
		c0-39.1,0-78.2,0-117.4c0-6.2-1.3-7.5-7.5-7.6c-3.3-0.1-6.7,0-10,0c-15.6,0-31.3,0-46.9,0c-3.7,0-6,1-5.6,5.3
		c0.6,6.4-0.3,12.8-0.2,19.3c0.5,33.9,0.2,67.9,0.2,101.9c0,4.4-1.5,6.5-6.5,6.5c-20-0.2-39.9-0.1-59.9-0.1c-20.1,0-40.3,0-60.4,0
		c-2,0-4.7-0.7-5,2.6c-0.2,3.1-1.1,6.1-1.2,9.3c-0.4,9.9,0.9,19.7,0.3,29.6c-0.5,7.9,0.5,15.9,0.8,23.8c0.1,3.7,2.2,4.7,5.6,4.7
		c22.4,0,44.8-0.2,67.2,0.8c6.2,0.3,12.5-0.1,18.8,0.1c10.8,0.2,21.6,0.1,32.5,0.1c7.2,0,7.8,0.6,7.8,8c0,27.8,0,55.6,0,83.4
		c0,11.5,0,23,0,34.5c0,6,1,7,6.8,7c5.5,0,11,0,16.5,0c12.4,0,24.8,0.1,37.3,0.9c8.8,0.6,9.3-0.4,9.3-8.9c0-38.5,0-76.9,0-115.4
		c0-8.4,1-9.6,9.2-9.4c15.2,0.3,30.5,0.1,45.8,0.7c23.3,1,46.6,0.2,69.9,0.3c4.6,0,6.1-1.9,6-6.3
		C-1175,733.7-1175,715.4-1174.9,697.1z"/>
	<path d="M-1473.9,500.7c10.8-15.8,21.4-31.7,33.7-46.4c9.3-11.1,18.5-22.3,28.4-32.8c8.5-9,17.4-17.8,26.4-26.3
		c3.6-3.4,4.6-7.2,4.8-11.8c0.3-8.6-0.8-17.2-1-25.8c-0.7-29.4,1.2-58.8-1-88.2c-0.3-4.2-1.7-6.4-6.2-6.5
		c-11.8-0.2-23.6-0.6-35.4-0.8c-70.8-1.1-141.7,0.6-212.5-1c-61.5-1.4-123,0.9-184.6-1c-21.1-0.7-42.3-0.1-63.4-0.1
		c-6,0-7.3,1.3-7.4,7.2c0,7.2-0.1,14.3,0,21.5c0.3,14.1,0.2,28.2,0.5,42.3c0.2,10-0.1,20.2-0.5,30.4c-0.3,9.8-0.1,19.6,0.8,29.5
		c0.7,7.6,1.5,9,9.1,9.1c66.7,0.6,133.4-0.7,200.1,0.8c45.8,1,91.5,0.2,137.3,0.2c2.2,0,4.6-0.2,5.6,2.1c0.9,2.1-0.9,3.5-2.1,5
		c-3.2,4-6.6,7.8-9.7,11.8c-14.7,19.4-29.9,38.5-43.2,58.9c-10.3,15.7-21.5,30.8-31.2,46.9c-11.7,19.4-23,39-33.9,58.9
		c-10.9,20-20.8,40.4-30.9,60.8c-6.7,13.4-12.5,27.2-18.1,41.1c-7.4,18.6-14.2,37.4-21.2,56.2c-6.9,18.5-12.6,37.3-18.1,56.2
		c-4,13.9-8.3,27.8-11.7,41.9c-4.4,18.2-8,36.6-11.8,55c-2.3,11.2-5,22.4-6.1,33.7c-1,9.5-2.4,18.9-3.5,28.3
		c-1.6,14.2-3.4,28.3-4.7,42.5c53.9,0,107.9,0,161.8,0c-0.3-18.7,1.5-37.3,3.1-55.9c0.6-7.2,0.8-14.5,2.1-21.6
		c2.2-11.6,2.6-23.4,4.7-35c2.1-11.2,3.7-22.5,5.8-33.8c1.9-10.6,4.1-21.1,6.3-31.7c2.7-12.6,5-25.3,8.5-37.7
		c3.2-11.1,6.1-22.3,9.2-33.4c5.9-21.5,12.8-42.8,20.1-63.8c4.8-14,10.4-27.8,15.8-41.6c8.4-21.6,18.1-42.6,28.1-63.5
		c6-12.7,12.7-25.1,19.6-37.3C-1491.8,530-1483.5,514.8-1473.9,500.7z"/>
	<path d="M-1045.1,79.9c-6.1-3.5-13-2.2-19.4-2.6c-16.7-1-33.4-1.6-50-2.2c-13.4-0.4-26.8-1.2-40.2-1.5c-5.7-0.1-12,0.8-17.6-1.7
		c-15.2-6.6-31.6-6.8-47.5-8.8c-12.2-1.6-24.2-3.5-35.9-7.5c-5.7-1.9-11.8-2.8-17.9-2.6c-2.1,0.1-3.7,0.9-4.6,3
		c-0.8,1.9,0.5,3.1,1.4,4.3c2.4,3.6,5.7,6.1,9.7,8c4.6,2.1,7.5,5.5,8.7,10.9c1.9,8.1,2.9,16.4,4.5,24.5c0.9,4.6,0.9,9.8-0.1,14.4
		c-2.2,9.2-9.4,14.8-16.9,19.7c-1.9,1.2-4.5,1.8-6.3-0.3c-1.6-1.8-1.9-4.1-1.1-6.5c1.9-5.7,5.8-10.1,9-15c1.8-2.8,2.7-6.2,0.9-8.9
		c-1.9-2.8-5.2-2.5-8.5-1.3c-2.4,0.9-4.4,2.1-6.1,4c-8.4,8.8-17.3,17.1-28.1,23.2c-7.6,4.3-15.1,8.5-24.1,8.9
		c-1.4,0.1-3.4,0.5-3.9-1.2c-0.4-1.3,1.3-2.2,2.3-3c4.5-4.1,9.6-7.5,12.9-12.9c0.8-1.3,1.7-2.3,0.7-4c-3-4.8-11-7.5-16.2-4.9
		c-8.7,4.2-17.3,8.5-25.9,13c-5.1,2.6-6.4,6.5-4.5,11.5c0.6,1.6,2.4,3.4,0.2,4.9c-2.1,1.4-4.4,3.4-7.2,2.5c-2.3-0.7-3.1-2.8-2.8-5.2
		c0.2-1.6-0.1-3.4,0.3-5c1.7-7.8,0.5-9.7-7.5-10.7c-4.5-0.6-8.6,0.6-12.3,3.2c-3.1,2.2-5.9,4.7-9.1,6.7c-2,1.2-4.2,3.2-6.8,1.8
		c-2.6-1.4-1.6-4.3-1.4-6.4c0.9-10.7-3.4-9.2-10.5-6.4c-1.2,0.5-2.4,1.1-3.6,1.7c-13.5,7-27.3,13.4-41.6,18.7
		c-3,1.1-6.2,1.8-8.9-0.4c-2.7-2.2-2.9-5.3-2.1-8.6c2.5-10.2-3.1-16.9-13.6-16.2c-2,0.1-3.2,0.6-3.9,2.8c-1.3,4.1-4,7.7-7.5,10.2
		c-12.1,8.8-25.3,15.6-39.4,20.5c-5.9,2-11.5-2.5-12-8.7c-0.3-4.8,2.1-8.9,2.1-13.6c0-1.6,0.3-3.8-2.3-3.2c-3.1,0.7-7,1.1-9.1,3.1
		c-9.2,9-21.3,11.9-32.6,16.3c-2,0.8-4.7,1.4-6-0.4c-1.2-1.9,0.8-4,2-5.5c3.6-4.3,7.6-8.3,11.3-12.5c4-4.4,2.4-10.6-3-12
		c-3.1-0.8-5.3,1.3-7.6,2.8c-2.8,1.8-5.8,3.1-9.2,3.1c-11.3,0-22.6-0.1-34,0c-4.1,0-5.5-1.8-5.6-5.7c-0.2-7.1,1.4-14.4-1-21.2
		c-1.9-5.5,0.5-8,4.8-10c1.5-0.7,3-1.4,4.4-2.1c10.4-5,18.1-14.8,14.8-29.3c-3.6-15.4-12.8-23.3-29-17.3
		c-14.3,5.3-26.2,15.2-39,23.4c-8.8,5.6-16.7,13.1-28.4,11.4c-1.3-0.2-2.8,0.6-4.3,0.9c-6.5,1.5-8.2,5.7-3.9,10.6
		c2,2.3,1.4,3.8,0,5.5c-4.6,5.4-9.4,10.6-13.9,16.1c-5.9,7.1-12.2,13.8-17.4,21.3c-3.6,5.2-3.5,11-2.6,16.7c1,5.9,8,7.4,12.8,3.2
		c7.5-6.6,10.7-5.8,13.8,3.5c2,5.9,5.6,10.3,11.2,13.1c9.1,4.5,18.1,2.5,27-0.7c16.6-6,30.8-15.9,43.3-28.2c2.8-2.7,5.9-4.8,9.8-5
		c11.8-0.8,23.5,1.3,35.3,1.1c2.9-0.1,5.1,1.1,2.2,4.9c-4.2,5.5-9.5,9.7-14,14.8c-3.1,3.5-3.2,7.4,0.2,9c3.3,1.6,6.6,2.8,10.8,1.4
		c11.3-3.7,21.7-9,32.3-14.2c5.5-2.7,9.8-0.4,9.9,5.6c0.1,5.1,3.2,7.4,7.1,8.1c15.9,2.8,31.2,1.7,45.5-7.4
		c7.2-4.6,12.8-10.8,19.3-16c2.8-2.3,6-3.5,8.4-1.8c2.1,1.5,2,5,1,8.2c-1.9,6.6,0.5,10.9,5.9,11.1c5.6,0.3,11,0,16.6-1.7
		c10.9-3.3,20.6-9.2,30.6-14.3c2.7-1.4,6-3.1,8.6-1.8c1.2,0.6-0.7,4.7-0.8,7.2c-0.1,3.7-2.3,8.7,2,11c3.8,2.1,8,0.5,11.4-2.3
		c0.6-0.5,1.4-0.8,2.1-1.3c5.4-3.9,10.8-7.9,16.3-11.8c1.7-1.2,3.4-3.2,5.7-1.5c1.8,1.3,2.4,3.5,2.3,5.7c-0.1,1.2,0,2.3,0,3.5
		c0.2,4.4,2.2,7.2,6.6,8.6c5.1,1.6,9.2-1.5,13.6-2.6c3.2-0.7,6.2-1.4,9.1,0.1c7.3,3.9,14.8,2.9,21.8,0c12.2-5.1,24.1-10.9,36.1-16.5
		c6.2-2.9,9.2-1.9,11.6,4.2c2.1,5.2,5.8,6.6,11.6,5.9c3.3-0.4,6.6-2.3,10.1-1c-0.1,3.9-3.3,6.9-2.8,10.9c0.5,4.1,5,9.2,9.3,9.6
		c4.8,0.4,5.3-3.8,6.2-7c1.1-3.9,2.5-7.3,5.2-10.4c2.5-2.8,4.3-6.2,6.6-9.1c6.4-8,13-15.8,22.8-20c6.5-2.7,9.5-8.8,7.8-15.5
		c-1.2-4.9-4.8-6.6-8.9-3.8c-3.8,2.5-7.3,5.5-10.9,8.4c-1.8,1.5-3.7,3-6.2,2.3c-2.6-0.7-2.3-3.5-2.7-5.4c-2.3-10-4.3-20.1-6.5-30.1
		c-1.4-6.5-0.2-8.4,6.3-8.2c9.9,0.2,19.3,3.6,29.2,4.2c9.9,0.6,19.8,2.5,29.7,3.7c9.1,1.1,18.3,2,27.4,3.2c12,1.6,24,3.4,36.2,4
		c8.3,0.4,16.7,0.3,24.7,3.7c1.2,0.5,2.6,1.4,4.2,1c13.2-2.8,25.3-0.1,36.5,7.5c4.6,3.1,8.3,2.1,11.6-2.4c1.8-2.3,2.1-5.1,3.5-7.5
		C-1041.1,82.5-1042.6,81.4-1045.1,79.9z M-1721.3,155.8c-3.8,0.8-7.1-1.2-9.9-3.5c-5.3-4.4-7.3-13.7-5.2-20.4
		c0.9-2.9,2.3-4.2,5.3-4c16,0.7,32,1.4,48,2c1.4,0.1,2.4,0.7,3.5,1.6C-1690.7,144.6-1704.9,152.2-1721.3,155.8z M-1669.8,120.6
		c-1.4,1.2-3.2,1.6-5.1,1.4c-9.3-1.1-18.6-1.7-27.8-3.4c-6.9-1.3-13.7-0.1-20.5-0.6c-1.8-0.1-3.9,0.6-4.8-1.6c-0.9-2,0.2-4,1.4-5.5
		c4.5-5.2,8.1-11.1,12.8-16.2c2.5-2.7,4.8-4.3,8.4-3.8c10,1.9,20.4,0.1,30.3,3.1C-1663.1,97.7-1660.3,112.3-1669.8,120.6z
		 M-1662.5,77.3c-9.2,1.5-18-1.2-27-0.4c-2.1,0.2-4.7-1-5.4-2.7c-0.7-1.9,1.9-3.4,3.4-4.4c9.7-6.3,19.4-12.6,29.4-18.4
		c10.6-6.1,14.7-3.3,14.7,9C-1646.9,70.1-1650.1,75.3-1662.5,77.3z M-1344.4,130.1c-1.6,2.4-5.7,4.8-8.6,4.9c-1.1,0-2.5,0.2-3.1-1
		c-0.7-1.4,1-1.8,1.6-2.7c2-3.1,5.6-3,8.5-4.2c0.7-0.3,1.7-0.3,2.1,0.7C-1343.6,128.6-1343.9,129.3-1344.4,130.1z"/>
	<path d="M-1877,137.9c2.9,0.1,3.5,1.3,2.6,3.7c-1.2,3-2.5,6-3.9,9c-3.9,8,1.8,15.2,8.9,15.4c21.8,0.5,40.2-6.4,53.9-24.1
		c3.6-4.6,3.6-10.2-0.6-14.2c-5.6-5.3-11.5-10.4-17.5-15.3c-4.2-3.4-6.3-2.8-9.6,1.7c-3,4.3-6.9,8.1-11.7,9.6
		c-9.2,2.8-18.4,6-28.8,5.3c-2,0-4.5,0.3-7-0.1c-2.2-0.4-5.2-0.6-6.1-2.6c-0.9-1.9,2-3,3.3-4.5c4.3-5,5.7-10.8,3.3-14.8
		c-3.2-5.2-8-3.9-12.7-3c-11.1,2.3-21.4,6-27.5,16.7c-6.7,11.8-22.7,19.5-36.2,17.3c-5.3-0.9-8.3-4.4-7.1-8.6
		c6.9-25.6,30.1-48.7,57.4-52.4c12.6-1.7,24.5-6.3,35.8-12.6c10.1-5.7,18.2-13.5,26.2-21.6c5.3-5.3,9.2-11.4,11.3-18.7
		c1.7-6.1,1.1-11.6-3.2-16.5c-4.7-5.4-10.4-6.3-17-4.8c-16,3.6-28.7,12.8-39.6,24.3c-12.7,13.4-26.1,26.1-38.9,39.4
		c-2,2-4.3,3.4-7.1,2.6c-9.4-2.5-17.9-6.5-23.2-15.2c-0.9-1.5-2.2-3-3.3-4.2c-2-2-4.8-4.5-7.7-3c-2.1,1.1-3.5,4.2-2.7,6.9
		c2,7.1,5.3,13.6,10.9,18.7c5.1,4.6,11.8,5.4,17.5,8.6c2.5,1.4,2.3,2.1,0.5,3.7c-6,5.4-12.3,10.5-18.1,16.1
		c-15.3,14.7-32.6,27-49.5,39.7c-4.2,3.1-8.2,6.6-11.1,11.1c-1.6,2.6-1.9,5.3-0.1,7.9c1.7,2.5,4.4,1.6,6.1,0.5
		c4.4-3.1,9.5-4.5,14.1-6.9c3.5-1.8,6.9-4,9.3-7.2c4.1-5.5,8.4-6.6,13.8-2.5c5.6,4.3,10.9,6.8,18.5,5.1c10.2-2.3,20.7-3.2,31-4.7
		c7.8-1.1,15.6-3.5,23.4-2.2c7.6,1.2,14.6,0,22-0.9C-1890.7,139.6-1884,137.5-1877,137.9z M-1864.6,152c0.9-1.7,1.2-3.9,2.4-5.3
		c7.8-8.1,15.6-16.2,24.3-23.3c2-1.7,4.6-2.1,7.4-0.6c4.3,2.4,7.3,6.6,8,10.6c0.7,4.2-2.8,8.6-6.6,10.7c-7.6,4.3-15.8,7.8-23.7,11.6
		c-1,0.5-2.3,0.2-4,0.3c-1.8,0.6-3.8-1.2-6.2-1.2C-1864.3,154.7-1865.5,153.8-1864.6,152z M-1923,66.3c0.2-3.4,2.4-5.8,4.4-8
		c8.8-9.9,17.1-20.3,27-29.1c7.9-7,16.3-13,27-15.4c4.2-1,8-1.3,10.8,2.2c3.3,4,2.2,8.9-0.3,12.4c-15.2,20.5-33.3,37.1-60.1,40.7
		c-1.8,0.2-3.4,1.5-5.3,0.9C-1922.8,70.7-1923.2,68.9-1923,66.3z M-1916.7,121.9c-0.7,0-1.8,0.3-2-0.8c-0.1-0.4,0.2-1.1,0.5-1.3
		c4.5-3,9-6.4,15.7-5.6C-1906.3,120-1910.9,122.1-1916.7,121.9z"/>
</g>
<g>
	<path d="M-356.3,502.6c-26.8-28.4-53.8-56.5-80.7-84.8c-9.3-9.7-19.3-18.4-31.6-24.1c-19.8-9.1-35-2.4-41,18.4
		c-2.2,7.5-3.1,15.2-3.1,22.9c-0.1,21.5,3.2,42.6,9.3,63.2c2.5,8.6,6.1,16.6,14,22.1c12.7,8.8,16.7,23.5,23.8,36
		c-0.5,0.3-0.9,0.6-1.4,0.8c-3.2-4.7-6.3-9.4-9.5-14.1c-4.7-6.8-9.2-13.8-15.2-19.6c-5.4-5.3-9.1-4.1-10.8,3.3
		c-0.6,2.4-1.1,4.9-1.3,7.4c-1.1,15.5-1.9,31,0,46.5c1.1,8.7,3.1,17.2,7.3,25.1c1.5,2.8,3.4,4,6.8,4c22.5-0.2,44.9-0.1,67.4,0
		c3.2,0,5.3-0.9,7.4-3.3c11.8-13.5,23.8-26.8,35.7-40.1c1.8-2,3.6-4.7,6.6-2c2.8,2.6,0.3,4.5-1.3,6.4c-9.7,11-19.5,22-29.2,33.1
		c-1.4,1.6-5.1,3.4-2.9,5.4c1.8,1.6,5.8,1.4,8.6-0.4c1.2-0.8,2.1-2.2,3.1-3.3c8.9-10,17.7-20,26.5-30c1.7-1.9,3.4-3.6,5.9-1.5
		c2.7,2.3,0.9,4.2-0.7,6c-6.9,7.8-14,15.6-20.8,23.5c-1.4,1.7-4.2,2.8-3.4,5.7c0.3,1.2,8.1,0.4,9.5-0.9c1.8-1.8,3.4-3.7,5.1-5.6
		c5.2-5.8,10.4-11.6,15.5-17.4c1.8-2,3.8-3.2,6-1.2c2.1,2,0.8,3.9-0.8,5.7c-3.2,3.5-6.5,6.9-9.4,10.6c-2.3,2.9-5.7,5.1-6.8,8.8
		c6.1,1.6,10.4,0.1,13.9-4.9c2.5-3.6,5.7-6.6,8.7-9.9c1.5-1.6,3-2.8,5.2-0.8c1.9,1.8,1.6,3.5,0.1,5.3c-1.9,2.2-3.9,4.3-5.7,6.4
		c-0.9,1.1-2.7,2.1-1.8,3.8c0.8,1.3,2.5,0.6,3.7,0.6c21.8,0,43.6,0,65.4,0c1.4,0,3.3,0.8,4.2-0.8c0.9-1.6-0.8-2.8-1.5-4
		C-298.6,567.8-326.3,534.3-356.3,502.6z M-419.8,510.6c-4.5-0.1-8-3.5-8.1-8c-0.1-4.6,3.5-8.4,8.1-8.5c4.7-0.1,8.3,3.5,8.3,8.3
		C-411.5,507.1-415.1,510.7-419.8,510.6z"/>
	<path d="M-653.3,390.9c-5.2,0-10.5,0-15.7,0c-1.9,0-2.4,1.1-1.6,2.7c1.9,3.6,1.5,7.6,1.5,11.4c0,52.1,0,104.1,0,156.2
		c0,1.2,0.7,2.7-1.3,3.7c-41.3-59-82.7-118-124.4-177.6c-1.5,3-1,5-1,7c0,67.9-0.1,135.9,0.1,203.8c0,3.9-3.4,9-0.4,11.2
		c2.6,2,7.8,0.5,11.9,0.5c6,0,5.9,0,4.7-6.1c-0.4-2.1-0.4-4.4-0.4-6.5c0-50.9,0-101.7-0.1-152.6c0-2.3,0-4.6,0-6.8
		c0.5-0.2,1.1-0.4,1.6-0.6c41.4,58.9,82.7,117.8,124.3,177c1.8-2.2,1.1-3.9,1.1-5.5c0-68.1,0-136.2,0.1-204.3
		c0-3.5-0.6-7.1,1.3-10.4C-650.6,392.2-651.1,390.9-653.3,390.9z"/>
	<path d="M-20.3,395.7c0.4-4.3-1.5-5-5.3-5c-16.7,0.2-33.5,0.1-50.2,0.1c-8.8,0-17.6,0-26.4,0c-8.4,0-16.9,0-25.3,0
		c-2.5,0-3.7,0.3-2.7,3.4c1.5,4.3,1.1,9,1.2,13.6c0,62.7,0,125.4,0,188.1c0,3,0.1,6.2-0.9,9c-1.5,4.6,0.4,4.9,4.2,4.9
		c29.9-0.1,59.8-0.1,89.7-0.1c14.1,0,14.1,0,13.7-14.2c0-0.3,0-0.7,0-1c0.1-2.1-0.3-3.1-2.9-2.3c-3,1-6.2,1.4-9.5,1.4
		c-24.2,0-48.3-0.1-72.5,0.1c-4.2,0-5.5-1.3-5.5-5.5c0.2-25,0.2-50,0-75c0-4,1-5.2,5.1-5.2c17.1,0.2,34.1,0.1,51.2,0.1
		c2.4,0,4.7,0,7,1c2.6,1.1,3.8,0.4,3.7-2.6c-0.1-4.4-0.1-8.8,0-13.2c0-2.6-0.6-4-3.5-2.7c-2.3,1-4.9,1.3-7.4,1.3
		c-17.1,0-34.1-0.1-51.2,0.1c-3.8,0-4.9-1.1-4.9-4.9c0.2-25,0.2-50,0-75c0-4,0.9-5.2,5-5.2c25.5,0.2,51,0.3,76.5-0.1
		c3.6-0.1,8,4.1,10.2,0.4C-19.1,404.3-20.7,399.6-20.3,395.7z"/>
	<path d="M-540.9,497.4c-9-8.6-19.3-15.2-30-21.5c-9.3-5.5-18.8-10.7-27.3-17.4c-11.4-9-15.9-21.6-12.3-34
		c5.5-18.7,24.2-28.8,43-23.4c7.4,2.1,14.3,5.1,20.9,8.8c2.7,1.5,3.2,0.6,3.2-1.9c0-4.9-0.1-9.8,0-14.7c0.1-3-1.1-3.8-3.9-3.6
		c-4.9,0.4-9.7-0.5-14.5-1.5c-10.1-2.1-20-3.6-30.5-0.9c-25.9,6.7-41.2,34.5-32.6,59.9c4.5,13.3,14.1,22.1,25.2,29.4
		c11.9,7.9,24.4,15.1,36.4,22.9c18.5,12,26.6,29.2,25.2,51.3c-1.4,21.1-14.7,38-35,44.2c-15.6,4.8-30.3,1.9-44.8-4.2
		c-3.5-1.5-7.5-5.8-10.2-3.9c-2.5,1.7-0.4,7.3-0.8,10.8c0,3,0.3,5.8-0.1,8.4c-0.5,3.9,1.5,4.4,4.5,3.4c2.7-0.9,5.3-0.5,8,0.2
		c10.8,2.5,21.7,4.9,33,4.2c15.6-1,29.2-6.2,40.6-17c13.2-12.5,19.1-28.4,20.5-46C-520.8,530.5-525.6,512.1-540.9,497.4z"/>
	<path d="M-146.2,594.6c0-2.7-1-3-3.4-2.2c-3.5,1.2-7.3,1.3-11,1.3c-24-0.1-48-0.1-72,0.1c-4.7,0-6.5-1.1-6.4-6.2
		c0.2-31.8,0.1-63.5,0.1-95.3c0-29.4,0-58.8,0-88.2c0-13.3,0-13.3-13.1-13.3c-3.3,0-6.2-0.5-3.8,4.7c1.2,2.7,0.7,6.3,0.7,9.5
		c0,63.7,0,127.4,0,191.1c0,3.4,0.3,6.8-0.8,10.1c-1.1,3.3,0.5,3.7,3.2,3.7c34.1,0,68.3-0.1,102.4,0c3.2,0,4.2-1.3,4.1-4.2
		C-146.3,602-146.3,598.3-146.2,594.6z"/>
	<path d="M-877.8,585.7c-2.8-15.8-6.6-31.3-15-45.3c-15.7-26.2-39.2-41.8-68.1-49.8c-4.3-1.2-4.6-2-1.8-5.3
		c12.5-14.9,24.6-30,37.1-44.9c13-15.5,25.3-31.7,39.1-46.6c0.5-0.6,1.3-1.4,1.2-2.1c-0.2-1.3-1.6-0.9-2.5-0.9c-3.4,0-6.8,0-10.1,0
		c-2.9,0-5.7,0-8.6,0c-2.5,0.1-6.1-1.1-3.8,3.9c0.8,1.9-1.1,3.4-2.3,4.8c-8.9,11.1-17.8,22.1-26.7,33.2
		c-16.9,21-33.9,42.1-50.8,63.2c-0.8,1-2.3,1.9-1.8,3.4c0.6,1.6,2.3,0.9,3.6,1.1c6.9,0.8,13.6,2.1,20.4,3.7
		c29.7,7.1,52.1,23.5,65,51.4c7.5,16.3,13.8,33.1,8.9,51.7c-0.6,2.3,1,2.5,2.6,2.5c5.6,0,11.2,0,16.7,0c2.3,0,3.2-0.7,2.2-3
		C-875.7,600.1-876.6,592.8-877.8,585.7z"/>
	<path d="M-1001.3,391.3c-2-1.3-5.5-0.3-8.4-0.3c0-0.1,0-0.1,0-0.2c-2.4,0-4.7,0-7.1,0c-2.4-0.1-3.9,0.2-2.8,3.4
		c1.4,3.8,1.4,7.9,1.4,12c0,62.7,0,125.4,0,188c0,4.1,0,8.2-1.2,12.1c-0.9,3,0.2,3.6,2.8,3.5c3.4-0.1,6.8-0.3,10.1,0
		c4.6,0.4,6.5-0.6,4.8-5.7c-0.8-2.3-0.4-5-0.4-7.6c0-61.7,0-123.3,0-185c0-4.2,0.4-8.5,0-12.7
		C-1002.2,396.2-998.7,393.1-1001.3,391.3z"/>
	<path d="M-832.5,599c0-65.9,0-131.8,0-197.7c0-2.4-0.2-4.7,0.9-7c1.5-3-0.1-3.5-2.7-3.4c-3.5,0.1-7.1,0.1-10.6,0
		c-3.8-0.1-7.1-0.4-4.2,5.1c0.8,1.6,0.4,4,0.4,6c0,32.6,0,65.2,0,97.9c0,32.6,0,65.2,0,97.9c0,3,0.2,6.1-1.1,9
		c-1.2,2.6,0.1,3.2,2.5,3.2c4.6-0.1,9.1-0.1,13.7,0c2.9,0.1,3.2-1.2,2.2-3.4C-832.4,604-832.5,601.5-832.5,599z"/>
</g>
<g>
	<path d="M193,676.3c-2.4-0.4-3.7,1.1-4.3,3.2c-0.5,1.7-1,3.5-1.4,5.3c-9.7,34.8-15.9,70.3-22.2,105.8c-5.9,33-11.3,66.1-16,99.3
		c-3.9,27.3-6.9,54.7-9.5,82.2c-0.9,9.1-2.6,18.1-2.2,27.3c19,0,38,0,56.9,0c0-1.3,0.2-2.7,0.1-4c-1.5-25.2-3.2-50.4-4.6-75.6
		c-1.9-35.2-1.6-70.5-1-105.8c0.7-39.7,3.3-79.4,6.5-119c0.4-4.6,0.7-9.3,1.1-13.9C196.5,678.6,195.5,676.7,193,676.3z"/>
	<path d="M168.8,691c0.6-2.5,1.2-5.2-2.1-6.3c-3.1-1-4.4,1.3-5.4,3.8c-4.6,11.2-9.5,22.3-13.7,33.7C122.2,791.4,98.3,861,78.4,931.9
		c-6.3,22.4-12,44.9-18,67.4c18.6,0,37.3,0,55.9,0c3.7-31.8,7.2-63.7,11.9-95.4c5.4-36,11.6-71.8,18.6-107.5
		C153.8,761.2,160.4,725.9,168.8,691z"/>
	<path d="M574.7,996.5c-12.8-4.8-25.8-8.9-38.3-14.2c-45.4-19.2-91.9-35-139.7-46.9c-14-3.5-28.1-5.4-42.5-2.9
		c-10,1.7-18.3,7-26.7,11.9c-5.7,3.3-11.5,6.6-17,10.4c-3.7,2.6-3.3,5.5,0.5,7.8c1.3,0.8,2.7,1.4,4.1,1.9
		c18.3,6.5,36.5,13.5,54.1,21.8c9.3,4.3,19.2,7.4,27.8,13c60.9,0,121.8,0,182.8,0C578.8,997.1,576.5,997.2,574.7,996.5z"/>
	<path d="M132.8,716.2c2.2-5.7,4.3-11.5,6.4-17.3c0.6-1.8,0.7-3.7-1.4-4.8c-2.2-1.1-3.9-0.2-5.1,1.6c-0.7,1.1-1.4,2.3-2,3.4
		c-11.8,20.6-22.8,41.7-34,62.7C65.3,820.9,35.9,881,8.9,942.1C4.1,953,0,963.6,0.3,976.4c0.3,16.7,0.2,15.3,0.2,22.9
		c13.3,0,26.6,0,40,0c0.1-1,0-2,0.3-2.9c8.6-33.2,18.5-65.9,28.4-98.7C87.6,836.3,109.6,776,132.8,716.2z"/>
	<path d="M238.1,874.4c-3.9-27.5-7.5-55-10.5-82.6c-3.1-28.8-5.5-57.6-7.5-86.5c-0.7-10.1-1.5-20.2-2.5-30.3c-0.2-2.3-0.7-5-3.8-5
		c-3.1,0.1-3.9,2.7-4.2,5.3c-0.4,3.8-0.8,7.6-1.1,11.4c-1.8,25.1-2.4,50.2-2.8,75.3c-0.8,52.9,0.1,105.8,1.8,158.7
		c0.5,13.6,1.9,27.2,2.6,40.8c0.6,12.6,2.5,25.1,2.1,37.8c16.3,0,32.6,0,48.9,0c-0.4-6.8-2.3-13.4-3.8-20
		C249.7,944.6,243.1,909.6,238.1,874.4z"/>
	<path d="M344.1,696.2c9.8,3.7,16.6,9.7,17.4,21.3c0.5,7.9,1.9,15.8,1.8,23.8c-0.1,8.6,3.3,15.1,10.8,19.4c3,1.7,5.8,3.8,8.7,5.8
		c11.9,8.1,16.8,19.9,15,33.7c-2.8,20.7-6.8,41.2-10.2,61.8c-1.3,8-2.3,16.1-1,24.2c2.7,17.2,24.6,35.1,44.1,35
		c11.3-0.1,19.4-4.6,24.4-14.9c3.5-7.2,4.2-14.9,4.9-22.7c1.5-16.1,0.1-32.3,0.6-48.4c1.1-37.5-2.5-74.7-4.6-112.1
		c-1.1-19.1-4.1-37.9-8.7-56.4c-2.2-8.8-3.1-17.7-2.1-26.7c2-17.5,0-34.3-10.2-49.1c-15.1-21.9-35-39.1-55.7-55.4
		c-12.1-9.6-25.2-17.8-36.5-28.6c-12.8-12.2-24.2-25-29.9-42.3c-3.6-11-8-21.8-12.1-32.7c-2.7-7.4-6.4-9.1-13.9-7.3
		c-9.3,2.3-16.9,7.7-23.8,14.1c-10,9.3-12.7,20.3-7.9,33.1c2,5.3,5.5,9.8,9,14.3c5.3,6.7,9.7,13.9,12.3,22.1
		c5.3,17-3.3,30.2-21.1,31.7c-14.4,1.3-28.9,1.9-43.3,3.1c-13.2,1.1-26.6,0.5-39.7,3c-42.5,8.3-76.6,29.6-98.5,67.3
		c-24.9,43-48.3,86.9-72.4,130.4c-1.3,2.3-1.3,4.7-1.3,7.2c0,48.9,0,97.9,0,146.8c0,1.6,0,3.3,0,5.4c1.9-0.7,2.2-2,2.7-2.9
		c17.2-31.7,34.6-63.4,51.4-95.3c20.3-38.6,40.9-76.9,66-112.7c14.1-20.1,30-37.3,56.3-40.4c8.9-1.1,16.3-6.2,24-10.6
		c10.4-5.9,21.8-9.2,32.7-2.6c17.7,10.7,34.2,23.1,46.4,40.3c1.5,2.1,3.4,3.7,5.3,5.2c7.7,6.2,17,6.8,26.3,7.5
		C322.5,692.6,333.7,692.3,344.1,696.2z"/>
	<path d="M990,750c-17.4-46.6-34.7-93.2-52.1-139.7c-10.7-28.7-21.3-57.3-32-86c-0.8-2.3-1.6-4.1-4.7-4c-18.6,0.2-37.3,0.3-55.9,0.2
		c-3.2,0-4.6,1.1-5.7,4.1c-15,40.5-30.1,81-45.2,121.5C781,682,767.6,718,754,754c-1.7,4.4-0.5,4.9,3.5,4.8c9-0.2,18-0.1,27-0.1
		c8.8,0,17.6-0.2,26.5,0.1c3.9,0.1,5.8-0.8,7.1-4.8c3.7-11.6,8-22.9,12-34.4c0.7-1.9,1.1-3.4,4-3.4c25.1,0.2,50.3,0.2,75.4,0.1
		c3.2,0,4.7,0.9,5.7,4c3.7,11.4,7.9,22.6,11.5,34c1.1,3.5,2.7,4.6,6.3,4.6c17-0.2,34-0.1,50.9-0.1C993.2,758.7,993.2,758.7,990,750z
		 M894.4,669.9c-15-0.2-29.9-0.1-44.9-0.1c-2.1,0-4.1,0.4-3-3.1c8.6-26.2,17-52.3,25.5-78.5c0.4-0.1,0.8-0.1,1.1-0.2
		c3.3,10.4,6.6,20.8,9.9,31.2c4.8,15.4,9.6,30.8,14.6,46.1C898.7,668.8,898.3,669.9,894.4,669.9z"/>
	<path d="M657.6,704.8c-33.3,0.2-66.6,0-99.9,0.2c-4.7,0-5.7-1.3-5.7-5.8c0.2-57.8,0-115.5,0.2-173.3c0-4.5-1.3-5.7-5.6-5.7
		c-17,0.2-34,0.2-50.9,0c-4.7-0.1-5.8,1.3-5.8,5.9c0.2,37.8,0.1,75.6,0.1,113.4c0,38.1,0.1,76.2-0.1,114.4c0,3.9,1,5,5,5
		c54.3-0.1,108.5-0.2,162.8,0c4.2,0,5.3-1.2,5.2-5.3c-0.2-14.5-0.2-29,0-43.4C663,705.8,661.7,704.8,657.6,704.8z"/>
	<path d="M386.7,279.2c-2.8,4.7-5,9.8-7.1,14.8c-1.2,2.9-0.9,5.9,1.4,8.4c2.4,2.5,5.4,2.6,8.3,1.5c2.5-0.9,4.9-2.2,7.1-3.6
		c22.6-14.6,44.6-30.2,66-46.6c27.2-20.8,45.7-47.9,59.5-78.7c6.9-15.4,5.8-39.7-11.2-50.3c-2.9-1.8-1.6-3.7-0.4-5.8
		c8.7-14.9,17.4-29.9,24.6-45.6c9.9-21.5,18.6-43.4,19.4-67.7c1.3-4.2-0.7-5.2-4.8-5.1c-9.3,0.3-18.6,0.3-27.9,0
		c-3.6-0.1-5.2,1.2-6.6,4.3c-15.1,34.6-30.5,69-45.4,103.7C444.7,166.6,418.8,224.4,386.7,279.2z"/>
	<path d="M81.1,348.6c6.3,0.5,12.6,0.4,18.9,0.2c22.7-0.7,45-1.8,64.7-15.9c9.8-7,21.9-9.2,34.4-6.7c6.1,1.2,10,4.3,11.2,10.4
		c1.3,6.3,2.9,12.6,3.8,19c2.7,18.5,14.1,28.6,32.8,28.6c4.3,0,8.8,0.2,12.9-1.2c12.9-4.3,25.8-3.4,38.9-1.2
		c8,1.4,16.1,2.8,24.3,1.4c6.2-1.1,10.5-5.9,11.1-12.3c1.1-11.5-5.7-18.2-14.3-23.8c-6-3.9-12.2-7.5-18.3-11.2
		c-7.7-4.7-12.7-11.1-12.7-20.6c0-4.1-0.6-8.3-0.8-12.4c-0.2-5.3-2.7-8.8-7.9-10.2c-2.7-0.7-5.5-1.3-8.3-1.4
		c-15.7-0.4-30.1-3.6-42.7-14.6c-11.4-10-25.1-16.2-46.5-15.3c-6.3,0.6-18.2,1-29.5,4.7c-37.1,12.2-63,36.6-77.7,72.8
		C72.9,345.3,74.2,348,81.1,348.6z"/>
	<path d="M735.3,520.4c-17.3,0.2-34.6,0.2-51.9,0c-3.8,0-4.7,1.1-4.7,4.8c0.1,76.2,0.1,152.4,0,228.7c0,4.1,1.4,4.9,5.1,4.9
		c17.3-0.2,34.6-0.2,51.9,0c4.2,0.1,5.2-1.1,5.2-5.2c-0.2-37.9-0.1-75.9-0.1-113.8c0-37.9-0.1-75.9,0.1-113.8
		C740.9,521.4,739.7,520.4,735.3,520.4z"/>
	<path d="M515.5,247.4c-23.5,18-46.8,36.4-73.4,49.9c-12,6.1-24.4,11.5-35.6,19c-4.4,3-6.7,7.1-5.6,12.4c1,5.3,5.4,7.3,10.1,8.4
		c5.3,1.2,10.6,0.5,15.8-0.5c10.9-2.1,21.7-4.8,32.9-5.8c16.1-1.6,32.2-0.9,48.4-1.8c16-0.9,30.9-4.9,43.2-15.6
		c18.5-16,24.7-37.2,25.3-60.6c0-2.3,0.1-4.7,0-7c-0.7-17.5-10.5-24.3-27-18.7C536.8,231.4,526.1,239.4,515.5,247.4z"/>
	<path d="M512.6,358.2c-11.2-3.8-22.7-6.3-34.7-6c-16.8,0.5-33.5,2.4-50.1,4.3c-5.9,0.7-11.9,1.9-17,5.4c-7.2,4.9-6.7,13.1,1,17.2
		c3.4,1.8,7,3.1,10.6,4.3c18.6,6.3,36.6,14,53.7,23.6c17.4,9.7,34.7,20,55,22.4c13.4,1.6,26.6,1.6,38.8-5.4
		c9-5.1,14.1-13.1,15.4-23.2c1.3-10.2-5.5-15.5-13.4-19.5C552.9,371.7,532.8,365,512.6,358.2z"/>
	<path d="M357.3,273.5c-0.7,2.8-0.2,5.5,2.9,6.6c2.9,1,5.2-0.2,6.4-3.2c0.6-1.5,1.4-3,2-4.6c27-65.5,54-131,81.1-196.5
		c9.6-23.4,19.3-46.7,28.9-70.1c2.1-5.2,2.1-5.2-3.6-5.2c-6.3,0-12.6,0-19,0c-6.8,0-13.7,0.1-20.5-0.1c-2.8-0.1-4,0.8-4.7,3.7
		c-3.3,12.9-6.8,25.7-10.3,38.5c-19.4,70.9-38.7,141.7-58.1,212.6C360.6,261.3,358.9,267.3,357.3,273.5z"/>
	<path d="M334.9,265.6c-0.3,2.7,0.9,4.6,3.6,5.1c2.9,0.6,4.8-0.6,5.8-3.4c0.4-1.1,0.7-2.2,1-3.3c10.3-39.6,20.6-79.1,30.8-118.7
		c12.1-46.6,24.1-93.3,36.3-139.9c1.2-4.4-0.1-5-3.9-4.9c-5.8,0.2-11.6,0.1-17.5,0.1c-3.3,0-6.7-0.1-10,0c-4.1,0.2-9.2-1.7-12.1,0.9
		c-2.5,2.2-1.6,7.2-2,11c-0.1,1.5-0.5,2.9-0.7,4.4c-2.8,22.3-5.6,44.5-8.4,66.8c-3.5,27.4-7.1,54.7-10.6,82.1
		c-3.3,25.5-6.5,51.1-9.7,76.7C336.5,250,335.7,257.8,334.9,265.6z"/>
	<path d="M251.8,54.4c10.9,55.3,21.7,110.5,32.6,165.8c1.7,8.5,3.3,17,5,25.4c0.6,3.1,2,5.6,5.5,5.3c3.8-0.4,4.7-3.2,4.3-6.6
		c-0.1-0.7-0.1-1.3-0.1-2c-2-38.7-4.1-77.4-6-116.1c-2.1-40.7-4.1-81.4-6-122.1c-0.2-3.2-1.4-3.8-4.2-3.7
		c-6.2,0.2-12.3,0.1-18.5,0.1c-6.5,0-13,0.1-19.5,0c-2.8-0.1-3.6,0.5-3,3.6C245.3,20.8,248.5,37.6,251.8,54.4z"/>
	<path d="M311.4,200.2c0.4,18.3,0.9,36.6,1.4,54.9c0.1,3.2,0.6,6.2,4.7,6.3c4.1,0.1,5.2-2.5,5.5-6.1c1.7-19.9,3.6-39.7,5.5-59.6
		c2.9-31,5.7-61.9,8.6-92.9c1.8-19.2,3.7-38.4,5.5-57.6c1.3-13.6,2.3-27.2,3.5-40.8c0.3-3-0.4-4.2-3.7-4c-5.1,0.3-10.3,0.1-15.5,0.1
		c-5.2,0-10.3,0.2-15.5-0.1c-3.3-0.2-4.3,0.8-4.2,4.2c0.6,19.3,1.1,38.6,1.5,57.9C309.7,108.4,310.5,154.3,311.4,200.2z"/>
	<path d="M469.9,429c-17-11-36.4-17-55.8-22.4c-1.9-0.5-4-0.4-5.9-0.3c-7.1,0.7-9.9,6.8-5.5,12.5c2.2,2.9,4.8,5.5,7.5,8
		c10.4,10.1,19.7,21.2,28.1,33c7.1,10,13.9,20.3,23.4,28.5c10.4,9,21.9,15.6,36.3,16.5c3.4-0.2,7.2-0.5,10.5-2
		c12.9-6.2,18.1-15.1,8.1-27.5c-3.5-4.4-7.2-8.7-11.1-12.8C494.1,450.7,483.7,437.9,469.9,429z"/>
</g>
</svg>
