<?xml version="1.0" encoding="utf-8"?>
<!-- Generator: Adobe Illustrator 24.0.3, SVG Export Plug-In . SVG Version: 6.00 Build 0)  -->
<svg version="1.1" id="Layer_1" xmlns="http://www.w3.org/2000/svg" xmlns:xlink="http://www.w3.org/1999/xlink" x="0px" y="0px"
	 viewBox="0 0 1000 1000" style="enable-background:new 0 0 1000 1000;" xml:space="preserve">
<g>
	<path d="M499.1,799.9c59.6-1.1,107.7-25.8,143.4-73.6c21.8-29.1,32.7-62.2,36.4-98.9c14.3,57.4,28.6,114.8,42.9,172.3
		c18.1,0,35.4,0,53.7,0c-49.5-199.9-99-399.3-148.8-600.4c22.2,0,42.8,0,64.5,0c0-10.3,0-19.3,0-28.2c-0.1-16.1-2.3-18.4-18.1-18.4
		c-115.4,0-230.9,0-346.3,0c-3,0-6.5-0.8-8.9,0.4c-3.3,1.7-8,4.9-8.2,7.8c-0.9,12.6-0.4,25.2-0.4,38.8c21.8,0,42.1,0,63.5,0
		c-49.6,200.6-98.9,399.9-148.4,600c18.7,0,35.6,0,53.4,0C304.3,693,330.7,586.5,357.2,480c0.8,0.1,1.6,0.1,2.5,0.2
		c0,106.4,0,212.8,0,319.9C407.2,800,453.1,800.7,499.1,799.9z M626,637.4c-7.2,62.8-63.4,112.7-127,112.8
		c-24.1,0-48.2-0.3-72.4,0.1c-10.1,0.2-14.2-3.4-14-13.8c0.4-38.4,0.2-76.9,0.2-115.4c0-38.1,0.2-76.2-0.2-114.2
		c-0.1-10.3,3.6-14.4,13.8-14c33.1,1.3,66.8-1.4,99.1,4.2C590.4,508.5,633.6,571.4,626,637.4z M423.8,212.5
		c2.2-8.4,9-12.9,17.9-12.9c38.9-0.1,77.7-0.1,116.6,0c9,0,15.5,4.5,17.8,13c7.2,27.6,13.8,55.4,21,84.3c-65.1,0-128.5,0-191.9,0
		c-0.5-1.3-1.3-2.4-1.1-3.2C410.5,266.6,416.7,239.4,423.8,212.5z M387.7,360.3c1.5-5,10.7-10.8,16.3-10.8
		c63.7-0.8,127.4-0.5,191.1-0.5c9.4,0,15.8,4.5,18.1,13.8c13.7,55.3,27.3,110.6,40.9,165.9c-16.2-16.6-31.9-35.2-50.5-50.3
		c-29.9-24.1-65.5-34.7-104-34.7c-39.9,0-79.9,0-119.8,0c-4,0-8,0-13.7,0C373.4,414.6,379.6,387.2,387.7,360.3z"/>
	<path d="M956.7,562c-2.3,0.1-5.6,4.3-6.3,7.1c-2.4,9.9-3.5,20.1-5.8,29.9c-54.3,233.7-280.5,385.4-516.7,346.5
		C173.6,903.9,5.2,658.2,58.3,406.6c56.2-266.5,339.1-425.5,595-331.1c164.8,60.8,263.7,180.9,296.9,354.1c0.6,3.3,4.6,8.4,7.3,8.6
		c13.5,0.9,27,0.4,41.5,0.4C980.4,227.7,790.5,10,519.5,0.3C228-10-20.5,233,1.3,537.9c19.1,266.6,257.4,492.8,559.6,458.7
		C830,966.2,987.2,738,998.3,561.7C984.4,561.7,970.5,561.3,956.7,562z"/>
</g>
</svg>
